<svg width="27" height="28" viewBox="0 0 27 28" fill="none" xmlns="http://www.w3.org/2000/svg">
<path d="M9 8.4541V7.5541C9 6.29399 9 5.66392 9.24524 5.18262C9.46095 4.75925 9.80515 4.41505 10.2285 4.19934C10.7098 3.9541 11.3399 3.9541 12.6 3.9541H14.4C15.6601 3.9541 16.2902 3.9541 16.7715 4.19934C17.1948 4.41505 17.5391 4.75925 17.7547 5.18262C18 5.66392 18 6.29399 18 7.5541V8.4541M18 8.4541H8.775C8.44795 8.4541 8.1492 8.4541 7.875 8.456M18 8.4541H19.125M7.875 24.2041V8.456M7.875 8.456C6.56445 8.46512 5.81482 8.51775 5.21778 8.82195C4.58273 9.14553 4.06643 9.66183 3.74285 10.2969C3.375 11.0188 3.375 11.9639 3.375 13.8541V18.8041C3.375 20.6943 3.375 21.6393 3.74285 22.3614C4.06643 22.9964 4.58273 23.5127 5.21778 23.8362C5.93973 24.2041 6.88482 24.2041 8.775 24.2041H18.225C20.1152 24.2041 21.0602 24.2041 21.7822 23.8362C22.4173 23.5127 22.9336 22.9964 23.2571 22.3614C23.625 21.6393 23.625 20.6943 23.625 18.8041V13.8541C23.625 11.9639 23.625 11.0188 23.2571 10.2969C22.9336 9.66183 22.4173 9.14553 21.7822 8.82195C21.0602 8.4541 20.1152 8.4541 18.225 8.4541H19.125M19.125 24.2041V8.4541" stroke="white" stroke-width="2.25" stroke-linecap="round" stroke-linejoin="round"/>
</svg>
