<svg width="30" height="32" viewBox="0 0 30 32" fill="none" xmlns="http://www.w3.org/2000/svg">
<g clip-path="url(#clip0_117_196)">
<path d="M21.2085 8.5791V14.8797H16.0608V8.5791H14.1043V14.8797H8.95656V8.5791H7V23.1369H8.95656V16.8363H14.1043V23.1369H16.0608V16.8363H23.1651V8.5791H21.2085Z" fill="white"/>
<path d="M25.6066 5.05415C22.7735 2.16835 19.0066 0.579102 15 0.579102C10.9934 0.579102 7.22654 2.16835 4.39336 5.05415C1.56023 7.94001 0 11.7768 0 15.858C0 19.9392 1.56023 23.776 4.39336 26.6618C7.22654 29.5476 10.9934 31.1369 15 31.1369C19.0066 31.1369 22.7735 29.5476 25.6066 26.6618C28.4398 23.776 30 19.9392 30 15.858C30 11.7768 28.4398 7.94001 25.6066 5.05415ZM15 29.144C7.80785 29.144 1.9565 23.1839 1.9565 15.858C1.9565 8.53207 7.80785 2.57198 15 2.57198C22.1921 2.57198 28.0435 8.53212 28.0435 15.858C28.0435 23.1839 22.1921 29.144 15 29.144Z" fill="white"/>
</g>
<defs>
<clipPath id="clip0_117_196">
<rect width="30" height="30.5578" fill="white" transform="translate(0 0.579102)"/>
</clipPath>
</defs>
</svg>
