<svg width="70" height="70" viewBox="0 0 70 70" fill="none" xmlns="http://www.w3.org/2000/svg">
<path d="M14.582 55.417L18.957 51.042" stroke="white" stroke-width="4.375" stroke-linecap="round"/>
<path d="M14.582 14.583L18.957 18.958" stroke="white" stroke-width="4.375" stroke-linecap="round"/>
<path d="M55.418 55.417L51.043 51.042" stroke="white" stroke-width="4.375" stroke-linecap="round"/>
<path d="M55.418 14.583L51.043 18.958" stroke="white" stroke-width="4.375" stroke-linecap="round"/>
<path d="M64.168 35H58.3346" stroke="white" stroke-width="4.375" stroke-linecap="round"/>
<path d="M11.668 35H5.83464" stroke="white" stroke-width="4.375" stroke-linecap="round"/>
<path d="M35 11.6673V5.83398" stroke="white" stroke-width="4.375" stroke-linecap="round"/>
<path d="M29.813 41.8952C26.3958 38.478 26.3958 32.9378 29.813 29.5209C33.2302 26.1037 38.7704 26.1037 42.1874 29.5209C43.4872 30.8206 44.395 33.5188 45.0209 36.3637C45.9569 40.6177 46.4249 42.7448 44.7309 44.4388C43.0369 46.1328 40.9099 45.6647 36.6558 44.7287C33.8112 44.1028 31.113 43.1948 29.813 41.8952Z" stroke="white" stroke-width="4.375"/>
<path d="M43.7513 62.8311C55.5845 59.1144 64.168 48.0593 64.168 34.9997C64.168 18.8914 51.1096 5.83301 35.0013 5.83301C18.8931 5.83301 5.83464 18.8914 5.83464 34.9997C5.83464 48.0593 14.4181 59.1144 26.2513 62.8311" stroke="white" stroke-width="4.375" stroke-linecap="round"/>
</svg>
