<svg width="56" height="56" viewBox="0 0 56 56" fill="none" xmlns="http://www.w3.org/2000/svg">
<g clip-path="url(#clip0_123_7)">
<path d="M42.6951 20.3952C42.6888 20.3897 42.664 20.3749 42.6238 20.351C42.4451 20.2446 41.963 19.9576 41.4579 19.5016C40.8048 18.913 40.053 18.1182 39.3613 17.3363L42.6951 20.3952ZM42.6951 20.3952L42.8032 20.2716C42.7902 20.2602 42.7753 20.2508 42.7705 20.2478C42.766 20.2449 42.7609 20.2418 42.7555 20.2385C42.7431 20.2364 42.7308 20.2344 42.7184 20.2327L42.6951 20.3952ZM36.9231 14.1549L36.8617 14.0322L36.8498 14.0084L36.831 13.9896C35.7267 12.8853 34.1603 11.4325 31.5252 11.4325H21.6269C21.0014 11.4325 20.2188 11.5205 19.4703 12.0467C18.7133 12.5789 18.1633 13.6154 18.1633 14.793V20.231H5.12971C4.0122 20.231 2.86302 20.4806 1.96277 21.2683C1.05938 22.0588 0.566318 23.3205 0.566318 24.7944V33.9366C0.566318 34.8943 1.02398 35.7705 1.69422 36.2994C2.36027 36.825 3.19737 37.0565 4.0299 37.0565H6.19522C6.78763 40.1854 9.53374 42.5555 12.8284 42.5555C16.1231 42.5555 18.8692 40.1854 19.4616 37.0565H36.9899C37.5823 40.1854 40.3285 42.5555 43.6231 42.5555C46.9178 42.5555 49.6639 40.1854 50.2563 37.0565H52.4216C54.3295 37.0565 55.8852 35.5008 55.8852 33.5929V26.994C55.8852 25.8117 55.1058 25.0128 54.2729 24.3881C53.4309 23.7567 52.3326 23.2262 51.1098 22.7182C48.7529 21.7358 45.8205 20.9056 43.091 20.3414L36.9231 14.1549ZM36.9231 14.1549L36.9164 14.1464L36.9139 14.1432L36.9133 14.1424L36.9131 14.1422L36.9131 14.1421L36.7837 14.2431L36.9305 14.1697L36.9231 14.1549ZM35.1339 15.9187L35.1512 15.9015C35.4693 16.3226 36.4103 17.5584 37.5888 18.8887C37.9975 19.3508 38.4291 19.7977 38.8611 20.231H28.3899V13.9605H31.5252C32.4154 13.9605 33.0117 14.1513 33.518 14.4682C33.9751 14.7543 34.363 15.1444 34.8333 15.6174C34.8934 15.6778 34.9548 15.7396 35.0179 15.8027L35.1339 15.9187ZM53.4296 26.862C53.4625 26.909 53.4845 26.9454 53.4987 26.9689C53.5058 26.9806 53.511 26.989 53.5145 26.994H53.3573C53.3573 26.9919 53.3571 26.9772 53.3617 26.9585L53.3618 26.9581C53.3634 26.9515 53.3766 26.8968 53.4296 26.862ZM53.3558 27.0497L53.3573 27.0522V33.5929C53.3573 33.7901 53.2399 34.0258 53.0472 34.2185C52.8545 34.4112 52.6188 34.5286 52.4216 34.5286H50.2563C49.6639 31.3997 46.9178 29.0295 43.6231 29.0295C40.3285 29.0295 37.5823 31.3997 36.9899 34.5286H19.4616C18.8692 31.3997 16.1231 29.0295 12.8284 29.0295C9.53374 29.0295 6.78763 31.3997 6.19522 34.5286H4.0299C3.68964 34.5286 3.41093 34.4314 3.27167 34.3227C3.19391 34.262 3.15522 34.2162 3.13233 34.1685C3.10903 34.1199 3.09424 34.0529 3.09424 33.9366V24.7944C3.09424 23.8249 3.34202 23.4124 3.62292 23.1647C3.90603 22.9151 4.39106 22.7589 5.12971 22.7589H42.5066C45.1276 23.2987 47.9967 24.1449 50.1587 25.049C51.2721 25.5158 52.1678 25.9778 52.7355 26.4036C53.0149 26.6131 53.1757 26.7953 53.2654 26.9151C53.3102 26.9751 53.3382 27.0207 53.3558 27.0497ZM21.6269 13.9605H25.862V20.231H20.6912V14.793C20.6912 14.5022 20.7205 14.3611 20.7549 14.2842C20.7841 14.2186 20.8194 14.1909 20.8964 14.1368C20.9536 14.0967 21.0562 14.0514 21.1912 14.0164C21.3237 13.9821 21.4763 13.9605 21.6269 13.9605ZM12.8284 31.5574C15.1822 31.5574 17.0635 33.4387 17.0635 35.7925C17.0635 38.1464 15.1822 40.0276 12.8284 40.0276C10.4745 40.0276 8.5933 38.1464 8.5933 35.7925C8.5933 33.4387 10.4745 31.5574 12.8284 31.5574ZM43.6231 31.5574C45.977 31.5574 47.8582 33.4387 47.8582 35.7925C47.8582 38.1464 45.977 40.0276 43.6231 40.0276C41.2693 40.0276 39.388 38.1464 39.388 35.7925C39.388 33.4387 41.2693 31.5574 43.6231 31.5574Z" fill="#F9F9F9" stroke="white" stroke-width="0.328302"/>
</g>
<defs>
<clipPath id="clip0_123_7">
<rect width="54.9906" height="54.9906" fill="white" transform="translate(0.730469 0.334473)"/>
</clipPath>
</defs>
</svg>
