<svg width="56" height="56" viewBox="0 0 56 56" fill="none" xmlns="http://www.w3.org/2000/svg">
<path fill-rule="evenodd" clip-rule="evenodd" d="M20.6883 39.1664C20.6956 41.1952 19.5095 43.0286 17.6839 43.8103C15.8583 44.5918 13.7534 44.1675 12.352 42.7355C10.9505 41.3034 10.5291 39.1462 11.2845 37.2708C12.0399 35.3956 13.823 34.1724 15.8012 34.1724C17.095 34.1698 18.3367 34.6947 19.2532 35.6313C20.1697 36.5678 20.686 37.8393 20.6883 39.1664Z" stroke="#F9F9F9" stroke-width="3.44573" stroke-linecap="round" stroke-linejoin="round"/>
<path fill-rule="evenodd" clip-rule="evenodd" d="M44.6961 39.1664C44.7033 41.1952 43.5172 43.0286 41.6917 43.8103C39.8661 44.5918 37.761 44.1675 36.3598 42.7355C34.9583 41.3034 34.537 39.1462 35.2923 37.2708C36.0476 35.3956 37.8306 34.1724 39.8089 34.1724C41.1027 34.1698 42.3445 34.6947 43.2609 35.6313C44.1774 36.5678 44.6936 37.8393 44.6961 39.1664Z" stroke="#F9F9F9" stroke-width="3.44573" stroke-linecap="round" stroke-linejoin="round"/>
<path d="M6.67242 23.464C6.34436 24.357 6.80248 25.3471 7.69564 25.6751C8.58882 26.0032 9.57882 25.5451 9.90688 24.652L6.67242 23.464ZM10.0075 19.381L8.40424 18.7502C8.39946 18.7624 8.3948 18.7747 8.3903 18.787L10.0075 19.381ZM23.1793 13.7231C24.1309 13.7231 24.9022 12.9517 24.9022 12.0002C24.9022 11.0487 24.1309 10.2773 23.1793 10.2773V13.7231ZM8.28966 25.7808C9.24116 25.7808 10.0125 25.0094 10.0125 24.058C10.0125 23.1064 9.24116 22.3351 8.28966 22.3351V25.7808ZM5.35785 24.058L5.34476 25.7808H5.35785V24.058ZM2.91432 26.5274L1.19145 26.515V26.5274H2.91432ZM1.19145 30.3774C1.19145 31.3289 1.9628 32.1003 2.91432 32.1003C3.86583 32.1003 4.63719 31.3289 4.63719 30.3774H1.19145ZM8.28966 22.3351C7.33813 22.3351 6.5668 23.1064 6.5668 24.058C6.5668 25.0094 7.33813 25.7808 8.28966 25.7808V22.3351ZM23.1793 25.7808C24.1309 25.7808 24.9022 25.0094 24.9022 24.058C24.9022 23.1064 24.1309 22.3351 23.1793 22.3351V25.7808ZM40.929 24.652C41.257 25.5451 42.2471 26.0032 43.1402 25.6751C44.0334 25.3471 44.4914 24.357 44.1634 23.464L40.929 24.652ZM40.8284 19.381L42.4456 18.787C42.441 18.7747 42.4364 18.7624 42.4316 18.7502L40.8284 19.381ZM23.1793 10.2773C22.2278 10.2773 21.4565 11.0487 21.4565 12.0002C21.4565 12.9517 22.2278 13.7231 23.1793 13.7231V10.2773ZM42.5462 25.7808C43.4977 25.7808 44.2691 25.0094 44.2691 24.058C44.2691 23.1064 43.4977 22.3351 42.5462 22.3351V25.7808ZM23.1793 22.3351C22.2278 22.3351 21.4565 23.1064 21.4565 24.058C21.4565 25.0094 22.2278 25.7808 23.1793 25.7808V22.3351ZM42.5462 22.3351C41.5947 22.3351 40.8233 23.1064 40.8233 24.058C40.8233 25.0094 41.5947 25.7808 42.5462 25.7808V22.3351ZM49.7468 24.058V25.7808H49.7583L49.7468 24.058ZM52.1883 26.5274H53.9111V26.515L52.1883 26.5274ZM50.4654 30.3774C50.4654 31.3289 51.2368 32.1003 52.1883 32.1003C53.1397 32.1003 53.9111 31.3289 53.9111 30.3774H50.4654ZM34.9222 40.8892C35.8737 40.8892 36.6451 40.1178 36.6451 39.1663C36.6451 38.2148 35.8737 37.4435 34.9222 37.4435V40.8892ZM20.6932 37.4435C19.7417 37.4435 18.9704 38.2148 18.9704 39.1663C18.9704 40.1178 19.7417 40.8892 20.6932 40.8892V37.4435ZM44.6963 37.4435C43.7449 37.4435 42.9735 38.2148 42.9735 39.1663C42.9735 40.1178 43.7449 40.8892 44.6963 40.8892V37.4435ZM49.7448 39.1663L49.7579 37.4435H49.7448V39.1663ZM52.1883 36.6969L53.9111 36.7093V36.6969H52.1883ZM53.9111 30.3774C53.9111 29.4259 53.1397 28.6546 52.1883 28.6546C51.2368 28.6546 50.4654 29.4259 50.4654 30.3774H53.9111ZM10.9191 40.8892C11.8706 40.8892 12.642 40.1178 12.642 39.1663C12.642 38.2148 11.8706 37.4435 10.9191 37.4435V40.8892ZM5.35785 39.1663V37.4435H5.34476L5.35785 39.1663ZM2.91432 36.6969H1.19141L1.1915 36.7093L2.91432 36.6969ZM4.63719 30.3774C4.63719 29.4259 3.86583 28.6546 2.91432 28.6546C1.9628 28.6546 1.19145 29.4259 1.19145 30.3774H4.63719ZM24.9022 12.0002C24.9022 11.0487 24.1309 10.2773 23.1793 10.2773C22.2278 10.2773 21.4565 11.0487 21.4565 12.0002H24.9022ZM21.4565 24.058C21.4565 25.0094 22.2278 25.7808 23.1793 25.7808C24.1309 25.7808 24.9022 25.0094 24.9022 24.058H21.4565ZM2.91432 28.6546C1.9628 28.6546 1.19145 29.4259 1.19145 30.3774C1.19145 31.3289 1.9628 32.1003 2.91432 32.1003V28.6546ZM7.37808 32.1003C8.32958 32.1003 9.10094 31.3289 9.10094 30.3774C9.10094 29.4259 8.32958 28.6546 7.37808 28.6546V32.1003ZM52.1883 32.1003C53.1397 32.1003 53.9111 31.3289 53.9111 30.3774C53.9111 29.4259 53.1397 28.6546 52.1883 28.6546V32.1003ZM47.5363 28.6546C46.5848 28.6546 45.8134 29.4259 45.8134 30.3774C45.8134 31.3289 46.5848 32.1003 47.5363 32.1003V28.6546ZM9.90688 24.652L11.6247 19.9749L8.3903 18.787L6.67242 23.464L9.90688 24.652ZM11.6108 20.0117C12.4489 17.8811 13.2889 16.3157 14.3387 15.2785C15.3151 14.3138 16.5566 13.7231 18.4602 13.7231V10.2773C15.6962 10.2773 13.5704 11.1936 11.9168 12.8275C10.3365 14.3889 9.284 16.5139 8.40424 18.7502L11.6108 20.0117ZM18.4602 13.7231H23.1793V10.2773H18.4602V13.7231ZM8.28966 22.3351H5.35785V25.7808H8.28966V22.3351ZM5.37094 22.3351C4.25641 22.3267 3.19313 22.7732 2.41276 23.5618L4.86206 25.9855C4.99821 25.8479 5.17265 25.7794 5.34476 25.7808L5.37094 22.3351ZM2.41276 23.5618C1.63385 24.349 1.19937 25.4121 1.19145 26.515L4.63714 26.5398C4.63868 26.3229 4.72446 26.1245 4.86206 25.9855L2.41276 23.5618ZM1.19145 26.5274V30.3774H4.63719V26.5274H1.19145ZM8.28966 25.7808H23.1793V22.3351H8.28966V25.7808ZM44.1634 23.464L42.4456 18.787L39.2112 19.9749L40.929 24.652L44.1634 23.464ZM42.4316 18.7502C41.5518 16.5139 40.4994 14.3889 38.919 12.8275C37.2655 11.1936 35.1395 10.2773 32.3756 10.2773V13.7231C34.2792 13.7231 35.5208 14.3138 36.4971 15.2785C37.5469 16.3157 38.387 17.8811 39.225 20.0117L42.4316 18.7502ZM32.3756 10.2773H23.1793V13.7231H32.3756V10.2773ZM42.5462 22.3351H23.1793V25.7808H42.5462V22.3351ZM42.5462 25.7808H49.7468V22.3351H42.5462V25.7808ZM49.7583 25.7808C50.1052 25.7785 50.462 26.0765 50.4654 26.5398L53.9111 26.515C53.8946 24.2321 52.0663 22.3196 49.7354 22.3351L49.7583 25.7808ZM50.4654 26.5274V30.3774H53.9111V26.5274H50.4654ZM34.9222 37.4435H20.6932V40.8892H34.9222V37.4435ZM44.6963 40.8892H49.7448V37.4435H44.6963V40.8892ZM49.7315 40.8892C50.846 40.8977 51.9094 40.4511 52.6897 39.6625L50.2405 37.2388C50.1043 37.3764 49.9299 37.4448 49.7579 37.4435L49.7315 40.8892ZM52.6897 39.6625C53.4687 38.8753 53.9031 37.8121 53.9111 36.7093L50.4654 36.6845C50.4638 36.9013 50.3781 37.0998 50.2405 37.2388L52.6897 39.6625ZM53.9111 36.6969V30.3774H50.4654V36.6969H53.9111ZM10.9191 37.4435H5.35785V40.8892H10.9191V37.4435ZM5.34476 37.4435C5.17265 37.4448 4.99821 37.3764 4.86206 37.2388L2.41276 39.6625C3.19313 40.4511 4.25641 40.8977 5.37094 40.8892L5.34476 37.4435ZM4.86206 37.2388C4.72446 37.0998 4.63868 36.9013 4.63714 36.6845L1.1915 36.7093C1.19941 37.8121 1.63385 38.8753 2.41276 39.6625L4.86206 37.2388ZM4.63719 36.6969V30.3774H1.19145L1.19141 36.6969H4.63719ZM21.4565 12.0002V24.058H24.9022V12.0002H21.4565ZM2.91432 32.1003H7.37808V28.6546H2.91432V32.1003ZM52.1883 28.6546H47.5363V32.1003H52.1883V28.6546Z" fill="#F9F9F9"/>
</svg>
