<svg width="56" height="56" viewBox="0 0 56 56" fill="none" xmlns="http://www.w3.org/2000/svg">
<g clip-path="url(#clip0_123_13)">
<path d="M11.5733 10.646C9.2775 10.646 7.15629 11.7939 5.88087 13.707L1.10142 20.8493C0.537547 21.6951 0.242188 22.6752 0.242188 23.6955V35.0803C0.242188 36.6511 1.29608 38.0272 2.81987 38.4098L7.27711 39.5375C7.92153 42.6589 10.6872 45.0151 13.9898 45.0151C17.1717 45.0151 19.8299 42.8133 20.5951 39.8597H36.5983C37.3635 42.8133 40.0217 45.0151 43.2036 45.0151C46.3854 45.0151 49.0436 42.8133 49.8089 39.8597H51.7958C53.6754 39.8597 55.2328 38.3024 55.2328 36.4228V30.1397C55.2328 26.9915 53.078 24.2392 50.0237 23.4807L40.7333 21.1178L34.0206 13.1163C32.7116 11.5522 30.7985 10.646 28.7578 10.646H11.5733ZM11.5733 14.0829H19.1452V20.9567H5.18275L8.72706 15.6403V15.5866C9.36477 14.6266 10.4187 14.0829 11.5733 14.0829ZM22.5821 14.0829H28.7578C29.7781 14.0829 30.7381 14.5327 31.3892 15.318L36.1149 20.9567H22.5821V14.0829ZM3.6791 24.3936H39.5519L49.2182 26.8102C50.7554 27.1928 51.7958 28.5555 51.7958 30.1397V36.4228H49.8089C49.0436 33.4692 46.3854 31.2675 43.2036 31.2675C40.0217 31.2675 37.3635 33.4692 36.5983 36.4228H20.5951C19.8299 33.4692 17.1717 31.2675 13.9898 31.2675C10.9423 31.2675 8.38471 33.2813 7.49192 36.0469L3.6791 35.0803V24.3936ZM13.9898 34.7044C15.9097 34.7044 17.4267 36.2214 17.4267 38.1413C17.4267 40.0611 15.9097 41.5782 13.9898 41.5782C12.07 41.5782 10.5529 40.0611 10.5529 38.1413C10.5529 36.2214 12.07 34.7044 13.9898 34.7044ZM43.2036 34.7044C45.1234 34.7044 46.6405 36.2214 46.6405 38.1413C46.6405 40.0611 45.1234 41.5782 43.2036 41.5782C41.2837 41.5782 39.7667 40.0611 39.7667 38.1413C39.7667 36.2214 41.2837 34.7044 43.2036 34.7044Z" fill="#F9F9F9"/>
</g>
<defs>
<clipPath id="clip0_123_13">
<rect width="54.9906" height="54.9906" fill="white" transform="translate(0.242188 0.334473)"/>
</clipPath>
</defs>
</svg>
