<svg width="55" height="56" viewBox="0 0 55 56" fill="none" xmlns="http://www.w3.org/2000/svg">
<mask id="mask0_132_20" style="mask-type:luminance" maskUnits="userSpaceOnUse" x="0" y="0" width="55" height="56">
<path d="M54.9906 0.334961H0V55.3256H54.9906V0.334961Z" fill="white"/>
</mask>
<g mask="url(#mask0_132_20)">
<path d="M3.5 7.64648C1.2042 7.64648 0 8.99979 0.00144434 11.0834L0 19.5C0 19.5 0.00144434 22.6757 0.00144434 23.696V35.0808C0.00144434 36.6516 1.05534 38.0277 2.57913 38.4103L7.03637 39.538C7.68079 42.6594 10.4465 45.0156 13.7491 45.0156C16.931 45.0156 19.5892 42.8138 20.3544 39.8602H36.3576C37.1228 42.8138 39.781 45.0156 42.9629 45.0156C46.1447 45.0156 48.8029 42.8138 49.5682 39.8602H51.5551C53.4347 39.8602 54.9921 38.3029 54.9921 36.4233V30.1402C54.9921 26.992 52.8373 24.2397 49.783 23.4812L40.4926 21.1183L33.7799 10.1168C32.4709 8.55268 30.5578 7.64648 28.5171 7.64648H3.5ZM3.55799 10.9998L28.5171 11.0834C29.5374 11.0834 30.4974 11.5332 31.1485 12.3185L35.8742 20.9572H3.5L3.529 15.9785L3.55799 10.9998ZM3.43836 24.3941H39.3112L48.9775 26.8107C50.5147 27.1933 51.5551 28.556 51.5551 30.1402V36.4233H49.5682C48.8029 33.4697 46.1447 31.268 42.9629 31.268C39.781 31.268 37.1228 33.4697 36.3576 36.4233H20.3544C19.5892 33.4697 16.931 31.268 13.7491 31.268C10.7016 31.268 8.14397 33.2818 7.25118 36.0474L3.43836 35.0808V24.3941ZM13.7491 34.7049C15.669 34.7049 17.186 36.2219 17.186 38.1418C17.186 40.0616 15.669 41.5787 13.7491 41.5787C11.8293 41.5787 10.3122 40.0616 10.3122 38.1418C10.3122 36.2219 11.8293 34.7049 13.7491 34.7049ZM42.9629 34.7049C44.8827 34.7049 46.3998 36.2219 46.3998 38.1418C46.3998 40.0616 44.8827 41.5787 42.9629 41.5787C41.043 41.5787 39.526 40.0616 39.526 38.1418C39.526 36.2219 41.043 34.7049 42.9629 34.7049Z" fill="#F9F9F9"/>
</g>
</svg>
