<svg width="209" height="90" viewBox="0 0 209 90" fill="none" xmlns="http://www.w3.org/2000/svg">
<path d="M106.847 0.230155C107.311 0.159177 107.95 0.0772798 108.266 0.0499807C108.583 0.0281414 108.878 0.000842239 108.922 0.000842239C108.965 -0.00461759 110.046 0.0172217 111.324 0.0445208C112.602 0.07182 114.283 0.137338 115.064 0.181016C115.845 0.224695 116.948 0.301133 117.521 0.344811C118.094 0.39395 119.05 0.481307 119.65 0.541365C120.251 0.601423 121.244 0.710619 121.861 0.781597C122.478 0.858035 123.51 0.99453 124.155 1.08735C124.799 1.18016 125.782 1.32758 126.338 1.41494C126.895 1.50229 127.9 1.67701 128.577 1.79712C129.254 1.91724 130.532 2.16293 131.416 2.34311C132.301 2.52328 133.616 2.80719 134.337 2.97099C135.058 3.13478 136.423 3.46783 137.367 3.7026C138.312 3.93738 139.557 4.25951 140.125 4.41238C140.692 4.56526 141.675 4.83825 142.308 5.01842C142.942 5.1986 144.214 5.57532 145.148 5.85923C146.081 6.14314 147.599 6.61815 148.533 6.91844C149.466 7.21873 151.05 7.74287 152.054 8.08684C153.059 8.43081 154.435 8.91128 155.112 9.15151C155.789 9.39174 157.115 9.8722 158.06 10.2162C159.005 10.5656 160.653 11.1771 161.718 11.5811C162.783 11.9852 164.088 12.4875 164.612 12.7004C165.136 12.9079 166.539 13.4866 167.724 13.9835C168.909 14.4748 170.35 15.0645 170.918 15.2938C171.486 15.5177 172.398 15.8616 172.938 16.0582C173.479 16.2547 174.363 16.555 174.904 16.7243C175.444 16.8935 176.307 17.1392 176.815 17.2703C177.322 17.4068 178.048 17.5706 178.425 17.647C178.802 17.7234 179.452 17.8326 179.872 17.8927C180.292 17.9527 181.068 18.0292 181.592 18.0619C182.285 18.1056 182.804 18.1056 183.476 18.0619C183.983 18.0292 184.649 17.9582 184.95 17.9036C185.25 17.849 185.834 17.7125 186.244 17.6033C186.708 17.4832 187.194 17.3958 187.499 17.374C187.778 17.3522 188.144 17.3631 188.307 17.3958C188.471 17.4231 188.728 17.5105 188.881 17.576C189.028 17.647 189.247 17.7999 189.356 17.9091C189.47 18.0237 189.629 18.2476 189.705 18.4004C189.787 18.5588 189.885 18.8482 189.924 19.0447C189.973 19.2686 190 19.7709 190 20.3824C190 20.9229 189.962 21.7528 189.918 22.2223C189.874 22.6973 189.798 23.3361 189.754 23.6419C189.711 23.9531 189.618 24.4609 189.558 24.7775C189.498 25.0942 189.372 25.6456 189.279 26.006C189.192 26.3663 189.017 26.9669 188.897 27.3436C188.777 27.7204 188.531 28.4083 188.346 28.8724C188.165 29.3365 187.811 30.1227 187.565 30.6195C187.319 31.1164 186.91 31.8589 186.659 32.2739C186.407 32.6833 186.003 33.3112 185.758 33.6661C185.512 34.0155 185.081 34.5888 184.802 34.9437C184.524 35.2931 183.983 35.9156 183.607 36.336C183.23 36.7509 182.58 37.4061 182.16 37.7937C181.745 38.1869 181.106 38.7492 180.746 39.0495C180.385 39.3498 179.796 39.8139 179.435 40.0814C179.075 40.3544 178.338 40.8676 177.797 41.228C177.257 41.5883 176.64 41.965 176.432 42.0633C176.225 42.1616 175.854 42.2981 175.613 42.3691C175.264 42.4674 175.046 42.4947 174.494 42.4947C173.964 42.4947 173.768 42.4728 173.604 42.3964C173.495 42.3472 173.353 42.2217 173.293 42.1234C173.216 41.9978 173.184 41.8504 173.184 41.6047C173.184 41.4191 173.233 40.9386 173.287 40.54C173.348 40.1469 173.424 39.4863 173.462 39.0823C173.5 38.6236 173.517 37.9575 173.495 37.3078C173.473 36.7345 173.419 35.9647 173.375 35.588C173.326 35.2113 173.216 34.5506 173.129 34.1138C173.042 33.677 172.862 32.9782 172.725 32.5578C172.589 32.1374 172.365 31.5204 172.228 31.1928C172.092 30.8652 171.852 30.3575 171.704 30.0736C171.551 29.7896 171.267 29.3092 171.071 29.0089C170.874 28.7086 170.552 28.2554 170.35 27.9988C170.154 27.7422 169.733 27.2672 169.416 26.9396C169.1 26.612 168.587 26.1316 168.27 25.875C167.959 25.6183 167.402 25.2089 167.041 24.9686C166.681 24.7229 166.07 24.368 165.676 24.166C165.283 23.9695 164.743 23.7129 164.475 23.6037C164.208 23.489 163.738 23.3143 163.438 23.2106C163.138 23.1068 162.559 22.943 162.155 22.8393C161.751 22.7355 161.123 22.6045 160.763 22.5445C160.402 22.4844 159.791 22.408 159.398 22.3697C158.939 22.3261 158.229 22.3151 157.378 22.337C156.46 22.3588 155.838 22.4025 155.303 22.4844C154.882 22.5445 154.205 22.6755 153.801 22.7683C153.397 22.8611 152.769 23.0304 152.409 23.145C152.049 23.2597 151.47 23.4672 151.126 23.6037C150.782 23.7402 150.127 24.0459 149.679 24.2752C149.226 24.51 148.576 24.8867 148.232 25.1106C147.888 25.3399 147.348 25.733 147.031 25.9787C146.715 26.2298 146.136 26.754 145.743 27.1471C145.35 27.5402 144.847 28.0971 144.618 28.381C144.389 28.6649 144.017 29.1836 143.788 29.5276C143.559 29.8715 143.155 30.5868 142.887 31.1109C142.625 31.6351 142.308 32.3612 142.177 32.7216C142.052 33.0819 141.861 33.6607 141.762 34.0046C141.664 34.3486 141.517 34.9383 141.44 35.315C141.364 35.6917 141.266 36.2923 141.216 36.6526C141.173 37.013 141.113 37.7501 141.08 38.2906C141.047 38.9185 141.047 39.661 141.08 40.338C141.113 40.9222 141.184 41.7958 141.244 42.2763C141.304 42.7567 141.402 43.4228 141.457 43.7504C141.517 44.078 141.593 44.5967 141.626 44.897C141.659 45.1973 141.675 45.5522 141.659 45.6887C141.637 45.8251 141.571 46.0217 141.5 46.1254C141.435 46.2292 141.293 46.3711 141.189 46.4366C141.085 46.5076 140.911 46.5895 140.807 46.6223C140.703 46.6496 140.332 46.7206 139.988 46.7806C139.644 46.8407 138.514 47.0099 137.476 47.1573C136.439 47.3102 134.708 47.5395 133.627 47.676C132.546 47.8125 130.865 48.0091 129.887 48.1128C128.91 48.2166 127.436 48.3694 126.611 48.4459C125.787 48.5168 124.324 48.6424 123.363 48.7189C122.402 48.7898 120.819 48.9045 119.841 48.9645C118.864 49.0246 117.302 49.112 116.374 49.1556C115.446 49.1993 113.994 49.2594 113.153 49.2921C112.339 49.3239 110.894 49.371 109.891 49.4037L109.795 49.4068C108.791 49.4395 104.685 49.4778 100.677 49.4941C96.3968 49.5105 91.4392 49.4996 88.6656 49.4614C86.0668 49.4286 81.4587 49.3631 78.4285 49.3194C75.3983 49.2758 72.6847 49.2102 72.4118 49.1829C72.1333 49.1502 71.762 49.0792 71.5928 49.0191C71.4181 48.9591 71.1778 48.8444 71.0632 48.7571C70.9431 48.6752 70.7738 48.5114 70.6919 48.3913C70.6046 48.2602 70.5172 48.0364 70.479 47.8453C70.4462 47.6651 70.4353 47.3812 70.4571 47.2174C70.4735 47.0536 70.5281 46.7697 70.5773 46.5895C70.6209 46.4093 70.8011 45.8688 70.9758 45.3884C71.1505 44.9079 71.3798 44.22 71.489 43.8596C71.5982 43.4993 71.7566 42.8605 71.8439 42.4401C71.9313 42.0196 72.0514 41.359 72.106 40.9659C72.1824 40.3981 72.2043 39.9231 72.2043 38.5909C72.1988 37.1713 72.1824 36.8164 72.0842 36.1886C72.0187 35.7845 71.904 35.1567 71.8221 34.7963C71.7402 34.436 71.5655 33.8081 71.4344 33.404C71.3089 33 71.0959 32.4213 70.9704 32.121C70.8448 31.8207 70.6209 31.3293 70.4735 31.029C70.3206 30.7287 70.0367 30.2101 69.8402 29.8825C69.6382 29.5549 69.2669 28.998 69.0103 28.654C68.7482 28.31 68.306 27.7695 68.0221 27.4528C67.7327 27.1362 67.2468 26.6557 66.9301 26.3773C66.6189 26.0988 66.1275 25.7002 65.8436 25.4818C65.5597 25.2689 65.1065 24.9577 64.8335 24.7884C64.5605 24.6192 64.0691 24.3407 63.7416 24.1715C63.414 23.9968 62.868 23.7402 62.5404 23.6037C62.2128 23.4672 61.6068 23.2433 61.2027 23.1123C60.7987 22.9867 60.1708 22.8174 59.8105 22.7355C59.4501 22.6591 58.8496 22.5554 58.4728 22.5062C58.0142 22.4462 57.4245 22.4134 56.6711 22.4134C55.9504 22.4134 55.3007 22.4462 54.842 22.5062C54.4544 22.5554 53.8265 22.6591 53.4498 22.7355C53.0731 22.8174 52.4343 22.9758 52.0302 23.0959C51.6262 23.2106 50.9492 23.4453 50.5288 23.6091C50.1084 23.7784 49.4641 24.0732 49.0928 24.2643C48.727 24.4554 48.2302 24.7338 47.99 24.8867C47.7497 25.0341 47.373 25.2853 47.1546 25.4436C46.9417 25.5965 46.5158 25.9241 46.2155 26.1698C45.9152 26.4155 45.4129 26.8741 45.0963 27.1853C44.7796 27.502 44.3373 27.977 44.108 28.2445L44.0895 28.2672C43.8678 28.5374 43.5801 28.8882 43.4474 29.0635C43.3109 29.2437 43.0051 29.6859 42.7704 30.0463C42.5301 30.4066 42.1534 31.0727 41.9186 31.5204C41.6893 31.9736 41.3672 32.6833 41.2034 33.1038C41.0341 33.5242 40.8103 34.1739 40.7066 34.5506C40.5974 34.9273 40.4499 35.5279 40.379 35.8883C40.308 36.2486 40.2152 36.7782 40.1715 37.0621C40.1278 37.3897 40.1005 38.0995 40.1005 38.9731C40.1005 40.0323 40.1278 40.5182 40.1988 40.9932C40.2534 41.3372 40.3844 41.976 40.4882 42.4128C40.5974 42.8495 40.7775 43.461 40.8922 43.7777C41.0014 44.0944 41.2034 44.5967 41.3399 44.897C41.4709 45.1973 41.7385 45.716 41.9296 46.0435C42.1152 46.3711 42.3882 46.8188 42.5301 47.0263C42.6721 47.2338 42.9778 47.6542 43.2126 47.9545C43.4474 48.2548 43.704 48.637 43.775 48.8008C43.8842 49.0464 43.906 49.1611 43.8842 49.4286C43.8678 49.6416 43.8132 49.8436 43.7204 50.0019C43.6439 50.1384 43.4856 50.335 43.3655 50.4387C43.2454 50.5424 42.9997 50.7062 42.825 50.8045C42.6503 50.8973 42.3063 51.0338 42.0661 51.0993C41.733 51.1922 41.4928 51.2195 41.056 51.2195C40.7393 51.2195 40.1005 51.1758 39.6364 51.1266C39.1723 51.0775 38.4462 50.9847 38.0258 50.9301C37.6054 50.87 36.8082 50.7335 36.2513 50.6243C35.6944 50.5206 34.8591 50.335 34.395 50.2203C33.9309 50.1056 33.2157 49.9036 32.8117 49.7835C32.4076 49.6579 31.7415 49.4341 31.3375 49.2812C30.9335 49.1283 30.2455 48.8499 29.8087 48.6533C29.372 48.4622 28.7332 48.151 28.3892 47.9709C28.0452 47.7852 27.5375 47.5013 27.2699 47.3375C27.0024 47.1737 26.5329 46.8734 26.2326 46.6714C25.9323 46.4694 25.4354 46.1091 25.1351 45.8743C24.8294 45.6395 24.2889 45.1863 23.934 44.8697C23.5845 44.553 23.0331 44.0125 22.7164 43.6685C22.4052 43.3245 21.9575 42.8059 21.7282 42.522C21.5044 42.238 21.144 41.7576 20.9365 41.4573C20.7236 41.157 20.3633 40.5946 20.1285 40.2015C19.8937 39.8139 19.5443 39.186 19.3532 38.8093C19.1621 38.4325 18.8563 37.7719 18.6707 37.3351C18.4851 36.8983 18.1629 36.0411 17.9609 35.4242C17.7535 34.8072 17.475 33.8627 17.3385 33.3222C17.1693 32.6397 17.0764 32.1264 17.0328 31.6296C16.9891 31.1 16.9891 30.767 17.0328 30.3192C17.071 29.9917 17.1474 29.5603 17.2075 29.3638C17.2675 29.1672 17.3986 28.8506 17.5023 28.654C17.6006 28.4574 17.8026 28.1626 17.9445 27.9934C18.092 27.8241 18.3049 27.6003 18.425 27.4965C18.5451 27.3928 18.7908 27.2071 18.971 27.087C19.1512 26.9615 19.719 26.6557 20.2268 26.3991C20.7345 26.1479 21.5371 25.7603 22.0012 25.5419C22.4653 25.3235 23.2897 24.9468 23.8302 24.712C24.3708 24.4718 25.3044 24.0732 25.905 23.8221C26.5056 23.5709 27.4392 23.1996 27.9797 22.9867C28.5202 22.7792 29.5412 22.397 30.2455 22.1404C30.9499 21.8838 32.2438 21.4416 33.1119 21.1522C33.9801 20.8683 35.345 20.437 36.1421 20.1967C36.9393 19.962 38.2278 19.5907 39.0086 19.3778C39.7893 19.1648 41.1761 18.8099 42.0934 18.5861C43.0106 18.3622 44.3701 18.0401 45.1236 17.8763C45.8715 17.7125 47.04 17.4668 47.717 17.3303C48.394 17.1938 49.486 16.9864 50.1466 16.8662C50.8072 16.7461 51.7791 16.5714 52.3032 16.4841C52.8274 16.3967 53.8975 16.222 54.6782 16.1019C55.459 15.9817 56.824 15.7852 57.7084 15.6651C58.5929 15.545 60.0671 15.3593 60.9843 15.2556C61.9016 15.1464 63.2611 14.999 64.0145 14.928C64.7625 14.8516 65.9419 14.7424 66.6353 14.6769C67.3287 14.6168 68.5571 14.5185 69.3652 14.4585C70.1732 14.3984 71.429 14.311 72.1497 14.2674C72.8704 14.2237 74.1971 14.1527 75.098 14.1036C75.9989 14.0599 77.413 13.9998 78.2374 13.9671C79.0618 13.9343 79.9954 13.8852 80.3121 13.8524C80.6288 13.8251 81.1202 13.7651 81.4041 13.7214C81.688 13.6777 82.1084 13.6067 82.3323 13.5576C82.5561 13.5139 83.0257 13.3993 83.3696 13.3064C83.7136 13.2136 84.3033 13.028 84.68 12.8915C85.0567 12.755 85.6682 12.5038 86.0449 12.3291C86.4217 12.1544 87.0605 11.8323 87.4645 11.6139C87.8685 11.3955 88.5346 11.0242 88.9386 10.7785C89.3427 10.5383 90.0306 10.0797 90.4674 9.76301C90.9042 9.44634 91.8105 8.79116 92.4875 8.31069C93.1645 7.83023 94.393 6.96758 95.2174 6.40522C96.0419 5.83739 97.183 5.06756 97.7563 4.69083C98.3295 4.31956 99.2741 3.7026 99.8583 3.33134C100.442 2.95461 101.218 2.46322 101.578 2.23937C101.938 2.01552 102.506 1.69339 102.834 1.51867C103.161 1.34396 103.718 1.08735 104.062 0.950852C104.406 0.814356 104.985 0.628722 105.345 0.535905C105.706 0.443088 106.383 0.306592 106.847 0.230155Z" fill="#424142"/>
<path d="M54.1323 25.0232C54.4599 24.9686 55.0058 24.9086 55.3334 24.8867C55.661 24.8594 56.2561 24.854 56.6438 24.8649C57.0314 24.8813 57.5883 24.914 57.8722 24.9468C58.1562 24.9741 58.7131 25.0614 59.1007 25.1379C59.4883 25.2143 60.0507 25.3508 60.3401 25.4382C60.6349 25.5255 61.1263 25.6948 61.432 25.8204C61.7433 25.9405 62.3002 26.1971 62.6769 26.3882C63.0536 26.5793 63.6924 26.956 64.0964 27.229C64.5005 27.4965 65.0792 27.9278 65.3795 28.179C65.6798 28.4301 66.1439 28.8724 66.4169 29.1508C66.6899 29.4348 67.0775 29.877 67.2795 30.1282C67.4815 30.3848 67.8037 30.827 67.9948 31.1109C68.1859 31.3948 68.4643 31.848 68.6117 32.121C68.7646 32.394 69.0212 32.9181 69.185 33.2948C69.3543 33.6716 69.5617 34.2121 69.6545 34.496C69.7474 34.7799 69.8729 35.2113 69.933 35.4515C69.9931 35.6917 70.0913 36.1613 70.1514 36.4888C70.2114 36.8164 70.2879 37.4607 70.3206 37.9084C70.3643 38.3998 70.3752 39.0222 70.3534 39.4645C70.3316 39.8685 70.2879 40.3981 70.2606 40.6383C70.2333 40.8785 70.1568 41.3317 70.0968 41.6484C70.0367 41.965 69.9112 42.4783 69.8238 42.7949C69.731 43.1116 69.5726 43.603 69.4635 43.8869C69.3597 44.1708 69.1413 44.6786 68.983 45.0062C68.8192 45.3338 68.5353 45.8634 68.3496 46.18C68.1586 46.4967 67.7873 47.0481 67.5143 47.4085C67.2358 47.7798 66.6789 48.4076 66.2312 48.8608C65.7726 49.314 65.1556 49.86 64.7789 50.1439C64.4186 50.4114 63.9163 50.7608 63.6597 50.9137C63.403 51.0666 63.0099 51.2904 62.7861 51.4105C62.5622 51.5307 62.12 51.7381 61.8033 51.8746C61.4866 52.0057 60.957 52.2022 60.6295 52.3114C60.3019 52.4152 59.734 52.568 59.3737 52.6499C59.0133 52.7318 58.4619 52.8301 58.1452 52.8683C57.8286 52.912 57.2389 52.9611 56.8349 52.983C56.3981 53.0048 55.7648 52.9884 55.2788 52.9502C54.8257 52.9175 54.1869 52.841 53.8593 52.781C53.5317 52.7209 53.0621 52.6226 52.8219 52.5626C52.5817 52.5025 52.1503 52.3769 51.8664 52.2841C51.5825 52.1913 51.0529 51.9838 50.6926 51.8255C50.3322 51.6672 49.8026 51.4105 49.5187 51.2577C49.2348 51.0993 48.7161 50.7827 48.3721 50.5479C48.0282 50.3131 47.4713 49.8873 47.1437 49.6088C46.8161 49.3249 46.3575 48.899 46.1336 48.6588C45.9043 48.424 45.533 47.9927 45.3092 47.7088C45.0799 47.4249 44.7195 46.9335 44.5121 46.6168C44.3046 46.3002 43.9715 45.7269 43.775 45.3338C43.573 44.9407 43.3 44.3401 43.1635 43.9961C43.027 43.6521 42.8359 43.0625 42.7322 42.6857C42.6284 42.309 42.4919 41.6975 42.4264 41.3208C42.3609 40.9441 42.2844 40.2452 42.2517 39.7647C42.2135 39.1532 42.2135 38.6455 42.2571 38.0722C42.2844 37.6245 42.35 37.0185 42.3936 36.7345C42.4373 36.4506 42.5138 36.0466 42.5629 35.8337C42.6066 35.6207 42.7158 35.2058 42.8031 34.9055C42.8905 34.6052 43.0707 34.0865 43.2017 33.7589C43.3327 33.4313 43.5893 32.8635 43.775 32.5032C43.9552 32.1428 44.3046 31.5532 44.5448 31.1928C44.7796 30.8325 45.1454 30.3302 45.3474 30.0736C45.5549 29.8169 46.0026 29.3256 46.352 28.9816C46.696 28.6322 47.1874 28.1845 47.444 27.977C47.7006 27.775 48.1811 27.4255 48.5086 27.2071C48.8362 26.9833 49.415 26.6448 49.7917 26.4482C50.1684 26.2517 50.7581 25.9787 51.1021 25.8422C51.446 25.7057 51.9756 25.5201 52.2759 25.4327C52.5762 25.3453 52.9802 25.2416 53.1768 25.1925C53.3733 25.1488 53.8047 25.0724 54.1323 25.0232Z" fill="#424142"/>
<path d="M155.03 25.0232C155.363 24.9686 155.898 24.9086 156.231 24.8867C156.564 24.8594 157.176 24.854 157.596 24.8703C158.016 24.8813 158.644 24.9304 158.988 24.9741C159.332 25.0178 159.802 25.0942 160.026 25.1379C160.249 25.1816 160.703 25.2962 161.036 25.389C161.369 25.4764 161.92 25.662 162.264 25.7985C162.608 25.935 163.16 26.1807 163.493 26.35C163.826 26.5137 164.317 26.7867 164.585 26.956C164.852 27.1198 165.371 27.4801 165.731 27.7477C166.091 28.0207 166.719 28.5721 167.123 28.9816C167.533 29.3856 168.084 30.0135 168.357 30.3738C168.625 30.7342 168.985 31.2474 169.149 31.5204C169.318 31.7934 169.597 32.2957 169.771 32.6397C169.946 32.9836 170.192 33.5405 170.323 33.8681C170.454 34.1957 170.639 34.7745 170.743 35.1512C170.847 35.5279 170.983 36.1394 171.049 36.5161C171.114 36.8929 171.191 37.5808 171.224 38.0449C171.267 38.6619 171.267 39.1369 171.218 39.792C171.185 40.2889 171.109 40.9768 171.049 41.3208C170.989 41.6648 170.869 42.2217 170.781 42.5493C170.694 42.8768 170.53 43.4064 170.421 43.7231C170.306 44.0398 170.022 44.6786 169.793 45.1427C169.564 45.6068 169.154 46.322 168.881 46.726C168.614 47.13 168.161 47.7361 167.877 48.0637C167.593 48.3913 167.151 48.8608 166.899 49.101C166.643 49.3413 166.228 49.7071 165.977 49.9091C165.72 50.1111 165.278 50.4332 164.994 50.6243C164.71 50.8154 164.241 51.0993 163.957 51.2577C163.673 51.416 163.143 51.6726 162.783 51.831C162.422 51.9893 161.893 52.1913 161.609 52.2841C161.325 52.3769 160.894 52.5025 160.653 52.5626C160.413 52.6226 159.949 52.7209 159.616 52.781C159.283 52.841 158.644 52.9175 158.197 52.9502C157.705 52.9939 157.083 53.0048 156.64 52.983C156.236 52.9611 155.707 52.9175 155.467 52.8902C155.226 52.8629 154.735 52.7755 154.375 52.7045C154.014 52.6335 153.496 52.508 153.228 52.4315C152.961 52.3496 152.502 52.2022 152.218 52.093C151.934 51.9838 151.432 51.7709 151.099 51.6071C150.766 51.4488 150.242 51.1649 149.925 50.9792C149.608 50.7881 149.057 50.4169 148.696 50.1439C148.336 49.8709 147.697 49.3085 147.271 48.8826C146.851 48.4622 146.321 47.8835 146.103 47.5996C145.885 47.3157 145.617 46.9444 145.502 46.7806C145.393 46.6168 145.153 46.2237 144.967 45.907C144.787 45.5904 144.514 45.0608 144.367 44.7332C144.219 44.4056 144.006 43.876 143.892 43.5593C143.783 43.2426 143.619 42.6912 143.531 42.3309C143.444 41.9705 143.318 41.3317 143.253 40.9113C143.16 40.2998 143.138 39.9012 143.138 38.9185C143.138 37.9248 143.16 37.5371 143.258 36.8983C143.324 36.4615 143.46 35.7845 143.564 35.3969C143.662 35.0092 143.837 34.4305 143.952 34.1138C144.066 33.7972 144.35 33.1584 144.58 32.6943C144.809 32.2302 145.219 31.5149 145.492 31.1109C145.764 30.7069 146.196 30.1282 146.447 29.8279C146.698 29.5276 147.135 29.0635 147.419 28.796C147.703 28.5284 148.156 28.1299 148.423 27.9115C148.691 27.6985 149.182 27.3436 149.515 27.1307C149.848 26.9123 150.433 26.5738 150.826 26.3773C151.219 26.1807 151.803 25.9132 152.136 25.7876C152.469 25.662 152.911 25.5037 153.119 25.4436C153.326 25.3781 153.709 25.2798 153.965 25.2198C154.222 25.1652 154.697 25.0724 155.03 25.0232Z" fill="#424142"/>
<path fill-rule="evenodd" clip-rule="evenodd" d="M156.068 26.0169C155.948 26.0279 155.593 26.0715 155.276 26.1207C154.96 26.1644 154.446 26.2681 154.13 26.3445C153.813 26.421 153.272 26.5793 152.929 26.6994C152.585 26.8141 151.929 27.0925 151.482 27.3109C151.028 27.5348 150.39 27.8951 150.062 28.1135C149.729 28.3374 149.265 28.6759 149.025 28.8724C148.785 29.0635 148.342 29.4675 148.042 29.7733C147.736 30.0736 147.332 30.5158 147.141 30.7561C146.945 30.9963 146.611 31.4495 146.404 31.7661C146.191 32.0828 145.869 32.6342 145.683 32.9946C145.498 33.3549 145.247 33.9064 145.126 34.223C145.001 34.5397 144.826 35.0529 144.739 35.3696C144.646 35.6863 144.526 36.1886 144.466 36.4889C144.411 36.7892 144.335 37.3188 144.297 37.6627C144.258 38.0504 144.242 38.6837 144.264 39.328C144.28 40.0323 144.329 40.5837 144.411 41.0478C144.477 41.4246 144.613 42.0251 144.711 42.3855C144.81 42.7458 144.984 43.2754 145.094 43.5593C145.203 43.8433 145.443 44.3729 145.623 44.7332C145.803 45.0936 146.109 45.6341 146.306 45.9344C146.502 46.2347 146.824 46.6878 147.021 46.9444C147.223 47.201 147.676 47.7034 148.042 48.0637C148.402 48.4295 148.905 48.8827 149.161 49.0847C149.418 49.2812 149.871 49.6034 150.171 49.7999C150.472 49.9965 151.012 50.3022 151.372 50.4824C151.733 50.6626 152.262 50.9028 152.546 51.012C152.83 51.1212 153.36 51.2959 153.72 51.3942C154.081 51.4925 154.681 51.629 155.058 51.6945C155.522 51.7764 156.073 51.8255 156.778 51.8419C157.422 51.8637 158.055 51.8474 158.443 51.8091C158.787 51.7709 159.316 51.6945 159.617 51.6399C159.917 51.5798 160.419 51.4597 160.736 51.3669C161.053 51.2795 161.555 51.1103 161.855 50.9956C162.156 50.8755 162.696 50.6353 163.056 50.4551C163.417 50.2749 164.007 49.9255 164.367 49.6853C164.727 49.445 165.29 49.0192 165.623 48.7353C165.956 48.4514 166.382 48.0473 166.573 47.8399C166.769 47.6324 167.102 47.2447 167.321 46.9717C167.534 46.6987 167.867 46.2456 168.052 45.9617C168.238 45.6778 168.565 45.0881 168.784 44.6513C169.008 44.1927 169.297 43.4993 169.461 43.0134C169.614 42.5493 169.799 41.8613 169.876 41.4846C169.952 41.1079 170.04 40.5073 170.078 40.147C170.116 39.7429 170.132 39.1096 170.111 38.509C170.094 37.9139 170.034 37.2642 169.969 36.8711C169.909 36.5107 169.799 35.9811 169.723 35.6972C169.646 35.4133 169.499 34.9219 169.39 34.6052C169.281 34.2886 169.013 33.6607 168.789 33.213C168.571 32.7598 168.216 32.1374 168.009 31.8207C167.796 31.5041 167.457 31.04 167.25 30.7834C167.048 30.5267 166.633 30.0736 166.332 29.7733C166.032 29.473 165.579 29.0581 165.322 28.856C165.066 28.6486 164.602 28.3101 164.285 28.0971C163.968 27.8897 163.346 27.5348 162.893 27.3109C162.423 27.0816 161.724 26.7922 161.255 26.6394C160.807 26.4919 160.119 26.3063 159.726 26.2299C159.333 26.1534 158.76 26.0661 158.443 26.0333C158.126 26.006 157.515 25.9842 157.078 25.9896C156.641 25.9951 156.188 26.006 156.068 26.0169ZM109.85 1.7644C109.567 1.80261 109.124 1.88451 108.868 1.94457C108.611 2.00463 108.185 2.13566 107.912 2.22848C107.639 2.32676 107.202 2.50693 106.929 2.63251C106.656 2.75808 106.165 3.02016 105.838 3.20579C105.51 3.39688 104.882 3.78453 104.445 4.06844C104.008 4.35781 103.321 4.83828 102.917 5.13857C102.512 5.43886 101.835 5.963 101.415 6.29605C100.995 6.63456 100.181 7.31158 99.6079 7.80296C99.0346 8.29435 97.8007 9.38631 96.867 10.2271C95.9334 11.0679 95.1745 11.7613 95.1799 11.7668C95.1854 11.7723 95.8187 11.8269 96.5831 11.8869L97.9754 11.9961C98.2702 11.6794 98.7616 11.1444 99.2639 10.6039C99.7607 10.0688 100.498 9.32079 100.902 8.94407C101.306 8.56734 101.901 8.03773 102.229 7.7702C102.551 7.49721 103.119 7.05497 103.49 6.78743C103.861 6.51444 104.418 6.13772 104.729 5.94662C105.04 5.75007 105.608 5.42794 106.001 5.22592C106.394 5.01845 106.946 4.75092 107.23 4.6308C107.514 4.50523 108.065 4.29229 108.458 4.16126C108.851 4.02476 109.452 3.84459 109.796 3.75723C110.14 3.67533 110.631 3.56614 110.888 3.517C111.144 3.47332 111.647 3.39688 112.007 3.3532C112.367 3.30953 113.044 3.25493 113.509 3.23855C113.973 3.21671 115.103 3.22763 116.02 3.26039C116.937 3.29315 118.188 3.35866 118.805 3.40234C119.422 3.45148 120.404 3.53338 120.989 3.59344C121.573 3.6535 122.523 3.76815 123.091 3.84459C123.658 3.91557 124.581 4.05206 125.138 4.14488C125.695 4.23224 126.552 4.37965 127.049 4.47247C127.546 4.56529 128.463 4.75092 129.096 4.88742C129.73 5.02391 130.871 5.28598 131.635 5.47708C132.4 5.66817 133.677 6.01214 134.474 6.24145C135.271 6.4653 136.718 6.92393 137.696 7.24606C138.673 7.57365 139.901 8.00498 140.426 8.20699C140.95 8.409 141.823 8.76935 142.364 9.00958C142.904 9.24436 143.641 9.6047 144.002 9.80126C144.362 9.99781 144.815 10.2599 145.012 10.3855C145.208 10.5165 145.552 10.7676 145.776 10.9478C146 11.1335 146.278 11.401 146.388 11.5484C146.497 11.6904 146.639 11.9142 146.699 12.0398C146.781 12.2036 146.814 12.3838 146.814 12.6131C146.814 12.8369 146.775 13.0335 146.71 13.1754C146.65 13.2955 146.448 13.5358 146.257 13.716C146.066 13.8907 145.754 14.1309 145.558 14.2456C145.361 14.3602 144.968 14.5568 144.684 14.6769C144.4 14.8025 143.871 15.0045 143.51 15.1191C143.15 15.2392 142.489 15.4358 142.036 15.5505C141.588 15.6651 140.638 15.8835 139.934 16.0364C139.23 16.1893 138.171 16.3967 137.586 16.5059C137.002 16.6151 136.079 16.7735 135.539 16.8608C134.998 16.9482 133.928 17.1065 133.164 17.2102C132.4 17.314 131.22 17.4614 130.543 17.5378C129.866 17.6143 128.774 17.7235 128.114 17.7835C127.453 17.8436 126.41 17.9309 125.793 17.9801C125.176 18.0238 124.024 18.1002 123.227 18.1439C122.43 18.1875 121.021 18.2531 120.088 18.2858C119.159 18.324 116.713 18.3513 114.655 18.3513C112.597 18.3513 110.14 18.324 109.195 18.2858C108.251 18.2531 106.984 18.1985 106.384 18.1712C105.783 18.1384 104.691 18.0784 103.954 18.0347C103.217 17.9855 101.841 17.8873 100.896 17.8108C99.9518 17.7344 98.576 17.6143 97.8389 17.5433C97.1018 17.4669 95.9279 17.3413 95.2291 17.2594C94.2791 17.1447 93.9679 17.0901 93.9897 17.0355C94.0061 17.0028 94.2136 16.7189 94.4483 16.4076L94.8797 15.8507C93.0069 15.2884 92.4227 15.1082 92.3791 15.0918C92.3245 15.07 92.0132 15.3703 91.3963 16.0418L90.4954 17.0246C89.944 16.9864 89.0868 16.9099 88.2296 16.839C87.3724 16.7625 85.7781 16.637 84.6807 16.566C83.5833 16.4895 81.9235 16.3913 80.9953 16.3421C80.0672 16.2984 78.5657 16.2384 77.6648 16.2056C76.764 16.1783 74.5527 16.151 72.751 16.151C70.9492 16.151 68.7653 16.1783 67.8917 16.2056C67.0182 16.2384 65.6423 16.2984 64.8342 16.3421C64.0207 16.3913 62.7213 16.4732 61.9405 16.5387C61.1598 16.5987 60.0296 16.697 59.429 16.7571C58.8284 16.8117 57.8074 16.9263 57.1632 17.0028C56.5189 17.0792 55.4597 17.2102 54.8155 17.3031C54.1712 17.3959 53.1884 17.5378 52.6315 17.6306C52.0746 17.718 51.0209 17.9036 50.2838 18.0401C49.5467 18.1712 48.3674 18.4059 47.6631 18.5588C46.9588 18.7117 45.7904 18.9792 45.0697 19.1539C44.349 19.3287 43.3444 19.5853 42.8311 19.7272C42.3179 19.8637 41.3352 20.1476 40.6472 20.3551C39.9593 20.5626 38.7745 20.9393 38.0265 21.1959C37.273 21.4471 36.2684 21.802 35.788 21.9821C35.3075 22.1623 34.4831 22.479 33.9589 22.6919C33.4348 22.9048 32.6322 23.2324 32.1845 23.429C31.7313 23.6255 31.0325 23.9367 30.6284 24.1224C30.2244 24.308 29.2908 24.7612 28.5537 25.127C27.8166 25.4983 26.7629 26.0497 26.206 26.3609C25.6491 26.6667 24.9284 27.0816 24.5953 27.2782C24.2623 27.4692 23.6399 27.8514 23.2031 28.1244C22.7663 28.392 22.0784 28.8342 21.6743 29.1072C21.2703 29.3802 20.7516 29.7405 20.5278 29.9098C20.3039 30.079 19.9545 30.3848 19.747 30.5813C19.545 30.7834 19.2829 31.1 19.1628 31.2857C19.0372 31.4768 18.9171 31.717 18.8898 31.8207C18.8571 31.9245 18.8352 32.1483 18.8407 32.3121C18.8407 32.4759 18.8571 32.7271 18.8789 32.8636C18.9007 33.0055 18.928 33.1311 18.9444 33.1475C18.9608 33.1638 19.5232 33.2075 20.2002 33.2457C21.1611 33.3003 21.6689 33.3003 22.5206 33.2512C23.1212 33.213 23.8965 33.1475 24.2404 33.1038C24.5844 33.0546 25.1632 32.9564 25.5235 32.8854C25.8839 32.8144 26.4735 32.667 26.8339 32.5633C27.1942 32.465 27.7347 32.2848 28.035 32.1756C28.3353 32.061 28.8758 31.8262 29.2362 31.6515C29.5965 31.4768 30.148 31.1655 30.4646 30.9581C30.7813 30.7561 31.2618 30.4012 31.5293 30.1773C31.7968 29.948 32.2009 29.5713 32.4247 29.331C32.6431 29.0963 32.9543 28.725 33.1072 28.5175C33.2655 28.3046 33.4894 27.977 33.615 27.7805C33.7351 27.5839 33.9207 27.2509 34.0245 27.0434C34.1336 26.8305 34.3029 26.4373 34.4121 26.1698C34.5213 25.8968 34.6851 25.3945 34.7834 25.0505C34.8871 24.6738 35.0018 24.3735 35.0727 24.3025C35.1328 24.2316 35.242 24.1661 35.3075 24.1497C35.3785 24.1333 35.4877 24.1551 35.5532 24.1879C35.6569 24.2534 35.6624 24.2862 35.6296 24.5319C35.6078 24.6793 35.5259 25.1215 35.4495 25.5146C35.3785 25.9023 35.2256 26.5192 35.1219 26.8796C35.0181 27.2399 34.8434 27.7532 34.7397 28.0261C34.6305 28.2937 34.4012 28.8124 34.221 29.1727C34.0408 29.5331 33.7187 30.0954 33.4948 30.4285C33.2765 30.7561 32.9052 31.2638 32.665 31.5477C32.4247 31.8316 32.0589 32.2248 31.8514 32.4158C31.644 32.6069 31.2509 32.9345 30.9833 33.142C30.7158 33.3549 30.2681 33.6607 30.0006 33.8299C29.733 33.9937 29.1652 34.2995 28.7448 34.5015C28.3244 34.7035 27.7238 34.9547 27.4071 35.0693C27.0905 35.1785 26.5117 35.3532 26.1241 35.4515C25.7364 35.5552 25.1304 35.6863 24.7864 35.7518C24.4425 35.8119 23.8255 35.8992 23.4215 35.9429C23.0174 35.992 22.0128 36.0466 21.1939 36.0685C20.3804 36.0903 19.7088 36.1176 19.7088 36.134C19.7088 36.1504 19.8016 36.3961 19.9217 36.68C20.0364 36.9639 20.1947 37.3406 20.2766 37.5099C20.3531 37.6846 20.5441 38.0558 20.7025 38.3288C20.8554 38.6073 21.1502 39.0823 21.3467 39.3826C21.5488 39.6829 21.8709 40.1251 22.0565 40.3654C22.2476 40.6056 22.6899 41.0915 23.0338 41.4519C23.3833 41.8067 23.9019 42.2927 24.1858 42.5329C24.4698 42.7731 24.9393 43.1335 25.2232 43.341C25.5071 43.543 26.0367 43.8869 26.3971 44.0999C26.7574 44.3183 27.3471 44.6404 27.7074 44.8151C28.0678 44.9898 28.6301 45.2464 28.9632 45.3775C29.2962 45.514 29.9077 45.7378 30.3282 45.8798C30.7486 46.0163 31.5348 46.2401 32.0753 46.3712C32.6158 46.5077 33.4403 46.6769 33.9043 46.7533C34.3684 46.8298 35.0946 46.9281 35.515 46.9717C35.9354 47.0209 36.7653 47.0755 37.3604 47.0973C37.9501 47.1192 38.436 47.1192 38.436 47.0919C38.436 47.07 38.3978 46.8735 38.3541 46.6551C38.305 46.4421 38.2067 45.9071 38.1357 45.4703C38.0647 45.0335 37.9664 44.2473 37.9118 43.7231C37.8463 43.057 37.8136 42.3036 37.819 41.2389C37.819 40.1688 37.8463 39.4536 37.9118 38.8639C37.961 38.3998 38.0647 37.6737 38.1357 37.2533C38.2121 36.8328 38.3541 36.1449 38.4578 35.7245C38.5616 35.3041 38.7254 34.7144 38.8182 34.4141C38.9165 34.1139 39.1403 33.486 39.3259 33.0219C39.5061 32.5578 39.8555 31.7825 40.1012 31.302C40.3415 30.8216 40.74 30.1063 40.9857 29.7187C41.226 29.3256 41.6464 28.7141 41.9194 28.3537C42.1869 27.9934 42.6401 27.4256 42.924 27.098C43.2079 26.7649 43.7484 26.2026 44.1197 25.8422C44.4964 25.4819 45.1297 24.9195 45.5338 24.5974C45.9378 24.2753 46.5766 23.8002 46.9533 23.5546C47.33 23.3034 47.9088 22.9485 48.2364 22.7629C48.564 22.5772 49.0936 22.2988 49.4102 22.1459C49.7269 21.9985 50.191 21.7856 50.4476 21.6764C50.7042 21.5726 51.2338 21.3761 51.6215 21.245C52.0091 21.114 52.6752 20.9175 53.0956 20.8137C53.516 20.71 54.1439 20.579 54.4879 20.5189C54.8318 20.4643 55.3887 20.3879 55.7163 20.3551C56.0439 20.3223 56.8083 20.2896 57.4089 20.2896C58.0095 20.2896 58.7575 20.3223 59.0741 20.3551C59.3908 20.3879 59.8549 20.4534 60.1115 20.4971C60.3681 20.5407 60.8322 20.639 61.1489 20.71C61.4655 20.7864 61.9951 20.9393 62.3227 21.043C62.6503 21.1522 63.2072 21.3652 63.5512 21.5126C63.8952 21.66 64.4521 21.9275 64.7796 22.1132C65.1072 22.2933 65.615 22.5991 65.8989 22.7902C66.1828 22.9813 66.6251 23.3034 66.8817 23.5054C67.1383 23.7074 67.6242 24.1442 67.9682 24.4773C68.3067 24.8049 68.7872 25.3126 69.0219 25.5965C69.2622 25.8804 69.6443 26.3718 69.8682 26.6885C70.0921 27.0052 70.4469 27.5457 70.649 27.8897C70.8564 28.2336 71.1731 28.8233 71.3478 29.2C71.528 29.5767 71.7682 30.1282 71.8774 30.4285C71.9866 30.7288 72.1668 31.2693 72.2651 31.6296C72.3688 31.99 72.5162 32.5796 72.5872 32.94C72.6636 33.3003 72.7674 33.9883 72.8274 34.4687C72.8875 34.9492 72.9639 35.659 72.9912 36.0521C73.024 36.4397 73.0731 37.559 73.1059 38.5363C73.1386 39.5136 73.1878 40.5182 73.2151 40.7748C73.2424 41.0314 73.3297 41.4792 73.4062 41.7685C73.4826 42.0634 73.63 42.5165 73.7338 42.7786C73.843 43.0461 74.045 43.4447 74.1869 43.6685C74.3234 43.8924 74.6128 44.2528 74.8257 44.4657C75.0332 44.6786 75.4263 45.0007 75.6993 45.1755C75.9723 45.3502 76.4091 45.5849 76.6821 45.7051C76.9551 45.8197 77.4574 45.9999 77.8013 46.1036C78.1453 46.2128 78.6367 46.3439 78.8933 46.4039C79.1499 46.464 79.8105 46.6114 80.3674 46.726C80.9243 46.8407 82.0654 47.0209 82.9063 47.1301C83.7471 47.2393 85.0847 47.3976 85.8819 47.485C86.679 47.5778 88.1368 47.7252 89.1305 47.8126C90.1241 47.9054 91.6311 48.0309 92.4883 48.091C93.3454 48.1511 94.7213 48.2384 95.5458 48.2821C96.3702 48.3258 97.757 48.3913 98.6306 48.4295C99.657 48.4732 102.048 48.5005 105.428 48.5005C108.759 48.5005 111.243 48.4732 112.307 48.4295C113.225 48.3913 114.699 48.3258 115.583 48.2766C116.468 48.233 117.756 48.162 118.45 48.1183C119.143 48.0692 120.355 47.9873 121.152 47.9272C121.949 47.8617 123.424 47.7416 124.428 47.6488C125.433 47.5614 126.956 47.414 127.813 47.3212C128.671 47.2338 130.205 47.0591 131.226 46.939C132.247 46.8189 133.906 46.6114 134.911 46.4749C135.916 46.3439 136.948 46.1801 137.204 46.12C137.461 46.0654 137.827 45.9617 138.023 45.8962C138.22 45.8361 138.553 45.6941 138.76 45.5904C138.973 45.4867 139.268 45.2737 139.421 45.1209C139.623 44.9188 139.727 44.7551 139.798 44.5421C139.896 44.2473 139.896 44.2309 139.754 43.3683C139.672 42.8878 139.568 42.178 139.525 41.7849C139.481 41.3918 139.421 40.5947 139.394 40.0105C139.361 39.3498 139.361 38.5527 139.388 37.9084C139.421 37.3351 139.481 36.5653 139.53 36.1886C139.574 35.8119 139.688 35.1348 139.781 34.6871C139.869 34.234 140.027 33.5842 140.125 33.2403C140.223 32.8963 140.42 32.2903 140.562 31.9026C140.704 31.5095 141.015 30.7888 141.25 30.292C141.49 29.7951 141.812 29.1836 141.965 28.927C142.118 28.6704 142.413 28.2172 142.615 27.917C142.817 27.6167 143.199 27.098 143.461 26.7704C143.729 26.4373 144.313 25.7985 144.766 25.3508C145.214 24.8977 145.853 24.3135 146.186 24.0459C146.519 23.7839 147.13 23.3416 147.551 23.0577C147.971 22.7793 148.632 22.3752 149.025 22.1623C149.418 21.9494 150.078 21.6272 150.499 21.4416C150.919 21.2614 151.618 20.9884 152.055 20.8465C152.492 20.6991 153.152 20.5025 153.529 20.4152C153.906 20.3223 154.583 20.1858 155.031 20.1094C155.484 20.0384 156.133 19.9511 156.477 19.9183C156.821 19.891 157.537 19.8637 158.061 19.8637C158.585 19.8637 159.3 19.891 159.644 19.9183C159.988 19.9511 160.578 20.0275 160.954 20.0876C161.331 20.1476 162.008 20.295 162.456 20.4097C162.909 20.5244 163.592 20.7373 163.985 20.8792C164.378 21.0212 165.098 21.3433 165.595 21.589C166.092 21.8347 166.791 22.2333 167.151 22.4681C167.512 22.7083 168.063 23.1068 168.38 23.358C168.696 23.6092 169.248 24.1115 169.608 24.4718C169.969 24.8376 170.471 25.3891 170.728 25.7057C170.979 26.0224 171.394 26.6011 171.65 26.9888C171.907 27.3819 172.322 28.0917 172.567 28.5721C172.813 29.0526 173.124 29.7132 173.255 30.0463C173.392 30.3739 173.594 30.9144 173.703 31.2474C173.812 31.575 174.009 32.263 174.145 32.7762C174.282 33.284 174.446 33.7863 174.511 33.89C174.577 33.9937 174.73 34.163 174.85 34.2613C174.97 34.365 175.194 34.4906 175.341 34.5506C175.494 34.6052 175.811 34.6762 176.051 34.709C176.335 34.7417 176.679 34.7472 177.034 34.7144C177.334 34.6817 177.885 34.5834 178.262 34.4906C178.639 34.3978 179.228 34.2067 179.572 34.0702C179.916 33.9337 180.654 33.5952 181.21 33.3167C181.767 33.0383 182.515 32.6233 182.876 32.394C183.236 32.1647 183.76 31.7989 184.044 31.586C184.328 31.3676 184.819 30.9472 185.136 30.6469C185.447 30.3466 185.889 29.877 186.113 29.6095C186.343 29.3365 186.698 28.8615 186.905 28.5448C187.112 28.2282 187.456 27.6276 187.658 27.2072C187.866 26.7868 188.133 26.1589 188.259 25.8149C188.379 25.471 188.548 24.9141 188.636 24.5865C188.723 24.2534 188.86 23.6528 188.931 23.2488C189.007 22.8448 189.105 22.1514 189.149 21.7037C189.198 21.2614 189.236 20.8246 189.236 20.7373V20.5735C188.625 20.7373 188.112 20.8465 187.708 20.9229C187.304 20.9939 186.588 21.0922 186.124 21.1413C185.66 21.185 184.885 21.2396 184.404 21.256C183.924 21.2778 182.99 21.2669 182.33 21.2341C181.669 21.2014 180.724 21.1359 180.228 21.0867C179.731 21.043 178.661 20.9229 177.853 20.8192C177.045 20.7154 174.915 20.4097 173.13 20.1367C171.344 19.8637 168.948 19.5088 167.807 19.345C166.665 19.1812 164.935 18.9519 163.957 18.8318C162.98 18.7062 161.582 18.5479 160.845 18.4769C160.108 18.4005 158.869 18.2913 158.088 18.2312C157.307 18.1712 156.199 18.0947 155.631 18.062C155.063 18.0292 153.709 17.991 152.628 17.9692C151.433 17.9528 150.073 17.9637 149.161 18.0019C148.337 18.0347 147.354 18.0893 146.977 18.122C146.601 18.1493 145.913 18.2094 145.449 18.2585C144.984 18.3022 144.089 18.4169 143.456 18.5042C142.822 18.597 141.769 18.7772 141.108 18.9082C140.447 19.0393 139.552 19.2358 139.115 19.345C138.678 19.4542 137.958 19.6508 137.505 19.7818C137.057 19.9129 136.32 20.1476 135.867 20.306C135.419 20.4588 134.693 20.7264 134.256 20.9011C133.819 21.0758 133.219 21.3324 132.918 21.4634C132.618 21.5999 132.165 21.8074 131.908 21.933C131.602 22.0804 131.368 22.1568 131.226 22.1568C131.106 22.1568 130.953 22.1186 130.887 22.0749C130.794 22.0149 130.762 21.9384 130.762 21.802C130.762 21.6982 130.794 21.5453 130.838 21.458C130.882 21.3761 130.975 21.2614 131.046 21.1959C131.111 21.1359 131.553 20.9229 132.017 20.7209C132.481 20.5244 133.12 20.2623 133.437 20.1367C133.754 20.0111 134.403 19.76 134.884 19.5798C135.364 19.3996 136.26 19.083 136.877 18.8755C137.494 18.6626 138.509 18.335 139.142 18.1439C139.776 17.9528 140.759 17.6743 141.326 17.5214C141.894 17.3686 142.833 17.1338 143.401 17.0028C143.969 16.8663 144.99 16.6479 145.667 16.5114C146.344 16.3749 147.327 16.1893 147.851 16.1019C148.375 16.0145 149.336 15.8617 149.98 15.7743C150.624 15.6815 151.585 15.5559 152.11 15.5013C152.634 15.4413 153.469 15.3539 153.966 15.3102C154.463 15.2611 155.222 15.201 155.658 15.1683C156.095 15.141 156.931 15.0864 157.515 15.0536C158.099 15.0208 159.868 14.9772 161.446 14.9553L164.312 14.9226C161.435 13.4812 160.048 12.8096 159.371 12.4984C158.694 12.1872 157.504 11.6576 156.723 11.3191C155.942 10.9806 154.627 10.4346 153.802 10.1015C152.978 9.77396 151.673 9.26619 150.908 8.98228C150.144 8.69837 148.976 8.27797 148.315 8.05411C147.654 7.8248 146.617 7.47537 146.011 7.27882C145.399 7.08226 144.297 6.74376 143.554 6.5199C142.806 6.29605 141.61 5.95208 140.89 5.76099C140.169 5.56443 139.088 5.28052 138.487 5.12765C137.887 4.98023 136.806 4.71816 136.085 4.55437C135.364 4.39057 134.098 4.12304 133.273 3.95379C132.449 3.78999 131.22 3.55522 130.543 3.4351C129.866 3.31499 128.752 3.12935 128.059 3.02562C127.366 2.91642 126.154 2.74716 125.356 2.64343C124.559 2.53969 123.309 2.39228 122.572 2.31584C121.835 2.2394 120.655 2.12474 119.951 2.07015C119.247 2.01009 118.018 1.92273 117.221 1.87905C116.424 1.82991 115.076 1.76986 114.218 1.7371C113.361 1.7098 112.144 1.6825 111.516 1.68796C110.888 1.69342 110.134 1.72618 109.85 1.7644ZM112.608 3.87189C112.335 3.89919 111.8 3.97017 111.407 4.03022C111.013 4.09028 110.364 4.22678 109.96 4.33051C109.556 4.42879 108.933 4.61442 108.584 4.73454C108.229 4.86012 107.628 5.09489 107.246 5.26414C106.859 5.43886 106.274 5.72277 105.947 5.90294C105.619 6.07766 105.029 6.43801 104.636 6.69462C104.243 6.94577 103.632 7.38256 103.277 7.65555C102.917 7.92854 102.316 8.41992 101.939 8.75297C101.562 9.08056 100.896 9.70844 100.46 10.1452C100.023 10.582 99.4441 11.1826 99.1711 11.4829L98.6688 12.0289C99.6952 12.1381 100.329 12.22 100.733 12.28C101.137 12.3401 101.743 12.4493 102.07 12.5257C102.398 12.5967 102.917 12.7332 103.217 12.826C103.517 12.9188 103.954 13.0662 104.189 13.1536C104.418 13.2409 104.609 13.3228 104.609 13.3392C104.609 13.3556 104.216 13.8961 103.735 14.5404C102.867 15.7088 102.862 15.7142 102.48 15.9053C102.272 16.0091 101.896 16.1565 101.65 16.2275C101.399 16.2984 101.077 16.3749 100.924 16.4022C100.689 16.4349 100.667 16.4459 100.787 16.4841C100.864 16.5059 101.601 16.5769 102.425 16.637C103.25 16.7025 104.527 16.7898 105.264 16.8335C106.001 16.8772 107.153 16.9372 107.83 16.97C108.507 16.9973 110.2 17.0519 111.598 17.0847C112.995 17.1174 115.092 17.1283 116.266 17.112C117.44 17.0901 119.045 17.0519 119.842 17.0191C120.639 16.9918 121.742 16.9427 122.299 16.9154C122.856 16.8826 123.822 16.8226 124.456 16.7789C125.089 16.7352 126.154 16.6479 126.831 16.5824C127.508 16.5223 128.709 16.4022 129.506 16.3094C130.303 16.222 131.553 16.0582 132.29 15.9545C133.027 15.8507 134.207 15.6651 134.911 15.545C135.615 15.4249 136.746 15.2174 137.423 15.0809C138.1 14.9444 139.071 14.7369 139.579 14.6168C140.087 14.4967 140.824 14.3111 141.217 14.2073C141.61 14.0981 142.194 13.918 142.528 13.8033C142.861 13.6887 143.314 13.5085 143.538 13.4047C143.761 13.301 144.062 13.1318 144.204 13.0335C144.34 12.9297 144.509 12.7714 144.58 12.684C144.651 12.5912 144.717 12.422 144.728 12.3019C144.744 12.1271 144.711 12.0289 144.58 11.8214C144.488 11.6794 144.247 11.4392 144.045 11.2918C143.838 11.1389 143.292 10.8277 142.828 10.5929C142.364 10.3582 141.419 9.94321 140.726 9.67022C140.032 9.39723 138.908 8.97136 138.214 8.72021C137.521 8.47452 136.2 8.02135 135.266 7.71014C134.332 7.40439 133.071 7.00037 132.454 6.81473C131.837 6.6291 130.773 6.32335 130.079 6.13226C129.386 5.94662 128.294 5.66817 127.65 5.5153C127.005 5.36242 125.984 5.13857 125.384 5.01299C124.783 4.89288 123.789 4.70724 123.172 4.6035C122.556 4.49977 121.474 4.34143 120.77 4.25408C120.066 4.16126 119.034 4.05206 118.477 4.00838C117.92 3.95925 116.986 3.89919 116.402 3.86643C115.818 3.83913 114.835 3.81729 114.218 3.81729C113.601 3.82275 112.881 3.84459 112.608 3.87189ZM55.1704 26.0115C55.0502 26.0224 54.6954 26.0715 54.3787 26.1207C54.062 26.1698 53.5215 26.279 53.1775 26.3609C52.8335 26.4483 52.2548 26.623 51.8945 26.7486C51.5341 26.8796 50.8953 27.158 50.4749 27.3655C50.0545 27.5784 49.4648 27.917 49.1645 28.119C48.8643 28.3155 48.4111 28.6486 48.1545 28.856C47.8979 29.0581 47.4447 29.473 47.1444 29.7733C46.8441 30.0736 46.4292 30.5267 46.2272 30.7834C46.0197 31.04 45.6812 31.5041 45.4737 31.8207C45.2608 32.1374 44.9113 32.7598 44.6875 33.213C44.4636 33.6607 44.1852 34.3159 44.0705 34.6598C43.9504 35.0038 43.7921 35.5443 43.7156 35.861C43.6392 36.1777 43.53 36.7018 43.4754 37.0349C43.4044 37.488 43.3771 37.9467 43.3771 38.9185C43.3771 39.9122 43.399 40.3381 43.4754 40.8021C43.53 41.1297 43.6283 41.6102 43.6829 41.8668C43.7429 42.1234 43.9067 42.6749 44.0432 43.0953C44.1852 43.5157 44.4746 44.2145 44.6929 44.6513C44.9113 45.0881 45.2662 45.716 45.4846 46.0436C45.7085 46.3766 46.047 46.8407 46.2435 47.0809C46.4346 47.3212 46.8387 47.7634 47.1444 48.0692C47.4447 48.3695 47.9252 48.8008 48.2091 49.0301C48.493 49.2594 48.9462 49.587 49.2191 49.7672C49.4921 49.9419 50.0054 50.2367 50.3657 50.4223C50.7261 50.608 51.2775 50.8591 51.5942 50.9793C51.9108 51.1048 52.4241 51.2795 52.7407 51.3669C53.0574 51.4597 53.5597 51.5798 53.86 51.6399C54.1603 51.6945 54.6899 51.7709 55.0339 51.8091C55.4215 51.8474 56.0603 51.8637 56.6991 51.8419C57.387 51.8255 57.9549 51.7764 58.3917 51.6999C58.752 51.6344 59.3307 51.5089 59.6747 51.416C60.0187 51.3232 60.5592 51.1485 60.8759 51.0338C61.1925 50.9137 61.7331 50.6735 62.077 50.5042C62.421 50.335 63.027 49.9801 63.4147 49.7235C63.8023 49.4614 64.3592 49.0519 64.6432 48.8172C64.9271 48.5769 65.3911 48.1347 65.6751 47.8399C65.9535 47.545 66.3903 47.0263 66.636 46.6987C66.8817 46.3657 67.2256 45.8634 67.3949 45.5795C67.5696 45.2956 67.8208 44.826 67.9573 44.5421C68.0938 44.2582 68.3067 43.7668 68.4213 43.4502C68.5415 43.1335 68.7216 42.5602 68.8199 42.1671C68.9182 41.774 69.0492 41.1843 69.1038 40.8567C69.1803 40.3817 69.2021 39.9668 69.2021 38.8912C69.1966 37.7064 69.1803 37.4334 69.0711 36.8165C69.0001 36.4234 68.8636 35.8119 68.7653 35.4515C68.667 35.0912 68.4923 34.5616 68.3831 34.2776C68.2685 33.9937 68.0228 33.4532 67.8371 33.0765C67.6515 32.6998 67.2966 32.0992 67.0564 31.7388C66.8162 31.3785 66.3903 30.8107 66.1064 30.4831C65.8225 30.15 65.3802 29.6969 65.1291 29.4621C64.8779 29.2328 64.523 28.927 64.3429 28.7796C64.1627 28.6376 63.7477 28.3374 63.4147 28.1135C63.0871 27.8951 62.4483 27.5348 61.9951 27.3109C61.5474 27.0925 60.9195 26.825 60.6029 26.7158C60.2862 26.6066 59.7948 26.4592 59.5109 26.3827C59.227 26.3063 58.6974 26.1971 58.3371 26.1371C57.862 26.0552 57.3707 26.0224 56.5353 26.006C55.9074 25.9951 55.2905 26.0006 55.1704 26.0115Z" fill="#FCFEFF"/>
<path d="M144.082 23.6037C144.426 23.4017 145.026 23.0796 145.414 22.8885C145.801 22.6974 146.129 22.5391 146.14 22.5391C146.151 22.5391 146.156 22.55 146.156 22.5664C146.156 22.5827 145.807 22.823 145.376 23.1069C144.95 23.3853 144.305 23.8385 143.945 24.1115C143.585 24.379 143.044 24.8049 142.744 25.056C142.444 25.3072 141.788 25.9187 141.292 26.4155C140.795 26.9124 140.145 27.6112 139.845 27.9716C139.55 28.3319 139.102 28.8998 138.862 29.2273C138.616 29.5549 138.212 30.1501 137.956 30.5377C137.699 30.9254 137.273 31.6187 137.011 32.0665C136.749 32.5196 136.176 33.5734 135.739 34.4142C135.302 35.255 134.767 36.2651 134.549 36.6527C134.336 37.0404 133.959 37.6573 133.724 38.0177C133.484 38.378 133.135 38.8694 132.944 39.1096C132.752 39.3499 132.447 39.7047 132.267 39.8958C132.081 40.0869 131.748 40.3927 131.524 40.5838C131.3 40.7694 130.94 41.0369 130.732 41.168C130.519 41.3045 130.126 41.5283 129.859 41.6594C129.591 41.7959 129.133 41.9924 128.849 42.1016C128.565 42.2053 127.975 42.3801 127.538 42.4893C127.102 42.593 126.375 42.7459 125.928 42.8168C125.475 42.8933 124.617 43.0189 124.017 43.0953C123.416 43.1717 122.854 43.2318 122.766 43.2318C122.679 43.2318 122.619 43.2209 122.63 43.2045C122.641 43.1881 123.165 43.068 123.798 42.9315C124.432 42.795 125.262 42.5985 125.655 42.4947C126.042 42.3964 126.681 42.1999 127.074 42.0634C127.462 41.9324 128.041 41.703 128.357 41.5556C128.674 41.4082 129.154 41.1461 129.422 40.9823C129.69 40.8131 130.099 40.5346 130.323 40.3599C130.547 40.1907 130.891 39.9068 131.087 39.732C131.284 39.5628 131.65 39.1806 131.906 38.8912C132.163 38.5964 132.534 38.1378 132.736 37.8593C132.938 37.5863 133.288 37.0567 133.511 36.68C133.735 36.3033 134.117 35.5935 134.363 35.0967C134.609 34.5998 135.024 33.8027 135.28 33.3222C135.537 32.8418 135.941 32.1156 136.181 31.7116C136.421 31.3075 136.815 30.6797 137.055 30.3193C137.295 29.959 137.677 29.4184 137.907 29.1182C138.13 28.8179 138.496 28.3538 138.726 28.0808C138.949 27.8078 139.501 27.2181 139.954 26.7704C140.407 26.3173 141.073 25.7167 141.434 25.4273C141.794 25.1379 142.395 24.6957 142.771 24.4391C143.148 24.1825 143.738 23.8057 144.082 23.6037Z" fill="#424142"/>
<path d="M70.6852 24.7721C70.4231 24.4445 70.2156 24.1497 70.2156 24.117C70.2211 24.0842 70.4122 24.2152 70.6415 24.4063C70.8654 24.5974 71.4659 25.1543 71.9737 25.6512C72.4815 26.148 73.1093 26.7977 73.3714 27.098C73.6335 27.3983 74.0266 27.8897 74.2559 28.19C74.4852 28.4903 74.8401 28.9926 75.053 29.3092C75.2605 29.6259 75.5717 30.1173 75.7355 30.4012C75.9048 30.6851 76.2706 31.384 76.5545 31.9573C76.8329 32.5305 77.2424 33.4369 77.4608 33.9774C77.6738 34.5179 78.0505 35.5607 78.2962 36.2978C78.5364 37.0349 78.8094 37.9794 78.8968 38.3999C78.9896 38.8203 79.1097 39.3608 79.1698 39.601C79.2298 39.8412 79.3827 40.2453 79.5028 40.5019C79.6666 40.8513 79.8031 41.0479 80.0542 41.2936C80.2399 41.4737 80.5675 41.714 80.7749 41.8232C80.9879 41.9324 81.441 42.1344 81.785 42.2654C82.129 42.4019 82.8661 42.6585 83.423 42.8387C83.9799 43.0189 84.8753 43.2755 85.4158 43.4174C85.9563 43.5539 86.8899 43.7614 87.4905 43.8815C88.0911 44.0016 89.0848 44.1709 89.7018 44.2637C90.3187 44.3511 91.3506 44.4876 91.9949 44.564C92.6391 44.6404 93.8185 44.766 94.6156 44.8424C95.4127 44.9189 96.0734 44.9953 96.0897 45.0117C96.1061 45.0226 95.2544 45.0335 94.2061 45.0335C93.1524 45.0335 91.6946 45.0062 90.9575 44.9789C90.2204 44.9516 89.1995 44.9025 88.6917 44.8697C88.1785 44.837 87.2121 44.7605 86.5351 44.7005C85.858 44.6404 84.8152 44.5312 84.2146 44.4548C83.6141 44.3838 82.6422 44.2473 82.058 44.1545C81.4738 44.0617 80.491 43.887 79.8741 43.7669C79.2571 43.6467 78.6074 43.4939 78.4272 43.4283C78.247 43.3574 77.9468 43.2263 77.7557 43.1281C77.57 43.0352 77.3189 42.866 77.1933 42.7568C77.0732 42.6421 76.8985 42.4019 76.8111 42.2217C76.7019 41.9924 76.6309 41.7249 76.5763 41.3209C76.5327 41.0042 76.4726 40.3217 76.4398 39.8085C76.4071 39.2898 76.3306 38.4763 76.2706 38.0067C76.2105 37.5317 76.0631 36.6636 75.943 36.0794C75.8229 35.4952 75.6263 34.6599 75.5062 34.2231C75.3806 33.7863 75.1786 33.1366 75.0585 32.7762C74.9384 32.4159 74.6927 31.7552 74.5125 31.3021C74.3323 30.8544 73.9884 30.09 73.7536 29.6095C73.5188 29.1291 73.1749 28.463 72.9838 28.1354C72.7927 27.8078 72.5033 27.3273 72.3395 27.0707C72.1757 26.8141 71.8481 26.3282 71.6079 25.9842C71.3622 25.6402 70.9527 25.0943 70.6852 24.7721Z" fill="#424142"/>
<path d="M54.2129 27.2618C54.4695 27.2181 54.9118 27.1581 55.1957 27.1253C55.4796 27.098 56.0965 27.0871 56.5606 27.098C57.0247 27.1089 57.6744 27.1581 58.0075 27.2072C58.3351 27.2564 58.9356 27.3765 59.3287 27.4802C59.7273 27.5839 60.2842 27.7587 60.5572 27.8679C60.8357 27.977 61.3489 28.2118 61.6929 28.3865C62.0368 28.5612 62.5664 28.867 62.8667 29.069C63.167 29.2656 63.5983 29.5822 63.8222 29.7624C64.046 29.948 64.4774 30.3412 64.7777 30.6469C65.0779 30.9527 65.4984 31.4331 65.7167 31.717C65.9297 32.0009 66.2463 32.4486 66.4156 32.7216C66.5849 32.9946 66.8578 33.486 67.0162 33.8136C67.1745 34.1412 67.3984 34.6708 67.5076 34.9875C67.6168 35.3041 67.7642 35.7955 67.8352 36.0794C67.9116 36.3633 68.0044 36.8547 68.0535 37.1714C68.1027 37.4881 68.1518 38.0777 68.1737 38.4817C68.19 38.9022 68.1737 39.5246 68.1409 39.9286C68.1027 40.3217 68.0262 40.8841 67.9662 41.1844C67.9061 41.4847 67.7969 41.9487 67.715 42.2217C67.6386 42.4947 67.4639 42.9861 67.3329 43.3137C67.2018 43.6413 66.967 44.149 66.8142 44.433C66.6613 44.7169 66.3719 45.1973 66.1699 45.4976C65.9679 45.7979 65.6021 46.2784 65.3673 46.5623C65.1271 46.8462 64.7558 47.2448 64.5374 47.4522C64.3245 47.6543 63.9587 47.9709 63.7239 48.1566C63.4946 48.3422 63.0687 48.6425 62.7848 48.8336C62.5009 49.0192 61.9713 49.3195 61.611 49.4997C61.2506 49.6798 60.7101 49.9201 60.4098 50.0293C60.1095 50.1439 59.5908 50.3023 59.2632 50.3842C58.9302 50.4715 58.406 50.5807 58.0894 50.6244C57.7727 50.6735 57.1612 50.7281 56.7244 50.75C56.2549 50.7664 55.6597 50.7554 55.2503 50.7172C54.8735 50.679 54.2675 50.5916 53.8962 50.5152C53.5304 50.4442 52.9298 50.2859 52.5586 50.1658C52.1928 50.0457 51.5703 49.789 51.1827 49.5979C50.7896 49.4123 50.2654 49.1284 50.0088 48.9701C49.7522 48.8063 49.37 48.5497 49.1626 48.3913C48.9496 48.233 48.562 47.9109 48.2944 47.6706C48.0269 47.4359 47.5737 46.9718 47.2898 46.6442C47.0059 46.3166 46.5964 45.7706 46.378 45.443C46.1542 45.1154 45.8266 44.5476 45.6519 44.1873C45.4717 43.8269 45.2315 43.2864 45.1223 42.9861C45.0076 42.6858 44.8493 42.1671 44.7674 41.8395C44.68 41.5119 44.5708 40.955 44.5162 40.6111C44.4453 40.1688 44.418 39.6665 44.418 38.9185C44.418 38.176 44.4507 37.6628 44.5162 37.226C44.5708 36.882 44.68 36.3251 44.7674 35.9975C44.8493 35.6699 45.0131 35.1513 45.1223 34.851C45.2369 34.5507 45.4608 34.032 45.63 33.7044C45.7938 33.3768 46.0505 32.9073 46.2033 32.667C46.3507 32.4268 46.662 31.9846 46.8913 31.6897C47.1206 31.3894 47.541 30.9144 47.8249 30.6251C48.1143 30.3357 48.5456 29.9426 48.7804 29.7515C49.0206 29.5604 49.4628 29.2383 49.7631 29.0417C50.0634 28.8397 50.5548 28.5503 50.8551 28.3975C51.1554 28.2446 51.685 28.0043 52.029 27.8733C52.3729 27.7423 52.9025 27.5676 53.2028 27.4911C53.5031 27.4147 53.9563 27.3109 54.2129 27.2618Z" fill="#424142"/>
<path d="M155.11 27.2618C155.367 27.2181 155.809 27.1581 156.093 27.1253C156.377 27.098 157.005 27.0871 157.485 27.1035C157.966 27.1144 158.605 27.1635 158.905 27.2072C159.205 27.2509 159.757 27.3655 160.133 27.4584C160.51 27.5512 161.1 27.7368 161.444 27.8733C161.788 28.0043 162.317 28.2446 162.618 28.3975C162.918 28.5503 163.409 28.8397 163.71 29.0417C164.01 29.2383 164.452 29.5604 164.692 29.7515C164.927 29.9426 165.337 30.3084 165.593 30.565C165.85 30.8216 166.21 31.2147 166.39 31.4386C166.576 31.6624 166.893 32.0938 167.095 32.394C167.297 32.6943 167.635 33.2949 167.854 33.7317C168.072 34.1685 168.351 34.8291 168.471 35.2059C168.596 35.5826 168.76 36.1941 168.836 36.5708C168.913 36.9475 169.006 37.6355 169.038 38.0996C169.088 38.7493 169.088 39.1369 169.038 39.7648C169.006 40.218 168.913 40.8841 168.842 41.2553C168.765 41.6211 168.629 42.1617 168.536 42.4565C168.443 42.7459 168.252 43.2427 168.121 43.5594C167.985 43.8761 167.728 44.3893 167.553 44.7059C167.373 45.0226 167.067 45.4976 166.876 45.7706C166.68 46.0436 166.309 46.5077 166.046 46.8025C165.779 47.1028 165.298 47.5778 164.965 47.8617C164.632 48.1402 164.108 48.5442 163.792 48.7571C163.475 48.9646 162.863 49.314 162.427 49.5324C161.99 49.7508 161.313 50.0293 160.925 50.1603C160.532 50.2859 159.921 50.4497 159.56 50.5207C159.2 50.5916 158.621 50.679 158.277 50.7063C157.933 50.7391 157.425 50.7664 157.158 50.7664C156.89 50.7664 156.399 50.7391 156.066 50.7063C155.733 50.679 155.16 50.5916 154.783 50.5152C154.406 50.4388 153.795 50.275 153.418 50.1494C153.041 50.0238 152.381 49.7508 151.944 49.5324C151.507 49.3195 150.928 48.9974 150.661 48.8172C150.393 48.637 149.973 48.3367 149.733 48.1456C149.492 47.9545 149.039 47.5396 148.722 47.2229C148.406 46.9063 147.953 46.3821 147.712 46.0654C147.472 45.7433 147.117 45.2137 146.921 44.8916C146.73 44.564 146.457 44.0398 146.315 43.7232C146.173 43.4065 145.998 42.9643 145.922 42.7404C145.845 42.5166 145.72 42.0852 145.643 41.7849C145.567 41.4847 145.463 40.966 145.414 40.6384C145.343 40.2016 145.316 39.7266 145.316 38.9185C145.316 38.105 145.343 37.6355 145.414 37.1987C145.463 36.8711 145.567 36.3633 145.638 36.0794C145.709 35.7955 145.856 35.3041 145.965 34.9875C146.074 34.6708 146.315 34.1084 146.5 33.7317C146.686 33.355 147.024 32.7653 147.254 32.4213C147.483 32.0774 147.903 31.5205 148.193 31.1929C148.477 30.8653 148.892 30.4285 149.11 30.232C149.334 30.0354 149.722 29.7133 149.978 29.5167C150.235 29.3202 150.639 29.0363 150.879 28.8888C151.119 28.736 151.562 28.4903 151.862 28.3429C152.162 28.19 152.632 27.9825 152.899 27.8733C153.167 27.7696 153.675 27.6058 154.018 27.513C154.362 27.4256 154.854 27.3109 155.11 27.2618Z" fill="#424142"/>
<path d="M54.0754 27.5674C54.403 27.5019 54.8835 27.4309 55.1401 27.4036C55.3967 27.3817 55.8608 27.3544 56.1775 27.349C56.4941 27.349 57.0237 27.3708 57.3513 27.4036C57.6789 27.4363 58.1976 27.5073 58.4979 27.5674C58.7982 27.6274 59.2513 27.7366 59.508 27.8131C59.7646 27.884 60.2177 28.0369 60.518 28.157C60.8183 28.2717 61.2496 28.4573 61.4735 28.572C61.6973 28.6866 62.0686 28.8887 62.2925 29.0251C62.5163 29.1616 62.9749 29.4729 63.3025 29.7185C63.6301 29.9642 64.1488 30.4119 64.4491 30.7068C64.7494 31.0071 65.1534 31.4438 65.3445 31.6841C65.5411 31.9243 65.8468 32.3556 66.0379 32.6396C66.2235 32.9235 66.5129 33.4312 66.6767 33.7588C66.8405 34.0864 67.0371 34.5177 67.1135 34.7143C67.1899 34.9108 67.3373 35.3531 67.4411 35.6971C67.5448 36.041 67.6868 36.6307 67.7523 37.0074C67.8178 37.3896 67.8833 38.0666 67.8997 38.5362C67.9161 39.0385 67.9052 39.6281 67.867 39.983C67.8287 40.3106 67.7414 40.8784 67.6704 41.2388C67.5994 41.5991 67.4247 42.2215 67.2882 42.6147C67.1517 43.0132 66.9224 43.592 66.775 43.8977C66.6276 44.2089 66.3655 44.6785 66.1962 44.9515C66.027 45.2244 65.7103 45.6776 65.4974 45.9615C65.279 46.2454 64.8477 46.7368 64.531 47.0535C64.2143 47.3702 63.7229 47.8124 63.439 48.0308C63.1551 48.2492 62.7129 48.5604 62.4563 48.7187C62.1997 48.8771 61.7465 49.1282 61.4462 49.2756C61.1459 49.4285 60.6545 49.6414 60.3542 49.7561C60.0539 49.8708 59.4861 50.04 59.0985 50.1383C58.7108 50.242 58.0556 50.3621 57.6516 50.4058C57.2476 50.455 56.6361 50.4932 56.2976 50.4932C55.9645 50.4932 55.4459 50.4659 55.1565 50.4331C54.8617 50.4058 54.3211 50.3185 53.9499 50.242C53.5841 50.171 52.9835 50.0127 52.6177 49.8871C52.2464 49.767 51.6021 49.4995 51.1817 49.292C50.7613 49.09 50.1717 48.757 49.8714 48.5549C49.5711 48.3529 49.1398 48.0363 48.9159 47.8506C48.692 47.6704 48.3153 47.321 48.0696 47.0808C47.8294 46.8351 47.48 46.4584 47.2998 46.2345C47.1142 46.0107 46.7975 45.5793 46.5955 45.279C46.3935 44.9788 46.0659 44.4 45.8639 43.996C45.6618 43.592 45.3943 42.9532 45.2742 42.5764C45.1486 42.1997 44.9848 41.5882 44.9029 41.2115C44.8265 40.8347 44.7391 40.1577 44.7009 39.71C44.6518 39.0767 44.6518 38.7109 44.7009 38.0994C44.7391 37.6626 44.8265 37.0074 44.9029 36.6361C44.9794 36.2703 45.1377 35.6698 45.2633 35.2985C45.3834 34.9327 45.6236 34.3376 45.7983 33.9772C45.9731 33.6169 46.2406 33.1146 46.4044 32.8579C46.5627 32.6013 46.8412 32.1973 47.0268 31.9571C47.207 31.7168 47.6274 31.2418 47.9604 30.8979C48.288 30.5594 48.7685 30.1117 49.0251 29.9096C49.2817 29.7076 49.724 29.391 50.0079 29.1999C50.2918 29.0142 50.8214 28.7194 51.1817 28.5447C51.5421 28.3645 52.2027 28.1024 52.6559 27.9496C53.1036 27.8021 53.7478 27.6329 54.0754 27.5674Z" fill="#FCFEFF"/>
<path d="M155 27.5619C155.317 27.5019 155.781 27.4309 156.038 27.4036C156.294 27.3763 156.758 27.3544 157.075 27.349C157.392 27.3435 157.905 27.3654 158.222 27.3981C158.538 27.4309 159.062 27.5073 159.395 27.5674C159.729 27.6329 160.367 27.8021 160.815 27.9496C161.268 28.1024 161.929 28.3645 162.289 28.5447C162.65 28.7194 163.201 29.0306 163.518 29.2381C163.834 29.4456 164.277 29.7677 164.5 29.9479C164.724 30.1335 165.183 30.5594 165.51 30.8979C165.844 31.2418 166.275 31.7278 166.466 31.9844C166.657 32.241 166.93 32.6341 167.072 32.8579C167.208 33.0818 167.449 33.5131 167.596 33.8134C167.749 34.1137 167.962 34.6051 168.077 34.9054C168.186 35.2057 168.35 35.7244 168.431 36.0519C168.519 36.3795 168.633 36.9255 168.688 37.2531C168.754 37.6844 168.781 38.1594 168.781 38.9183C168.781 39.6554 168.754 40.1686 168.688 40.5836C168.639 40.9112 168.524 41.4572 168.437 41.7848C168.35 42.1123 168.186 42.631 168.077 42.9313C167.962 43.2316 167.733 43.7612 167.558 44.1052C167.383 44.4492 167.094 44.9515 166.919 45.2244C166.739 45.4974 166.433 45.9124 166.242 46.1526C166.051 46.3874 165.685 46.7969 165.429 47.0535C165.172 47.3101 164.779 47.6704 164.555 47.8506C164.331 48.0363 163.9 48.3529 163.6 48.5549C163.299 48.757 162.71 49.09 162.289 49.292C161.869 49.4995 161.23 49.767 160.87 49.8817C160.509 50.0018 159.969 50.1547 159.668 50.2202C159.368 50.2857 158.839 50.3731 158.495 50.4113C158.151 50.455 157.572 50.4932 157.212 50.4932C156.851 50.4932 156.223 50.455 155.819 50.4058C155.415 50.3621 154.766 50.242 154.372 50.1383C153.979 50.04 153.417 49.8653 153.117 49.7561C152.816 49.6414 152.287 49.4067 151.943 49.232C151.599 49.0572 151.058 48.746 150.742 48.5386C150.425 48.3311 149.901 47.9271 149.568 47.6431C149.235 47.3592 148.787 46.917 148.563 46.6658C148.339 46.4147 148.028 46.0325 147.87 45.825C147.711 45.6176 147.444 45.2244 147.275 44.9515C147.105 44.6785 146.843 44.2035 146.69 43.8868C146.538 43.5701 146.297 42.9586 146.15 42.5218C146.008 42.085 145.839 41.4572 145.779 41.1296C145.713 40.802 145.642 40.3106 145.609 40.0376C145.582 39.7646 145.555 39.2896 145.555 38.9729C145.555 38.6563 145.582 38.1431 145.609 37.8264C145.642 37.5097 145.724 36.9692 145.795 36.6252C145.866 36.2813 146.024 35.6916 146.15 35.3149C146.275 34.9381 146.532 34.3103 146.718 33.9226C146.909 33.5295 147.198 33.0054 147.362 32.7487C147.526 32.4921 147.848 32.0444 148.077 31.7496C148.312 31.4602 148.743 30.9852 149.033 30.6959C149.328 30.4065 149.835 29.9642 150.168 29.7185C150.501 29.4729 150.955 29.1616 151.178 29.0251C151.402 28.8887 151.746 28.6976 151.943 28.5993C152.139 28.501 152.554 28.3154 152.871 28.1898C153.188 28.0642 153.668 27.895 153.936 27.8185C154.203 27.7421 154.684 27.6274 155 27.5619Z" fill="#FCFEFF"/>
<path d="M6.83782 83.6817C5.97086 83.6817 5.20178 83.444 4.53058 82.9685C3.87337 82.4791 3.4259 81.8499 3.18819 81.0808L3.37696 80.8081L3.25111 83.4719H1.92969V68.1602H3.43989V75.4595L3.25111 75.1868C3.53078 74.4737 3.99222 73.8934 4.63546 73.4459C5.27869 72.9985 6.0198 72.7747 6.8588 72.7747C7.69779 72.7747 8.45988 72.9915 9.14506 73.4249C9.84423 73.8584 10.3966 74.4807 10.8021 75.2917C11.2216 76.1027 11.4313 77.0816 11.4313 78.2282C11.4313 79.3608 11.2216 80.3397 10.8021 81.1647C10.3966 81.9757 9.84423 82.598 9.14506 83.0315C8.45988 83.4649 7.6908 83.6817 6.83782 83.6817ZM6.67002 82.3603C7.6908 82.3603 8.48785 81.9897 9.06116 81.2486C9.63448 80.4935 9.92113 79.4867 9.92113 78.2282C9.92113 76.9697 9.63448 75.9699 9.06116 75.2288C8.50183 74.4737 7.71178 74.0961 6.691 74.0961C6.04777 74.0961 5.48144 74.2709 4.99203 74.6205C4.50261 74.9701 4.11807 75.4595 3.83841 76.0888C3.57273 76.704 3.43989 77.4311 3.43989 78.2701C3.43989 79.0952 3.57273 79.8153 3.83841 80.4306C4.11807 81.0458 4.50261 81.5213 4.99203 81.8569C5.48144 82.1925 6.04077 82.3603 6.67002 82.3603ZM20.5033 76.6551C20.5033 75.858 20.2936 75.2358 19.8741 74.7883C19.4546 74.3269 18.8603 74.0961 18.0912 74.0961C17.392 74.0961 16.7977 74.2639 16.3083 74.5995C15.8189 74.9212 15.4553 75.4385 15.2176 76.1517L13.9801 75.3966C14.2598 74.5995 14.7562 73.9633 15.4693 73.4879C16.1965 73.0124 17.0844 72.7747 18.1331 72.7747C18.8743 72.7747 19.5315 72.9076 20.1048 73.1732C20.6921 73.4249 21.1535 73.8165 21.4891 74.3478C21.8387 74.8792 22.0135 75.5504 22.0135 76.3614V81.4793C22.0135 82.0526 22.2792 82.3393 22.8105 82.3393C22.9224 82.3393 23.0483 82.3323 23.1881 82.3183C23.3279 82.2903 23.4468 82.2554 23.5447 82.2134L23.4608 83.409C23.3489 83.4649 23.2021 83.5139 23.0203 83.5558C22.8525 83.5978 22.6567 83.6187 22.433 83.6187C22.0694 83.6187 21.7338 83.5488 21.4262 83.409C21.1326 83.2552 20.8948 83.0245 20.7131 82.7168C20.5453 82.3952 20.4614 81.9967 20.4614 81.5213V81.2276L20.8389 81.2696C20.6851 81.8149 20.4124 82.2694 20.0209 82.6329C19.6433 82.9825 19.2029 83.2482 18.6995 83.43C18.21 83.5978 17.7136 83.6817 17.2102 83.6817C16.3013 83.6817 15.5253 83.4509 14.882 82.9895C14.2388 82.5141 13.9172 81.8079 13.9172 80.871C13.9172 80.1159 14.1549 79.4867 14.6303 78.9833C15.1197 78.4659 15.8329 78.1093 16.7698 77.9136L20.776 77.0746V78.3331L17.4829 79.0462C16.7977 79.1861 16.2873 79.3888 15.9517 79.6545C15.6161 79.9202 15.4483 80.2977 15.4483 80.7871C15.4483 81.2626 15.6161 81.6471 15.9517 81.9408C16.3013 82.2204 16.7977 82.3603 17.441 82.3603C17.8185 82.3603 18.1891 82.3113 18.5526 82.2134C18.9162 82.1016 19.2448 81.9338 19.5385 81.71C19.8321 81.4863 20.0628 81.2066 20.2306 80.871C20.4124 80.5215 20.5033 80.1089 20.5033 79.6335V76.6551ZM25.5879 83.4719V72.9845H26.9093L27.0352 75.3966L26.8045 75.1868C27.0981 74.3478 27.5805 73.7396 28.2517 73.362C28.9229 72.9705 29.664 72.7747 30.4751 72.7747C31.1882 72.7747 31.8314 72.9215 32.4048 73.2152C32.9921 73.5088 33.4605 73.9493 33.8101 74.5366C34.1597 75.1099 34.3345 75.844 34.3345 76.739V83.4719H32.8243V77.2634C32.8243 76.1027 32.5796 75.2847 32.0901 74.8093C31.6007 74.3339 30.9925 74.0961 30.2653 74.0961C29.7619 74.0961 29.2655 74.222 28.7761 74.4737C28.2867 74.7254 27.8812 75.1239 27.5596 75.6693C27.2519 76.2146 27.0981 76.9278 27.0981 77.8087V83.4719H25.5879ZM46.4942 71.0548L46.8298 72.3972C46.8158 72.3972 46.7948 72.3972 46.7668 72.3972C46.7389 72.3972 46.7109 72.3972 46.6829 72.3972C46.0257 72.3972 45.5153 72.544 45.1518 72.8376C44.8022 73.1313 44.6274 73.5857 44.6274 74.201L43.7255 73.7186C43.7255 73.1732 43.8443 72.7048 44.0821 72.3133C44.3198 71.9078 44.6344 71.6001 45.0259 71.3904C45.4314 71.1666 45.8859 71.0548 46.3893 71.0548C46.4173 71.0548 46.4382 71.0548 46.4522 71.0548C46.4662 71.0548 46.4802 71.0548 46.4942 71.0548ZM43.3479 82.2134C44.3268 82.2134 45.0888 82.4442 45.6342 82.9056C46.1795 83.3531 46.4522 83.9474 46.4522 84.6885C46.4522 85.3597 46.2355 85.94 45.802 86.4294C45.3825 86.9188 44.8022 87.2963 44.0611 87.562C43.3339 87.8417 42.5089 87.9815 41.586 87.9815C40.0199 87.9815 38.8383 87.7019 38.0413 87.1425C37.2582 86.5972 36.8667 85.926 36.8667 85.1289C36.8667 84.5696 37.0555 84.0662 37.433 83.6187C37.8106 83.1853 38.4118 82.9336 39.2368 82.8637L39.132 83.1573C38.6705 83.0315 38.279 82.8147 37.9574 82.5071C37.6358 82.1994 37.475 81.766 37.475 81.2066C37.475 80.6753 37.6707 80.1998 38.0623 79.7803C38.4678 79.3608 39.069 79.1091 39.8661 79.0252L40.9568 79.5286H40.6841C40.0409 79.5846 39.5655 79.7524 39.2578 80.032C38.9642 80.2977 38.8173 80.6123 38.8173 80.9759C38.8173 81.3814 38.9642 81.6891 39.2578 81.8988C39.5515 82.1086 39.95 82.2134 40.4534 82.2134H43.3479ZM41.607 86.744C42.3761 86.744 43.0193 86.6531 43.5367 86.4713C44.0541 86.3035 44.4456 86.0728 44.7113 85.7792C44.977 85.4995 45.1098 85.1919 45.1098 84.8563C45.1098 84.4368 44.942 84.1012 44.6064 83.8495C44.2848 83.6118 43.7465 83.4929 42.9914 83.4929H39.95C39.4746 83.4929 39.069 83.6187 38.7334 83.8704C38.3979 84.1361 38.2301 84.4857 38.2301 84.9192C38.2301 85.4645 38.5307 85.905 39.132 86.2406C39.7333 86.5762 40.5583 86.744 41.607 86.744ZM41.4602 72.7747C42.2712 72.7747 42.9844 72.9285 43.5996 73.2362C44.2149 73.5298 44.6973 73.9423 45.0469 74.4737C45.3965 74.9911 45.5713 75.5923 45.5713 76.2775C45.5713 76.9627 45.3895 77.571 45.0259 78.1023C44.6763 78.6337 44.1939 79.0532 43.5787 79.3608C42.9634 79.6545 42.2572 79.8013 41.4602 79.8013C40.1458 79.8013 39.125 79.4727 38.3979 78.8155C37.6847 78.1583 37.3281 77.3123 37.3281 76.2775C37.3281 75.5923 37.5029 74.9911 37.8525 74.4737C38.2021 73.9423 38.6845 73.5298 39.2998 73.2362C39.929 72.9285 40.6492 72.7747 41.4602 72.7747ZM41.4602 73.9913C40.7191 73.9913 40.0968 74.201 39.5934 74.6205C39.104 75.04 38.8593 75.5923 38.8593 76.2775C38.8593 76.9627 39.111 77.522 39.6144 77.9555C40.1178 78.375 40.7331 78.5848 41.4602 78.5848C42.1873 78.5848 42.7956 78.375 43.285 77.9555C43.7884 77.522 44.0401 76.9627 44.0401 76.2775C44.0401 75.5923 43.7954 75.04 43.306 74.6205C42.8166 74.201 42.2013 73.9913 41.4602 73.9913ZM57.4591 72.9845L53.1173 77.4941L52.7608 77.8506L49.5516 81.2066V79.3189L55.5504 72.9845H57.4591ZM50.2647 68.1602V83.4719H48.7545V68.1602H50.2647ZM53.2432 76.718L57.6689 83.4719H55.8441L52.0057 77.578L53.2432 76.718ZM63.8042 72.7747C64.7551 72.7747 65.5941 72.9915 66.3212 73.4249C67.0483 73.8584 67.6216 74.4877 68.0411 75.3127C68.4606 76.1237 68.6704 77.0956 68.6704 78.2282C68.6704 79.3608 68.4606 80.3397 68.0411 81.1647C67.6216 81.9757 67.0483 82.598 66.3212 83.0315C65.5941 83.4649 64.7551 83.6817 63.8042 83.6817C62.8673 83.6817 62.0283 83.4649 61.2872 83.0315C60.5601 82.598 59.9868 81.9757 59.5673 81.1647C59.1478 80.3397 58.938 79.3608 58.938 78.2282C58.938 77.0956 59.1478 76.1237 59.5673 75.3127C59.9868 74.4877 60.5601 73.8584 61.2872 73.4249C62.0283 72.9915 62.8673 72.7747 63.8042 72.7747ZM63.8042 74.0752C63.119 74.0752 62.5247 74.243 62.0213 74.5786C61.5179 74.9142 61.1264 75.3896 60.8467 76.0049C60.5811 76.6201 60.4482 77.3612 60.4482 78.2282C60.4482 79.0812 60.5811 79.8223 60.8467 80.4515C61.1264 81.0668 61.5179 81.5422 62.0213 81.8778C62.5247 82.2134 63.119 82.3812 63.8042 82.3812C64.5034 82.3812 65.0977 82.2134 65.5871 81.8778C66.0905 81.5422 66.475 81.0668 66.7407 80.4515C67.0204 79.8223 67.1602 79.0812 67.1602 78.2282C67.1602 77.3612 67.0204 76.6201 66.7407 76.0049C66.475 75.3896 66.0905 74.9142 65.5871 74.5786C65.0977 74.243 64.5034 74.0752 63.8042 74.0752ZM80.5029 72.9845L76.161 77.4941L75.8045 77.8506L72.5953 81.2066V79.3189L78.5941 72.9845H80.5029ZM73.3085 68.1602V83.4719H71.7983V68.1602H73.3085ZM76.2869 76.718L80.7126 83.4719H78.8878L75.0494 77.578L76.2869 76.718ZM83.0846 83.4719V72.9845H84.3431L84.5318 74.8303C84.7835 74.173 85.1751 73.6696 85.7064 73.3201C86.2378 72.9565 86.874 72.7747 87.6151 72.7747C87.8109 72.7747 88.0067 72.7957 88.2024 72.8376C88.3982 72.8656 88.566 72.9285 88.7058 73.0264L88.4541 74.3898C88.3143 74.3199 88.1535 74.2709 87.9717 74.243C87.8039 74.201 87.5662 74.18 87.2586 74.18C86.8391 74.18 86.4196 74.3199 86.0001 74.5995C85.5946 74.8652 85.259 75.2637 84.9933 75.7951C84.7276 76.3265 84.5948 76.9767 84.5948 77.7458V83.4719H83.0846ZM94.9188 83.6817C93.968 83.6817 93.122 83.4649 92.3809 83.0315C91.6538 82.598 91.0804 81.9757 90.6609 81.1647C90.2414 80.3397 90.0317 79.3608 90.0317 78.2282C90.0317 77.0956 90.2344 76.1237 90.64 75.3127C91.0595 74.4877 91.6258 73.8584 92.3389 73.4249C93.0661 72.9915 93.8911 72.7747 94.814 72.7747C95.7509 72.7747 96.5479 72.9845 97.2051 73.404C97.8623 73.8235 98.3657 74.3968 98.7153 75.1239C99.0649 75.851 99.2397 76.6761 99.2397 77.5989C99.2397 77.8227 99.2327 78.0184 99.2187 78.1862C99.2047 78.354 99.1907 78.5009 99.1768 78.6267H91.0175V77.2843H98.5056L97.7295 77.4521C97.7295 76.739 97.6036 76.1377 97.3519 75.6483C97.1142 75.1449 96.7716 74.7603 96.3242 74.4947C95.8907 74.229 95.3803 74.0961 94.793 74.0961C94.1218 74.0961 93.5345 74.2639 93.0311 74.5995C92.5417 74.9351 92.1641 75.4106 91.8985 76.0258C91.6328 76.6411 91.4999 77.3752 91.4999 78.2282C91.4999 79.0812 91.6398 79.8153 91.9194 80.4306C92.1991 81.0458 92.5906 81.5213 93.094 81.8569C93.6114 82.1925 94.2127 82.3603 94.8979 82.3603C95.625 82.3603 96.2263 82.2064 96.7017 81.8988C97.1911 81.5772 97.5757 81.1577 97.8553 80.6403L99.0509 81.3325C98.7992 81.8079 98.4706 82.2274 98.0651 82.591C97.6736 82.9406 97.2121 83.2132 96.6807 83.409C96.1494 83.5908 95.5621 83.6817 94.9188 83.6817ZM102.38 83.4719V72.9845H103.701L103.827 75.3966L103.596 75.1868C103.89 74.3478 104.372 73.7396 105.044 73.362C105.715 72.9705 106.456 72.7747 107.267 72.7747C107.98 72.7747 108.623 72.9215 109.197 73.2152C109.784 73.5088 110.252 73.9493 110.602 74.5366C110.952 75.1099 111.126 75.844 111.126 76.739V83.4719H109.616V77.2634C109.616 76.1027 109.371 75.2847 108.882 74.8093C108.393 74.3339 107.784 74.0961 107.057 74.0961C106.554 74.0961 106.057 74.222 105.568 74.4737C105.079 74.7254 104.673 75.1239 104.351 75.6693C104.044 76.2146 103.89 76.9278 103.89 77.8087V83.4719H102.38ZM116.871 70.027V80.5984C116.871 81.1577 117.011 81.5772 117.291 81.8569C117.57 82.1365 117.941 82.2764 118.402 82.2764C118.794 82.2764 119.123 82.2064 119.388 82.0666C119.668 81.9268 119.92 81.738 120.143 81.5003L120.647 82.7588C120.339 83.0524 119.982 83.2831 119.577 83.4509C119.171 83.6048 118.71 83.6817 118.193 83.6817C117.41 83.6817 116.738 83.4649 116.179 83.0315C115.634 82.598 115.361 81.8778 115.361 80.871V70.4465L116.871 70.027ZM120.479 72.9845V74.2849H113.389V72.9845H120.479ZM128.799 76.6551C128.799 75.858 128.589 75.2358 128.169 74.7883C127.75 74.3269 127.156 74.0961 126.386 74.0961C125.687 74.0961 125.093 74.2639 124.604 74.5995C124.114 74.9212 123.751 75.4385 123.513 76.1517L122.275 75.3966C122.555 74.5995 123.051 73.9633 123.765 73.4879C124.492 73.0124 125.38 72.7747 126.428 72.7747C127.17 72.7747 127.827 72.9076 128.4 73.1732C128.987 73.4249 129.449 73.8165 129.784 74.3478C130.134 74.8792 130.309 75.5504 130.309 76.3614V81.4793C130.309 82.0526 130.574 82.3393 131.106 82.3393C131.218 82.3393 131.344 82.3323 131.483 82.3183C131.623 82.2903 131.742 82.2554 131.84 82.2134L131.756 83.409C131.644 83.4649 131.497 83.5139 131.316 83.5558C131.148 83.5978 130.952 83.6187 130.728 83.6187C130.365 83.6187 130.029 83.5488 129.721 83.409C129.428 83.2552 129.19 83.0245 129.008 82.7168C128.841 82.3952 128.757 81.9967 128.757 81.5213V81.2276L129.134 81.2696C128.98 81.8149 128.708 82.2694 128.316 82.6329C127.939 82.9825 127.498 83.2482 126.995 83.43C126.505 83.5978 126.009 83.6817 125.506 83.6817C124.597 83.6817 123.821 83.4509 123.177 82.9895C122.534 82.5141 122.212 81.8079 122.212 80.871C122.212 80.1159 122.45 79.4867 122.926 78.9833C123.415 78.4659 124.128 78.1093 125.065 77.9136L129.071 77.0746V78.3331L125.778 79.0462C125.093 79.1861 124.583 79.3888 124.247 79.6545C123.911 79.9202 123.744 80.2977 123.744 80.7871C123.744 81.2626 123.911 81.6471 124.247 81.9408C124.597 82.2204 125.093 82.3603 125.736 82.3603C126.114 82.3603 126.484 82.3113 126.848 82.2134C127.211 82.1016 127.54 81.9338 127.834 81.71C128.127 81.4863 128.358 81.2066 128.526 80.871C128.708 80.5215 128.799 80.1089 128.799 79.6335V76.6551ZM137.994 72.7747C138.693 72.7747 139.309 72.8936 139.84 73.1313C140.385 73.355 140.847 73.6766 141.224 74.0961C141.602 74.5017 141.903 74.9911 142.126 75.5644L140.7 76.2566C140.504 75.5574 140.176 75.026 139.714 74.6625C139.253 74.2849 138.665 74.0961 137.952 74.0961C137.281 74.0961 136.694 74.2639 136.19 74.5995C135.701 74.9212 135.323 75.3896 135.058 76.0049C134.792 76.6201 134.659 77.3612 134.659 78.2282C134.659 79.0812 134.792 79.8223 135.058 80.4515C135.337 81.0668 135.722 81.5422 136.211 81.8778C136.715 82.1994 137.302 82.3603 137.973 82.3603C138.505 82.3603 138.966 82.2764 139.358 82.1086C139.749 81.9268 140.071 81.6681 140.322 81.3325C140.574 80.9969 140.749 80.5914 140.847 80.1159L142.231 80.5984C142.021 81.2416 141.721 81.7939 141.329 82.2554C140.938 82.7168 140.455 83.0734 139.882 83.3251C139.323 83.5628 138.686 83.6817 137.973 83.6817C137.036 83.6817 136.204 83.4649 135.477 83.0315C134.75 82.598 134.177 81.9757 133.757 81.1647C133.352 80.3397 133.149 79.3608 133.149 78.2282C133.149 77.0956 133.359 76.1237 133.778 75.3127C134.198 74.4877 134.771 73.8584 135.498 73.4249C136.225 72.9915 137.057 72.7747 137.994 72.7747ZM151.084 76.6551C151.084 75.858 150.875 75.2358 150.455 74.7883C150.036 74.3269 149.441 74.0961 148.672 74.0961C147.973 74.0961 147.379 74.2639 146.889 74.5995C146.4 74.9212 146.036 75.4385 145.799 76.1517L144.561 75.3966C144.841 74.5995 145.337 73.9633 146.05 73.4879C146.778 73.0124 147.665 72.7747 148.714 72.7747C149.455 72.7747 150.113 72.9076 150.686 73.1732C151.273 73.4249 151.735 73.8165 152.07 74.3478C152.42 74.8792 152.595 75.5504 152.595 76.3614V81.4793C152.595 82.0526 152.86 82.3393 153.392 82.3393C153.504 82.3393 153.629 82.3323 153.769 82.3183C153.909 82.2903 154.028 82.2554 154.126 82.2134L154.042 83.409C153.93 83.4649 153.783 83.5139 153.601 83.5558C153.434 83.5978 153.238 83.6187 153.014 83.6187C152.651 83.6187 152.315 83.5488 152.007 83.409C151.714 83.2552 151.476 83.0245 151.294 82.7168C151.126 82.3952 151.042 81.9967 151.042 81.5213V81.2276L151.42 81.2696C151.266 81.8149 150.994 82.2694 150.602 82.6329C150.224 82.9825 149.784 83.2482 149.281 83.43C148.791 83.5978 148.295 83.6817 147.791 83.6817C146.882 83.6817 146.106 83.4509 145.463 82.9895C144.82 82.5141 144.498 81.8079 144.498 80.871C144.498 80.1159 144.736 79.4867 145.211 78.9833C145.701 78.4659 146.414 78.1093 147.351 77.9136L151.357 77.0746V78.3331L148.064 79.0462C147.379 79.1861 146.868 79.3888 146.533 79.6545C146.197 79.9202 146.029 80.2977 146.029 80.7871C146.029 81.2626 146.197 81.6471 146.533 81.9408C146.882 82.2204 147.379 82.3603 148.022 82.3603C148.4 82.3603 148.77 82.3113 149.134 82.2134C149.497 82.1016 149.826 81.9338 150.12 81.71C150.413 81.4863 150.644 81.2066 150.812 80.871C150.994 80.5215 151.084 80.1089 151.084 79.6335V76.6551ZM156.169 83.4719V72.9845H157.428L157.616 74.8303C157.868 74.173 158.26 73.6696 158.791 73.3201C159.322 72.9565 159.958 72.7747 160.7 72.7747C160.895 72.7747 161.091 72.7957 161.287 72.8376C161.483 72.8656 161.65 72.9285 161.79 73.0264L161.539 74.3898C161.399 74.3199 161.238 74.2709 161.056 74.243C160.888 74.201 160.651 74.18 160.343 74.18C159.924 74.18 159.504 74.3199 159.085 74.5995C158.679 74.8652 158.343 75.2637 158.078 75.7951C157.812 76.3265 157.679 76.9767 157.679 77.7458V83.4719H156.169ZM163.442 83.6607C163.065 83.6607 162.757 83.5488 162.519 83.3251C162.296 83.0874 162.184 82.7867 162.184 82.4232C162.184 82.0456 162.296 81.745 162.519 81.5213C162.757 81.2835 163.065 81.1647 163.442 81.1647C163.82 81.1647 164.12 81.2835 164.344 81.5213C164.582 81.745 164.701 82.0456 164.701 82.4232C164.701 82.7867 164.582 83.0874 164.344 83.3251C164.12 83.5488 163.82 83.6607 163.442 83.6607ZM171.956 72.7747C172.655 72.7747 173.27 72.8936 173.801 73.1313C174.347 73.355 174.808 73.6766 175.186 74.0961C175.563 74.5017 175.864 74.9911 176.088 75.5644L174.661 76.2566C174.466 75.5574 174.137 75.026 173.676 74.6625C173.214 74.2849 172.627 74.0961 171.914 74.0961C171.242 74.0961 170.655 74.2639 170.152 74.5995C169.662 74.9212 169.285 75.3896 169.019 76.0049C168.753 76.6201 168.621 77.3612 168.621 78.2282C168.621 79.0812 168.753 79.8223 169.019 80.4515C169.299 81.0668 169.683 81.5422 170.173 81.8778C170.676 82.1994 171.263 82.3603 171.935 82.3603C172.466 82.3603 172.927 82.2764 173.319 82.1086C173.711 81.9268 174.032 81.6681 174.284 81.3325C174.536 80.9969 174.71 80.5914 174.808 80.1159L176.193 80.5984C175.983 81.2416 175.682 81.7939 175.291 82.2554C174.899 82.7168 174.417 83.0734 173.843 83.3251C173.284 83.5628 172.648 83.6817 171.935 83.6817C170.998 83.6817 170.166 83.4649 169.439 83.0315C168.711 82.598 168.138 81.9757 167.719 81.1647C167.313 80.3397 167.11 79.3608 167.11 78.2282C167.11 77.0956 167.32 76.1237 167.74 75.3127C168.159 74.4877 168.732 73.8584 169.46 73.4249C170.187 72.9915 171.019 72.7747 171.956 72.7747ZM183.263 72.7747C184.214 72.7747 185.053 72.9915 185.78 73.4249C186.507 73.8584 187.08 74.4877 187.5 75.3127C187.919 76.1237 188.129 77.0956 188.129 78.2282C188.129 79.3608 187.919 80.3397 187.5 81.1647C187.08 81.9757 186.507 82.598 185.78 83.0315C185.053 83.4649 184.214 83.6817 183.263 83.6817C182.326 83.6817 181.487 83.4649 180.746 83.0315C180.019 82.598 179.445 81.9757 179.026 81.1647C178.606 80.3397 178.397 79.3608 178.397 78.2282C178.397 77.0956 178.606 76.1237 179.026 75.3127C179.445 74.4877 180.019 73.8584 180.746 73.4249C181.487 72.9915 182.326 72.7747 183.263 72.7747ZM183.263 74.0752C182.578 74.0752 181.983 74.243 181.48 74.5786C180.977 74.9142 180.585 75.3896 180.305 76.0049C180.04 76.6201 179.907 77.3612 179.907 78.2282C179.907 79.0812 180.04 79.8223 180.305 80.4515C180.585 81.0668 180.977 81.5422 181.48 81.8778C181.983 82.2134 182.578 82.3812 183.263 82.3812C183.962 82.3812 184.556 82.2134 185.046 81.8778C185.549 81.5422 185.934 81.0668 186.199 80.4515C186.479 79.8223 186.619 79.0812 186.619 78.2282C186.619 77.3612 186.479 76.6201 186.199 76.0049C185.934 75.3896 185.549 74.9142 185.046 74.5786C184.556 74.243 183.962 74.0752 183.263 74.0752ZM191.257 83.4719V72.9845H192.578L192.683 74.7673C193.033 74.0961 193.515 73.5997 194.13 73.2781C194.746 72.9425 195.396 72.7747 196.081 72.7747C196.836 72.7747 197.535 72.9565 198.179 73.3201C198.822 73.6696 199.297 74.215 199.605 74.9561C199.815 74.4667 200.115 74.0612 200.507 73.7396C200.912 73.4179 201.36 73.1802 201.849 73.0264C202.339 72.8586 202.814 72.7747 203.276 72.7747C203.947 72.7747 204.576 72.9146 205.163 73.1942C205.751 73.4739 206.226 73.9074 206.59 74.4947C206.967 75.082 207.156 75.8301 207.156 76.739V83.4719H205.646V76.8858C205.646 75.907 205.401 75.2008 204.912 74.7673C204.422 74.3199 203.821 74.0961 203.108 74.0961C202.548 74.0961 202.031 74.236 201.556 74.5156C201.08 74.7953 200.696 75.2008 200.402 75.7322C200.108 76.2635 199.962 76.8998 199.962 77.6409V83.4719H198.451V76.8858C198.451 75.907 198.207 75.2008 197.717 74.7673C197.228 74.3199 196.627 74.0961 195.913 74.0961C195.438 74.0961 194.956 74.229 194.466 74.4947C193.977 74.7464 193.571 75.1449 193.25 75.6902C192.928 76.2356 192.767 76.9347 192.767 77.7877V83.4719H191.257Z" fill="#E34949"/>
</svg>
