<svg width="72" height="72" viewBox="0 0 72 72" fill="none" xmlns="http://www.w3.org/2000/svg">
<path d="M72 68C72 70.21 70.21 72 68 72H4C1.79 72 0 70.21 0 68V4C0 1.79 1.79 0 4 0H68C70.21 0 72 1.79 72 4V68Z" fill="url(#paint0_linear_155_7)"/>
<path opacity="0.05" d="M38 63.9999V41.9999H30V29.9999H38V25.7239C38 15.6399 43.332 10.0879 53.01 10.0879C57 10.0879 59.164 10.3679 60.206 10.5039L61.922 10.7259L62 12.4479V21.9999H54.73C52.474 21.9999 52 24.7559 52 27.0699V29.9999H61.446L59.59 41.9999H52V63.9999H38Z" fill="black"/>
<path opacity="0.07" d="M39 62.9999V40.9999H31V30.9999H39V25.7239C39 16.1479 43.844 11.0879 53.01 11.0879C56.952 11.0879 59.07 11.3639 60.09 11.4959L60.962 11.6099L61.002 12.4939V20.9999H54.732C51.486 20.9999 51.002 24.8019 51.002 27.0699V30.9999H60.282L58.736 40.9999H51V62.9999H39Z" fill="black"/>
<path d="M54.73 19.9999H60V12.4919C59.016 12.3639 56.938 12.0859 53.01 12.0859C44.808 12.0859 40 16.2459 40 25.7239V31.9999H32V39.9999H40V61.9999H50V39.9999H57.876L59.112 31.9999H50V27.0699C50 23.3219 51.224 19.9999 54.73 19.9999Z" fill="white"/>
<defs>
<linearGradient id="paint0_linear_155_7" x1="0.456002" y1="-2.208" x2="72.154" y2="74.864" gradientUnits="userSpaceOnUse">
<stop stop-color="#0D61A9"/>
<stop offset="1" stop-color="#16528C"/>
</linearGradient>
</defs>
</svg>
