<svg width="57" height="58" viewBox="0 0 57 58" fill="none" xmlns="http://www.w3.org/2000/svg">
<g clip-path="url(#clip0_11_3048)">
<path d="M28.4407 0.739258C16.8636 0.739258 7.05859 10.6007 7.05859 22.2802C7.05859 34.5121 18.4239 47.0212 26.0684 55.813C26.0984 55.8483 27.334 57.2198 28.8555 57.2198H28.9896C30.5129 57.2198 31.7396 55.8483 31.7696 55.813C38.9429 47.5666 49.4203 33.9667 49.4203 22.2802C49.4203 10.599 41.7723 0.739258 28.4407 0.739258ZM29.1485 53.4443C29.0867 53.5061 28.9967 53.5749 28.9173 53.6332C28.8361 53.5767 28.7478 53.5061 28.6825 53.4443L27.7594 52.3817C20.512 44.0683 10.587 32.6818 10.587 22.2784C10.587 12.5141 18.7628 4.26587 28.4389 4.26587C40.4926 4.26587 45.8884 13.3119 45.8884 22.2784C45.8884 30.1754 40.2561 40.6634 29.1485 53.4443ZM28.3012 11.4268C22.4536 11.4268 17.7108 16.1678 17.7108 22.0172C17.7108 27.8667 22.4536 32.6076 28.3012 32.6076C34.1489 32.6076 38.8917 27.8649 38.8917 22.0172C38.8917 16.1695 34.1507 11.4268 28.3012 11.4268ZM28.3012 29.0775C24.4075 29.0775 21.1598 25.8333 21.1598 21.9395C21.1598 18.0458 24.3263 14.8793 28.22 14.8793C32.1156 14.8793 35.2803 18.0458 35.2803 21.9395C35.2821 25.8333 32.1968 29.0775 28.3012 29.0775Z" fill="white"/>
</g>
<defs>
<clipPath id="clip0_11_3048">
<rect width="56.4823" height="56.4823" fill="white" transform="translate(0 0.758789)"/>
</clipPath>
</defs>
</svg>
