<svg width="173" height="53" viewBox="0 0 173 53" fill="none" xmlns="http://www.w3.org/2000/svg">
<path d="M89.8469 0.230155C90.311 0.159177 90.9498 0.0772798 91.2664 0.0499807C91.5831 0.0281414 91.8779 0.000842239 91.9216 0.000842239C91.9653 -0.00461759 93.0463 0.0172217 94.3239 0.0445208C95.6015 0.07182 97.2831 0.137338 98.0639 0.181016C98.8447 0.224695 99.9475 0.301133 100.521 0.344811C101.094 0.39395 102.05 0.481307 102.65 0.541365C103.251 0.601423 104.244 0.710619 104.861 0.781597C105.478 0.858035 106.51 0.99453 107.155 1.08735C107.799 1.18016 108.782 1.32758 109.338 1.41494C109.895 1.50229 110.9 1.67701 111.577 1.79712C112.254 1.91724 113.532 2.16293 114.416 2.34311C115.301 2.52328 116.616 2.80719 117.337 2.97099C118.058 3.13478 119.423 3.46783 120.367 3.7026C121.312 3.93738 122.557 4.25951 123.125 4.41238C123.692 4.56526 124.675 4.83825 125.308 5.01842C125.942 5.1986 127.214 5.57532 128.148 5.85923C129.081 6.14314 130.599 6.61815 131.533 6.91844C132.466 7.21873 134.05 7.74287 135.054 8.08684C136.059 8.43081 137.435 8.91128 138.112 9.15151C138.789 9.39174 140.115 9.8722 141.06 10.2162C142.005 10.5656 143.653 11.1771 144.718 11.5811C145.783 11.9852 147.088 12.4875 147.612 12.7004C148.136 12.9079 149.539 13.4866 150.724 13.9835C151.909 14.4748 153.35 15.0645 153.918 15.2938C154.486 15.5177 155.398 15.8616 155.938 16.0582C156.479 16.2547 157.363 16.555 157.904 16.7243C158.444 16.8935 159.307 17.1392 159.815 17.2703C160.322 17.4068 161.048 17.5706 161.425 17.647C161.802 17.7234 162.452 17.8326 162.872 17.8927C163.292 17.9527 164.068 18.0292 164.592 18.0619C165.285 18.1056 165.804 18.1056 166.476 18.0619C166.983 18.0292 167.649 17.9582 167.95 17.9036C168.25 17.849 168.834 17.7125 169.244 17.6033C169.708 17.4832 170.194 17.3958 170.499 17.374C170.778 17.3522 171.144 17.3631 171.307 17.3958C171.471 17.4231 171.728 17.5105 171.881 17.576C172.028 17.647 172.247 17.7999 172.356 17.9091C172.47 18.0237 172.629 18.2476 172.705 18.4004C172.787 18.5588 172.885 18.8482 172.924 19.0447C172.973 19.2686 173 19.7709 173 20.3824C173 20.9229 172.962 21.7528 172.918 22.2223C172.874 22.6973 172.798 23.3361 172.754 23.6419C172.711 23.9531 172.618 24.4609 172.558 24.7775C172.498 25.0942 172.372 25.6456 172.279 26.006C172.192 26.3663 172.017 26.9669 171.897 27.3436C171.777 27.7204 171.531 28.4083 171.346 28.8724C171.165 29.3365 170.811 30.1227 170.565 30.6195C170.319 31.1164 169.91 31.8589 169.659 32.2739C169.407 32.6833 169.003 33.3112 168.758 33.6661C168.512 34.0155 168.081 34.5888 167.802 34.9437C167.524 35.2931 166.983 35.9156 166.607 36.336C166.23 36.7509 165.58 37.4061 165.16 37.7937C164.745 38.1869 164.106 38.7492 163.746 39.0495C163.385 39.3498 162.796 39.8139 162.435 40.0814C162.075 40.3544 161.338 40.8676 160.797 41.228C160.257 41.5883 159.64 41.965 159.432 42.0633C159.225 42.1616 158.854 42.2981 158.613 42.3691C158.264 42.4674 158.046 42.4947 157.494 42.4947C156.964 42.4947 156.768 42.4728 156.604 42.3964C156.495 42.3472 156.353 42.2217 156.293 42.1234C156.216 41.9978 156.184 41.8504 156.184 41.6047C156.184 41.4191 156.233 40.9386 156.287 40.54C156.348 40.1469 156.424 39.4863 156.462 39.0823C156.5 38.6236 156.517 37.9575 156.495 37.3078C156.473 36.7345 156.419 35.9647 156.375 35.588C156.326 35.2113 156.216 34.5506 156.129 34.1138C156.042 33.677 155.862 32.9782 155.725 32.5578C155.589 32.1374 155.365 31.5204 155.228 31.1928C155.092 30.8652 154.852 30.3575 154.704 30.0736C154.551 29.7896 154.267 29.3092 154.071 29.0089C153.874 28.7086 153.552 28.2554 153.35 27.9988C153.154 27.7422 152.733 27.2672 152.416 26.9396C152.1 26.612 151.587 26.1316 151.27 25.875C150.959 25.6183 150.402 25.2089 150.041 24.9686C149.681 24.7229 149.07 24.368 148.676 24.166C148.283 23.9695 147.743 23.7129 147.475 23.6037C147.208 23.489 146.738 23.3143 146.438 23.2106C146.138 23.1068 145.559 22.943 145.155 22.8393C144.751 22.7355 144.123 22.6045 143.763 22.5445C143.402 22.4844 142.791 22.408 142.398 22.3697C141.939 22.3261 141.229 22.3151 140.378 22.337C139.46 22.3588 138.838 22.4025 138.303 22.4844C137.882 22.5445 137.205 22.6755 136.801 22.7683C136.397 22.8611 135.769 23.0304 135.409 23.145C135.049 23.2597 134.47 23.4672 134.126 23.6037C133.782 23.7402 133.127 24.0459 132.679 24.2752C132.226 24.51 131.576 24.8867 131.232 25.1106C130.888 25.3399 130.348 25.733 130.031 25.9787C129.715 26.2298 129.136 26.754 128.743 27.1471C128.35 27.5402 127.847 28.0971 127.618 28.381C127.389 28.6649 127.017 29.1836 126.788 29.5276C126.559 29.8715 126.155 30.5868 125.887 31.1109C125.625 31.6351 125.308 32.3612 125.177 32.7216C125.052 33.0819 124.861 33.6607 124.762 34.0046C124.664 34.3486 124.517 34.9383 124.44 35.315C124.364 35.6917 124.266 36.2923 124.216 36.6526C124.173 37.013 124.113 37.7501 124.08 38.2906C124.047 38.9185 124.047 39.661 124.08 40.338C124.113 40.9222 124.184 41.7958 124.244 42.2763C124.304 42.7567 124.402 43.4228 124.457 43.7504C124.517 44.078 124.593 44.5967 124.626 44.897C124.659 45.1973 124.675 45.5522 124.659 45.6887C124.637 45.8251 124.571 46.0217 124.5 46.1254C124.435 46.2292 124.293 46.3711 124.189 46.4366C124.085 46.5076 123.911 46.5895 123.807 46.6223C123.703 46.6496 123.332 46.7206 122.988 46.7806C122.644 46.8407 121.514 47.0099 120.476 47.1573C119.439 47.3102 117.708 47.5395 116.627 47.676C115.546 47.8125 113.865 48.0091 112.887 48.1128C111.91 48.2166 110.436 48.3694 109.611 48.4459C108.787 48.5168 107.324 48.6424 106.363 48.7189C105.402 48.7898 103.819 48.9045 102.841 48.9645C101.864 49.0246 100.302 49.112 99.3743 49.1556C98.4461 49.1993 96.9938 49.2594 96.153 49.2921C95.3386 49.3239 93.8941 49.371 92.8913 49.4037L92.7952 49.4068C91.7906 49.4395 87.6848 49.4778 83.6773 49.4941C79.3968 49.5105 74.4392 49.4996 71.6656 49.4614C69.0668 49.4286 64.4587 49.3631 61.4285 49.3194C58.3983 49.2758 55.6847 49.2102 55.4118 49.1829C55.1333 49.1502 54.762 49.0792 54.5928 49.0191C54.4181 48.9591 54.1778 48.8444 54.0632 48.7571C53.9431 48.6752 53.7738 48.5114 53.6919 48.3913C53.6046 48.2602 53.5172 48.0364 53.479 47.8453C53.4462 47.6651 53.4353 47.3812 53.4571 47.2174C53.4735 47.0536 53.5281 46.7697 53.5773 46.5895C53.6209 46.4093 53.8011 45.8688 53.9758 45.3884C54.1505 44.9079 54.3798 44.22 54.489 43.8596C54.5982 43.4993 54.7566 42.8605 54.8439 42.4401C54.9313 42.0196 55.0514 41.359 55.106 40.9659C55.1824 40.3981 55.2043 39.9231 55.2043 38.5909C55.1988 37.1713 55.1824 36.8164 55.0842 36.1886C55.0187 35.7845 54.904 35.1567 54.8221 34.7963C54.7402 34.436 54.5655 33.8081 54.4344 33.404C54.3089 33 54.0959 32.4213 53.9704 32.121C53.8448 31.8207 53.6209 31.3293 53.4735 31.029C53.3206 30.7287 53.0367 30.2101 52.8402 29.8825C52.6382 29.5549 52.2669 28.998 52.0103 28.654C51.7482 28.31 51.306 27.7695 51.0221 27.4528C50.7327 27.1362 50.2468 26.6557 49.9301 26.3773C49.6189 26.0988 49.1275 25.7002 48.8436 25.4818C48.5597 25.2689 48.1065 24.9577 47.8335 24.7884C47.5605 24.6192 47.0691 24.3407 46.7416 24.1715C46.414 23.9968 45.868 23.7402 45.5404 23.6037C45.2128 23.4672 44.6068 23.2433 44.2027 23.1123C43.7987 22.9867 43.1708 22.8174 42.8105 22.7355C42.4501 22.6591 41.8496 22.5554 41.4728 22.5062C41.0142 22.4462 40.4245 22.4134 39.6711 22.4134C38.9504 22.4134 38.3007 22.4462 37.842 22.5062C37.4544 22.5554 36.8265 22.6591 36.4498 22.7355C36.0731 22.8174 35.4343 22.9758 35.0302 23.0959C34.6262 23.2106 33.9492 23.4453 33.5288 23.6091C33.1084 23.7784 32.4641 24.0732 32.0928 24.2643C31.727 24.4554 31.2302 24.7338 30.99 24.8867C30.7497 25.0341 30.373 25.2853 30.1546 25.4436C29.9417 25.5965 29.5158 25.9241 29.2155 26.1698C28.9152 26.4155 28.4129 26.8741 28.0963 27.1853C27.7796 27.502 27.3373 27.977 27.108 28.2445L27.0895 28.2672C26.8678 28.5374 26.5801 28.8882 26.4474 29.0635C26.3109 29.2437 26.0051 29.6859 25.7704 30.0463C25.5301 30.4066 25.1534 31.0727 24.9186 31.5204C24.6893 31.9736 24.3672 32.6833 24.2034 33.1038C24.0341 33.5242 23.8103 34.1739 23.7066 34.5506C23.5974 34.9273 23.4499 35.5279 23.379 35.8883C23.308 36.2486 23.2152 36.7782 23.1715 37.0621C23.1278 37.3897 23.1005 38.0995 23.1005 38.9731C23.1005 40.0323 23.1278 40.5182 23.1988 40.9932C23.2534 41.3372 23.3844 41.976 23.4882 42.4128C23.5974 42.8495 23.7775 43.461 23.8922 43.7777C24.0014 44.0944 24.2034 44.5967 24.3399 44.897C24.4709 45.1973 24.7385 45.716 24.9296 46.0435C25.1152 46.3711 25.3882 46.8188 25.5301 47.0263C25.6721 47.2338 25.9778 47.6542 26.2126 47.9545C26.4474 48.2548 26.704 48.637 26.775 48.8008C26.8842 49.0464 26.906 49.1611 26.8842 49.4286C26.8678 49.6416 26.8132 49.8436 26.7204 50.0019C26.6439 50.1384 26.4856 50.335 26.3655 50.4387C26.2454 50.5424 25.9997 50.7062 25.825 50.8045C25.6503 50.8973 25.3063 51.0338 25.0661 51.0993C24.733 51.1922 24.4928 51.2195 24.056 51.2195C23.7393 51.2195 23.1005 51.1758 22.6364 51.1266C22.1723 51.0775 21.4462 50.9847 21.0258 50.9301C20.6054 50.87 19.8082 50.7335 19.2513 50.6243C18.6944 50.5206 17.8591 50.335 17.395 50.2203C16.9309 50.1056 16.2157 49.9036 15.8117 49.7835C15.4076 49.6579 14.7415 49.4341 14.3375 49.2812C13.9335 49.1283 13.2455 48.8499 12.8087 48.6533C12.372 48.4622 11.7332 48.151 11.3892 47.9709C11.0452 47.7852 10.5375 47.5013 10.2699 47.3375C10.0024 47.1737 9.53285 46.8734 9.23256 46.6714C8.93227 46.4694 8.43543 46.1091 8.13514 45.8743C7.82939 45.6395 7.28887 45.1863 6.93398 44.8697C6.58455 44.553 6.03311 44.0125 5.71644 43.6685C5.40523 43.3245 4.95752 42.8059 4.72821 42.522C4.50435 42.238 4.14401 41.7576 3.93653 41.4573C3.7236 41.157 3.36325 40.5946 3.12848 40.2015C2.89371 39.8139 2.54428 39.186 2.35318 38.8093C2.16209 38.4325 1.85634 37.7719 1.67071 37.3351C1.48507 36.8983 1.16294 36.0411 0.960929 35.4242C0.753456 34.8072 0.475005 33.8627 0.338509 33.3222C0.169255 32.6397 0.0764375 32.1264 0.0327589 31.6296C-0.0109196 31.1 -0.0109196 30.767 0.0327589 30.3192C0.0709777 29.9917 0.147415 29.5603 0.207473 29.3638C0.267531 29.1672 0.398567 28.8506 0.502304 28.654C0.600581 28.4574 0.802594 28.1626 0.94455 27.9934C1.09196 27.8241 1.3049 27.6003 1.42501 27.4965C1.54513 27.3928 1.79082 27.2071 1.971 27.087C2.15117 26.9615 2.71899 26.6557 3.22676 26.3991C3.73452 26.1479 4.53711 25.7603 5.0012 25.5419C5.46528 25.3235 6.28972 24.9468 6.83024 24.712C7.37076 24.4718 8.30439 24.0732 8.90497 23.8221C9.50555 23.5709 10.4392 23.1996 10.9797 22.9867C11.5202 22.7792 12.5412 22.397 13.2455 22.1404C13.9499 21.8838 15.2438 21.4416 16.1119 21.1522C16.9801 20.8683 18.345 20.437 19.1421 20.1967C19.9393 19.962 21.2278 19.5907 22.0086 19.3778C22.7893 19.1648 24.1761 18.8099 25.0934 18.5861C26.0106 18.3622 27.3701 18.0401 28.1236 17.8763C28.8715 17.7125 30.04 17.4668 30.717 17.3303C31.394 17.1938 32.486 16.9864 33.1466 16.8662C33.8072 16.7461 34.7791 16.5714 35.3032 16.4841C35.8274 16.3967 36.8975 16.222 37.6782 16.1019C38.459 15.9817 39.824 15.7852 40.7084 15.6651C41.5929 15.545 43.0671 15.3593 43.9843 15.2556C44.9016 15.1464 46.2611 14.999 47.0145 14.928C47.7625 14.8516 48.9419 14.7424 49.6353 14.6769C50.3287 14.6168 51.5571 14.5185 52.3652 14.4585C53.1732 14.3984 54.429 14.311 55.1497 14.2674C55.8704 14.2237 57.1971 14.1527 58.098 14.1036C58.9989 14.0599 60.413 13.9998 61.2374 13.9671C62.0618 13.9343 62.9954 13.8852 63.3121 13.8524C63.6288 13.8251 64.1202 13.7651 64.4041 13.7214C64.688 13.6777 65.1084 13.6067 65.3323 13.5576C65.5561 13.5139 66.0257 13.3993 66.3696 13.3064C66.7136 13.2136 67.3033 13.028 67.68 12.8915C68.0567 12.755 68.6682 12.5038 69.0449 12.3291C69.4217 12.1544 70.0605 11.8323 70.4645 11.6139C70.8685 11.3955 71.5346 11.0242 71.9386 10.7785C72.3427 10.5383 73.0306 10.0797 73.4674 9.76301C73.9042 9.44634 74.8105 8.79116 75.4875 8.31069C76.1645 7.83023 77.393 6.96758 78.2174 6.40522C79.0419 5.83739 80.183 5.06756 80.7563 4.69083C81.3295 4.31956 82.2741 3.7026 82.8583 3.33134C83.4425 2.95461 84.2178 2.46322 84.5781 2.23937C84.9385 2.01552 85.5063 1.69339 85.8339 1.51867C86.1615 1.34396 86.7184 1.08735 87.0624 0.950852C87.4063 0.814356 87.9851 0.628722 88.3454 0.535905C88.7058 0.443088 89.3828 0.306592 89.8469 0.230155Z" fill="#424142"/>
<path d="M37.1323 25.0232C37.4599 24.9686 38.0058 24.9086 38.3334 24.8867C38.661 24.8594 39.2561 24.854 39.6438 24.8649C40.0314 24.8813 40.5883 24.914 40.8722 24.9468C41.1562 24.9741 41.7131 25.0614 42.1007 25.1379C42.4883 25.2143 43.0507 25.3508 43.3401 25.4382C43.6349 25.5255 44.1263 25.6948 44.432 25.8204C44.7433 25.9405 45.3002 26.1971 45.6769 26.3882C46.0536 26.5793 46.6924 26.956 47.0964 27.229C47.5005 27.4965 48.0792 27.9278 48.3795 28.179C48.6798 28.4301 49.1439 28.8724 49.4169 29.1508C49.6899 29.4348 50.0775 29.877 50.2795 30.1282C50.4815 30.3848 50.8037 30.827 50.9948 31.1109C51.1859 31.3948 51.4643 31.848 51.6117 32.121C51.7646 32.394 52.0212 32.9181 52.185 33.2948C52.3543 33.6716 52.5617 34.2121 52.6545 34.496C52.7474 34.7799 52.8729 35.2113 52.933 35.4515C52.9931 35.6917 53.0913 36.1613 53.1514 36.4888C53.2114 36.8164 53.2879 37.4607 53.3206 37.9084C53.3643 38.3998 53.3752 39.0222 53.3534 39.4645C53.3316 39.8685 53.2879 40.3981 53.2606 40.6383C53.2333 40.8785 53.1568 41.3317 53.0968 41.6484C53.0367 41.965 52.9112 42.4783 52.8238 42.7949C52.731 43.1116 52.5726 43.603 52.4635 43.8869C52.3597 44.1708 52.1413 44.6786 51.983 45.0062C51.8192 45.3338 51.5353 45.8634 51.3496 46.18C51.1586 46.4967 50.7873 47.0481 50.5143 47.4085C50.2358 47.7798 49.6789 48.4076 49.2312 48.8608C48.7726 49.314 48.1556 49.86 47.7789 50.1439C47.4186 50.4114 46.9163 50.7608 46.6597 50.9137C46.403 51.0666 46.0099 51.2904 45.7861 51.4105C45.5622 51.5307 45.12 51.7381 44.8033 51.8746C44.4866 52.0057 43.957 52.2022 43.6295 52.3114C43.3019 52.4152 42.734 52.568 42.3737 52.6499C42.0133 52.7318 41.4619 52.8301 41.1452 52.8683C40.8286 52.912 40.2389 52.9611 39.8349 52.983C39.3981 53.0048 38.7648 52.9884 38.2788 52.9502C37.8257 52.9175 37.1869 52.841 36.8593 52.781C36.5317 52.7209 36.0621 52.6226 35.8219 52.5626C35.5817 52.5025 35.1503 52.3769 34.8664 52.2841C34.5825 52.1913 34.0529 51.9838 33.6926 51.8255C33.3322 51.6672 32.8026 51.4105 32.5187 51.2577C32.2348 51.0993 31.7161 50.7827 31.3721 50.5479C31.0282 50.3131 30.4713 49.8873 30.1437 49.6088C29.8161 49.3249 29.3575 48.899 29.1336 48.6588C28.9043 48.424 28.533 47.9927 28.3092 47.7088C28.0799 47.4249 27.7195 46.9335 27.5121 46.6168C27.3046 46.3002 26.9715 45.7269 26.775 45.3338C26.573 44.9407 26.3 44.3401 26.1635 43.9961C26.027 43.6521 25.8359 43.0625 25.7322 42.6857C25.6284 42.309 25.4919 41.6975 25.4264 41.3208C25.3609 40.9441 25.2844 40.2452 25.2517 39.7647C25.2135 39.1532 25.2135 38.6455 25.2571 38.0722C25.2844 37.6245 25.35 37.0185 25.3936 36.7345C25.4373 36.4506 25.5138 36.0466 25.5629 35.8337C25.6066 35.6207 25.7158 35.2058 25.8031 34.9055C25.8905 34.6052 26.0707 34.0865 26.2017 33.7589C26.3327 33.4313 26.5893 32.8635 26.775 32.5032C26.9552 32.1428 27.3046 31.5532 27.5448 31.1928C27.7796 30.8325 28.1454 30.3302 28.3474 30.0736C28.5549 29.8169 29.0026 29.3256 29.352 28.9816C29.696 28.6322 30.1874 28.1845 30.444 27.977C30.7006 27.775 31.1811 27.4255 31.5086 27.2071C31.8362 26.9833 32.415 26.6448 32.7917 26.4482C33.1684 26.2517 33.7581 25.9787 34.1021 25.8422C34.446 25.7057 34.9756 25.5201 35.2759 25.4327C35.5762 25.3453 35.9802 25.2416 36.1768 25.1925C36.3733 25.1488 36.8047 25.0724 37.1323 25.0232Z" fill="#424142"/>
<path d="M138.03 25.0232C138.363 24.9686 138.898 24.9086 139.231 24.8867C139.564 24.8594 140.176 24.854 140.596 24.8703C141.016 24.8813 141.644 24.9304 141.988 24.9741C142.332 25.0178 142.802 25.0942 143.026 25.1379C143.249 25.1816 143.703 25.2962 144.036 25.389C144.369 25.4764 144.92 25.662 145.264 25.7985C145.608 25.935 146.16 26.1807 146.493 26.35C146.826 26.5137 147.317 26.7867 147.585 26.956C147.852 27.1198 148.371 27.4801 148.731 27.7477C149.091 28.0207 149.719 28.5721 150.123 28.9816C150.533 29.3856 151.084 30.0135 151.357 30.3738C151.625 30.7342 151.985 31.2474 152.149 31.5204C152.318 31.7934 152.597 32.2957 152.771 32.6397C152.946 32.9836 153.192 33.5405 153.323 33.8681C153.454 34.1957 153.639 34.7745 153.743 35.1512C153.847 35.5279 153.983 36.1394 154.049 36.5161C154.114 36.8929 154.191 37.5808 154.224 38.0449C154.267 38.6619 154.267 39.1369 154.218 39.792C154.185 40.2889 154.109 40.9768 154.049 41.3208C153.989 41.6648 153.869 42.2217 153.781 42.5493C153.694 42.8768 153.53 43.4064 153.421 43.7231C153.306 44.0398 153.022 44.6786 152.793 45.1427C152.564 45.6068 152.154 46.322 151.881 46.726C151.614 47.13 151.161 47.7361 150.877 48.0637C150.593 48.3913 150.151 48.8608 149.899 49.101C149.643 49.3413 149.228 49.7071 148.977 49.9091C148.72 50.1111 148.278 50.4332 147.994 50.6243C147.71 50.8154 147.241 51.0993 146.957 51.2577C146.673 51.416 146.143 51.6726 145.783 51.831C145.422 51.9893 144.893 52.1913 144.609 52.2841C144.325 52.3769 143.894 52.5025 143.653 52.5626C143.413 52.6226 142.949 52.7209 142.616 52.781C142.283 52.841 141.644 52.9175 141.197 52.9502C140.705 52.9939 140.083 53.0048 139.64 52.983C139.236 52.9611 138.707 52.9175 138.467 52.8902C138.226 52.8629 137.735 52.7755 137.375 52.7045C137.014 52.6335 136.496 52.508 136.228 52.4315C135.961 52.3496 135.502 52.2022 135.218 52.093C134.934 51.9838 134.432 51.7709 134.099 51.6071C133.766 51.4488 133.242 51.1649 132.925 50.9792C132.608 50.7881 132.057 50.4169 131.696 50.1439C131.336 49.8709 130.697 49.3085 130.271 48.8826C129.851 48.4622 129.321 47.8835 129.103 47.5996C128.885 47.3157 128.617 46.9444 128.502 46.7806C128.393 46.6168 128.153 46.2237 127.967 45.907C127.787 45.5904 127.514 45.0608 127.367 44.7332C127.219 44.4056 127.006 43.876 126.892 43.5593C126.783 43.2426 126.619 42.6912 126.531 42.3309C126.444 41.9705 126.318 41.3317 126.253 40.9113C126.16 40.2998 126.138 39.9012 126.138 38.9185C126.138 37.9248 126.16 37.5371 126.258 36.8983C126.324 36.4615 126.46 35.7845 126.564 35.3969C126.662 35.0092 126.837 34.4305 126.952 34.1138C127.066 33.7972 127.35 33.1584 127.58 32.6943C127.809 32.2302 128.219 31.5149 128.492 31.1109C128.764 30.7069 129.196 30.1282 129.447 29.8279C129.698 29.5276 130.135 29.0635 130.419 28.796C130.703 28.5284 131.156 28.1299 131.423 27.9115C131.691 27.6985 132.182 27.3436 132.515 27.1307C132.848 26.9123 133.433 26.5738 133.826 26.3773C134.219 26.1807 134.803 25.9132 135.136 25.7876C135.469 25.662 135.911 25.5037 136.119 25.4436C136.326 25.3781 136.709 25.2798 136.965 25.2198C137.222 25.1652 137.697 25.0724 138.03 25.0232Z" fill="#424142"/>
<path fill-rule="evenodd" clip-rule="evenodd" d="M139.068 26.0169C138.948 26.0279 138.593 26.0715 138.276 26.1207C137.96 26.1644 137.446 26.2681 137.13 26.3445C136.813 26.421 136.272 26.5793 135.929 26.6994C135.585 26.8141 134.929 27.0925 134.482 27.3109C134.028 27.5348 133.39 27.8951 133.062 28.1135C132.729 28.3374 132.265 28.6759 132.025 28.8724C131.785 29.0635 131.342 29.4675 131.042 29.7733C130.736 30.0736 130.332 30.5158 130.141 30.7561C129.945 30.9963 129.611 31.4495 129.404 31.7661C129.191 32.0828 128.869 32.6342 128.683 32.9946C128.498 33.3549 128.247 33.9064 128.126 34.223C128.001 34.5397 127.826 35.0529 127.739 35.3696C127.646 35.6863 127.526 36.1886 127.466 36.4889C127.411 36.7892 127.335 37.3188 127.297 37.6627C127.258 38.0504 127.242 38.6837 127.264 39.328C127.28 40.0323 127.329 40.5837 127.411 41.0478C127.477 41.4246 127.613 42.0251 127.711 42.3855C127.81 42.7458 127.984 43.2754 128.094 43.5593C128.203 43.8433 128.443 44.3729 128.623 44.7332C128.803 45.0936 129.109 45.6341 129.306 45.9344C129.502 46.2347 129.824 46.6878 130.021 46.9444C130.223 47.2011 130.676 47.7034 131.042 48.0637C131.402 48.4295 131.905 48.8827 132.161 49.0847C132.418 49.2812 132.871 49.6034 133.171 49.7999C133.472 49.9965 134.012 50.3022 134.372 50.4824C134.733 50.6626 135.262 50.9028 135.546 51.012C135.83 51.1212 136.36 51.2959 136.72 51.3942C137.081 51.4925 137.681 51.629 138.058 51.6945C138.522 51.7764 139.073 51.8255 139.778 51.8419C140.422 51.8637 141.055 51.8474 141.443 51.8091C141.787 51.7709 142.317 51.6945 142.617 51.6399C142.917 51.5798 143.419 51.4597 143.736 51.3669C144.053 51.2795 144.555 51.1103 144.855 50.9956C145.156 50.8755 145.696 50.6353 146.056 50.4551C146.417 50.2749 147.006 49.9255 147.367 49.6853C147.727 49.445 148.29 49.0192 148.623 48.7353C148.956 48.4514 149.382 48.0473 149.573 47.8399C149.769 47.6324 150.102 47.2447 150.321 46.9717C150.534 46.6987 150.867 46.2456 151.052 45.9617C151.238 45.6778 151.565 45.0881 151.784 44.6513C152.008 44.1927 152.297 43.4993 152.461 43.0134C152.614 42.5493 152.799 41.8613 152.876 41.4846C152.952 41.1079 153.04 40.5073 153.078 40.147C153.116 39.7429 153.132 39.1096 153.111 38.509C153.094 37.9139 153.034 37.2642 152.969 36.8711C152.909 36.5107 152.799 35.9811 152.723 35.6972C152.646 35.4133 152.499 34.9219 152.39 34.6052C152.281 34.2886 152.013 33.6607 151.789 33.213C151.571 32.7598 151.216 32.1374 151.009 31.8207C150.796 31.5041 150.457 31.04 150.25 30.7834C150.048 30.5267 149.633 30.0736 149.332 29.7733C149.032 29.473 148.579 29.0581 148.322 28.856C148.066 28.6486 147.602 28.3101 147.285 28.0971C146.968 27.8897 146.346 27.5348 145.893 27.3109C145.423 27.0816 144.724 26.7922 144.255 26.6394C143.807 26.4919 143.119 26.3063 142.726 26.2299C142.333 26.1534 141.76 26.0661 141.443 26.0333C141.126 26.006 140.515 25.9842 140.078 25.9896C139.641 25.9951 139.188 26.006 139.068 26.0169V26.0169ZM92.8505 1.7644C92.5666 1.80261 92.1243 1.88451 91.8677 1.94457C91.6111 2.00463 91.1852 2.13566 90.9123 2.22848C90.6393 2.32676 90.2025 2.50693 89.9295 2.63251C89.6565 2.75808 89.1651 3.02016 88.8375 3.20579C88.5099 3.39688 87.8821 3.78453 87.4453 4.06844C87.0085 4.35781 86.3205 4.83828 85.9165 5.13857C85.5125 5.43886 84.8355 5.963 84.4151 6.29605C83.9947 6.63456 83.1811 7.31158 82.6079 7.80296C82.0346 8.29435 80.8007 9.38631 79.867 10.2271C78.9334 11.0679 78.1745 11.7613 78.1799 11.7668C78.1854 11.7723 78.8187 11.8269 79.5831 11.8869L80.9754 11.9961C81.2702 11.6794 81.7616 11.1444 82.2639 10.6039C82.7607 10.0688 83.4978 9.32079 83.9018 8.94407C84.3059 8.56734 84.901 8.03773 85.2286 7.7702C85.5507 7.49721 86.1185 7.05497 86.4898 6.78743C86.8611 6.51444 87.418 6.13772 87.7292 5.94662C88.0404 5.75007 88.6082 5.42794 89.0013 5.22592C89.3944 5.01845 89.9459 4.75092 90.2298 4.6308C90.5137 4.50523 91.0651 4.29229 91.4582 4.16126C91.8513 4.02476 92.4519 3.84459 92.7959 3.75723C93.1399 3.67533 93.6312 3.56614 93.8879 3.517C94.1445 3.47332 94.6468 3.39688 95.0071 3.3532C95.3675 3.30953 96.0445 3.25493 96.5086 3.23855C96.9727 3.21671 98.1028 3.22763 99.0201 3.26039C99.9373 3.29315 101.188 3.35866 101.805 3.40234C102.422 3.45148 103.404 3.53338 103.989 3.59344C104.573 3.6535 105.523 3.76815 106.091 3.84459C106.658 3.91557 107.581 4.05206 108.138 4.14488C108.695 4.23224 109.552 4.37965 110.049 4.47247C110.546 4.56529 111.463 4.75092 112.096 4.88742C112.73 5.02391 113.871 5.28598 114.635 5.47708C115.4 5.66817 116.677 6.01214 117.474 6.24145C118.271 6.4653 119.718 6.92393 120.696 7.24606C121.673 7.57365 122.901 8.00498 123.426 8.20699C123.95 8.409 124.823 8.76935 125.364 9.00958C125.904 9.24436 126.641 9.6047 127.002 9.80126C127.362 9.99781 127.815 10.2599 128.012 10.3855C128.208 10.5165 128.552 10.7676 128.776 10.9478C129 11.1335 129.278 11.401 129.388 11.5484C129.497 11.6904 129.639 11.9142 129.699 12.0398C129.781 12.2036 129.814 12.3838 129.814 12.6131C129.814 12.8369 129.775 13.0335 129.71 13.1754C129.65 13.2955 129.448 13.5358 129.257 13.716C129.066 13.8907 128.754 14.1309 128.558 14.2456C128.361 14.3602 127.968 14.5568 127.684 14.6769C127.4 14.8025 126.871 15.0045 126.51 15.1191C126.15 15.2392 125.489 15.4358 125.036 15.5505C124.588 15.6651 123.638 15.8835 122.934 16.0364C122.23 16.1893 121.171 16.3967 120.586 16.5059C120.002 16.6151 119.079 16.7735 118.539 16.8608C117.998 16.9482 116.928 17.1065 116.164 17.2102C115.4 17.314 114.22 17.4614 113.543 17.5378C112.866 17.6143 111.774 17.7235 111.114 17.7835C110.453 17.8436 109.41 17.9309 108.793 17.9801C108.176 18.0238 107.024 18.1002 106.227 18.1439C105.43 18.1875 104.021 18.2531 103.088 18.2858C102.159 18.324 99.7135 18.3513 97.6551 18.3513C95.5968 18.3513 93.1399 18.324 92.1953 18.2858C91.2508 18.2531 89.9841 18.1985 89.3835 18.1712C88.7829 18.1384 87.691 18.0784 86.9539 18.0347C86.2168 17.9855 84.8409 17.8873 83.8964 17.8108C82.9518 17.7344 81.576 17.6143 80.8389 17.5433C80.1018 17.4669 78.9279 17.3413 78.2291 17.2594C77.2791 17.1447 76.9679 17.0901 76.9897 17.0355C77.0061 17.0028 77.2136 16.7189 77.4483 16.4076L77.8797 15.8507C76.0069 15.2884 75.4227 15.1082 75.3791 15.0918C75.3245 15.07 75.0132 15.3703 74.3963 16.0418L73.4954 17.0246C72.944 16.9864 72.0868 16.9099 71.2296 16.839C70.3724 16.7625 68.7781 16.637 67.6807 16.566C66.5833 16.4895 64.9235 16.3913 63.9953 16.3421C63.0672 16.2984 61.5657 16.2384 60.6648 16.2056C59.764 16.1783 57.5527 16.151 55.751 16.151C53.9492 16.151 51.7653 16.1783 50.8917 16.2056C50.0182 16.2384 48.6423 16.2984 47.8342 16.3421C47.0207 16.3913 45.7213 16.4732 44.9405 16.5387C44.1598 16.5987 43.0296 16.697 42.429 16.7571C41.8284 16.8117 40.8074 16.9263 40.1632 17.0028C39.5189 17.0792 38.4597 17.2102 37.8155 17.3031C37.1712 17.3959 36.1884 17.5378 35.6315 17.6306C35.0746 17.718 34.0209 17.9036 33.2838 18.0401C32.5467 18.1712 31.3674 18.4059 30.6631 18.5588C29.9588 18.7117 28.7904 18.9792 28.0697 19.1539C27.349 19.3287 26.3444 19.5853 25.8311 19.7272C25.3179 19.8637 24.3352 20.1476 23.6472 20.3551C22.9593 20.5626 21.7745 20.9393 21.0265 21.1959C20.273 21.4471 19.2684 21.802 18.788 21.9821C18.3075 22.1623 17.4831 22.479 16.9589 22.6919C16.4348 22.9048 15.6322 23.2324 15.1845 23.429C14.7313 23.6255 14.0325 23.9367 13.6284 24.1224C13.2244 24.308 12.2908 24.7612 11.5537 25.127C10.8166 25.4983 9.76289 26.0497 9.20598 26.3609C8.64908 26.6667 7.92838 27.0816 7.59533 27.2782C7.26229 27.4692 6.63987 27.8514 6.20308 28.1244C5.76629 28.392 5.07836 28.8342 4.67433 29.1072C4.2703 29.3802 3.75162 29.7405 3.52777 29.9098C3.30391 30.079 2.95448 30.3848 2.74701 30.5813C2.545 30.7834 2.28293 31.1 2.16281 31.2857C2.03723 31.4768 1.91712 31.717 1.88982 31.8207C1.85706 31.9245 1.83522 32.1483 1.84068 32.3121C1.84068 32.4759 1.85706 32.7271 1.8789 32.8636C1.90074 33.0055 1.92804 33.1311 1.94442 33.1475C1.9608 33.1638 2.52316 33.2075 3.20018 33.2457C4.16111 33.3003 4.66887 33.3003 5.5206 33.2512C6.12118 33.213 6.89648 33.1475 7.24045 33.1038C7.58442 33.0546 8.16316 32.9564 8.52351 32.8854C8.88385 32.8144 9.47351 32.667 9.83386 32.5633C10.1942 32.465 10.7347 32.2848 11.035 32.1756C11.3353 32.061 11.8758 31.8262 12.2362 31.6515C12.5965 31.4768 13.148 31.1655 13.4646 30.9581C13.7813 30.7561 14.2618 30.4012 14.5293 30.1773C14.7968 29.948 15.2009 29.5713 15.4247 29.331C15.6431 29.0963 15.9543 28.725 16.1072 28.5175C16.2655 28.3046 16.4894 27.977 16.615 27.7805C16.7351 27.5839 16.9207 27.2509 17.0245 27.0434C17.1336 26.8304 17.3029 26.4373 17.4121 26.1698C17.5213 25.8968 17.6851 25.3945 17.7834 25.0505C17.8871 24.6738 18.0018 24.3735 18.0727 24.3025C18.1328 24.2316 18.242 24.1661 18.3075 24.1497C18.3785 24.1333 18.4877 24.1551 18.5532 24.1879C18.6569 24.2534 18.6624 24.2862 18.6296 24.5319C18.6078 24.6793 18.5259 25.1215 18.4495 25.5146C18.3785 25.9023 18.2256 26.5192 18.1219 26.8796C18.0181 27.2399 17.8434 27.7532 17.7397 28.0262C17.6305 28.2937 17.4012 28.8124 17.221 29.1727C17.0408 29.5331 16.7187 30.0954 16.4948 30.4285C16.2765 30.7561 15.9052 31.2638 15.665 31.5477C15.4247 31.8316 15.0589 32.2248 14.8514 32.4158C14.644 32.6069 14.2509 32.9345 13.9833 33.142C13.7158 33.3549 13.2681 33.6607 13.0006 33.8299C12.733 33.9937 12.1652 34.2995 11.7448 34.5015C11.3244 34.7035 10.7238 34.9547 10.4071 35.0693C10.0905 35.1785 9.51173 35.3532 9.12409 35.4515C8.73644 35.5552 8.1304 35.6863 7.78643 35.7518C7.44246 35.8119 6.8255 35.8992 6.42147 35.9429C6.01745 35.992 5.01284 36.0466 4.19386 36.0685C3.38035 36.0903 2.70879 36.1176 2.70879 36.134C2.70879 36.1504 2.80161 36.3961 2.92173 36.68C3.03638 36.9639 3.19472 37.3406 3.27661 37.5099C3.35305 37.6846 3.54415 38.0558 3.70248 38.3288C3.85536 38.6073 4.15019 39.0823 4.34674 39.3826C4.54875 39.6829 4.87088 40.1251 5.05652 40.3654C5.24761 40.6056 5.68986 41.0915 6.03383 41.4519C6.38325 41.8067 6.90194 42.2927 7.18585 42.5329C7.46976 42.7731 7.9393 43.1335 8.22321 43.341C8.50713 43.543 9.03673 43.8869 9.39708 44.0999C9.75743 44.3183 10.3471 44.6404 10.7074 44.8151C11.0678 44.9898 11.6301 45.2464 11.9632 45.3775C12.2962 45.514 12.9077 45.7378 13.3282 45.8798C13.7486 46.0163 14.5348 46.2401 15.0753 46.3712C15.6158 46.5077 16.4403 46.6769 16.9043 46.7533C17.3684 46.8298 18.0946 46.9281 18.515 46.9717C18.9354 47.0209 19.7653 47.0755 20.3604 47.0973C20.9501 47.1192 21.436 47.1192 21.436 47.0919C21.436 47.07 21.3978 46.8735 21.3541 46.6551C21.305 46.4421 21.2067 45.9071 21.1357 45.4703C21.0647 45.0335 20.9664 44.2473 20.9118 43.7231C20.8463 43.057 20.8136 42.3036 20.819 41.2389C20.819 40.1688 20.8463 39.4536 20.9118 38.8639C20.961 38.3998 21.0647 37.6737 21.1357 37.2533C21.2121 36.8328 21.3541 36.1449 21.4578 35.7245C21.5616 35.3041 21.7254 34.7144 21.8182 34.4141C21.9165 34.1139 22.1403 33.486 22.3259 33.0219C22.5061 32.5578 22.8555 31.7825 23.1012 31.302C23.3415 30.8216 23.74 30.1063 23.9857 29.7187C24.226 29.3256 24.6464 28.7141 24.9194 28.3537C25.1869 27.9934 25.6401 27.4256 25.924 27.098C26.2079 26.7649 26.7484 26.2026 27.1197 25.8422C27.4964 25.4819 28.1297 24.9195 28.5338 24.5974C28.9378 24.2753 29.5766 23.8002 29.9533 23.5546C30.33 23.3034 30.9088 22.9485 31.2364 22.7629C31.564 22.5772 32.0936 22.2988 32.4102 22.1459C32.7269 21.9985 33.191 21.7856 33.4476 21.6764C33.7042 21.5726 34.2338 21.3761 34.6215 21.245C35.0091 21.114 35.6752 20.9175 36.0956 20.8137C36.516 20.71 37.1439 20.579 37.4879 20.5189C37.8318 20.4643 38.3887 20.3879 38.7163 20.3551C39.0439 20.3223 39.8083 20.2896 40.4089 20.2896C41.0095 20.2896 41.7575 20.3223 42.0741 20.3551C42.3908 20.3879 42.8549 20.4534 43.1115 20.4971C43.3681 20.5407 43.8322 20.639 44.1489 20.71C44.4655 20.7864 44.9951 20.9393 45.3227 21.043C45.6503 21.1522 46.2072 21.3652 46.5512 21.5126C46.8952 21.66 47.4521 21.9275 47.7796 22.1132C48.1072 22.2933 48.615 22.5991 48.8989 22.7902C49.1828 22.9813 49.6251 23.3034 49.8817 23.5054C50.1383 23.7074 50.6242 24.1442 50.9682 24.4773C51.3067 24.8049 51.7872 25.3126 52.0219 25.5965C52.2622 25.8804 52.6443 26.3718 52.8682 26.6885C53.0921 27.0052 53.4469 27.5457 53.649 27.8897C53.8564 28.2336 54.1731 28.8233 54.3478 29.2C54.528 29.5767 54.7682 30.1282 54.8774 30.4285C54.9866 30.7288 55.1668 31.2693 55.2651 31.6296C55.3688 31.99 55.5162 32.5796 55.5872 32.94C55.6636 33.3003 55.7674 33.9883 55.8274 34.4687C55.8875 34.9492 55.9639 35.659 55.9912 36.0521C56.024 36.4397 56.0731 37.559 56.1059 38.5363C56.1386 39.5136 56.1878 40.5182 56.2151 40.7748C56.2424 41.0315 56.3297 41.4792 56.4062 41.7685C56.4826 42.0634 56.63 42.5165 56.7338 42.7786C56.843 43.0461 57.045 43.4447 57.1869 43.6685C57.3234 43.8924 57.6128 44.2527 57.8257 44.4657C58.0332 44.6786 58.4263 45.0007 58.6993 45.1755C58.9723 45.3502 59.4091 45.5849 59.6821 45.7051C59.9551 45.8197 60.4574 45.9999 60.8013 46.1036C61.1453 46.2128 61.6367 46.3439 61.8933 46.4039C62.1499 46.464 62.8105 46.6114 63.3674 46.726C63.9243 46.8407 65.0654 47.0209 65.9063 47.1301C66.7471 47.2393 68.0847 47.3976 68.8819 47.485C69.679 47.5778 71.1368 47.7252 72.1305 47.8126C73.1241 47.9054 74.6311 48.0309 75.4883 48.091C76.3454 48.1511 77.7213 48.2384 78.5458 48.2821C79.3702 48.3258 80.757 48.3913 81.6306 48.4295C82.657 48.4732 85.0484 48.5005 88.428 48.5005C91.7585 48.5005 94.2427 48.4732 95.3074 48.4295C96.2247 48.3913 97.6988 48.3258 98.5833 48.2766C99.4678 48.233 100.756 48.162 101.45 48.1183C102.143 48.0692 103.355 47.9873 104.152 47.9272C104.949 47.8617 106.424 47.7416 107.428 47.6488C108.433 47.5614 109.956 47.414 110.813 47.3212C111.671 47.2338 113.205 47.0591 114.226 46.939C115.247 46.8189 116.906 46.6114 117.911 46.4749C118.916 46.3439 119.948 46.1801 120.204 46.12C120.461 46.0654 120.827 45.9617 121.023 45.8962C121.22 45.8361 121.553 45.6941 121.76 45.5904C121.973 45.4867 122.268 45.2737 122.421 45.1209C122.623 44.9188 122.727 44.7551 122.798 44.5421C122.896 44.2473 122.896 44.2309 122.754 43.3683C122.672 42.8878 122.568 42.178 122.525 41.7849C122.481 41.3918 122.421 40.5947 122.394 40.0105C122.361 39.3498 122.361 38.5527 122.388 37.9084C122.421 37.3351 122.481 36.5653 122.53 36.1886C122.574 35.8119 122.688 35.1348 122.781 34.6871C122.869 34.234 123.027 33.5843 123.125 33.2403C123.223 32.8963 123.42 32.2903 123.562 31.9026C123.704 31.5095 124.015 30.7888 124.25 30.292C124.49 29.7951 124.812 29.1836 124.965 28.927C125.118 28.6704 125.413 28.2172 125.615 27.917C125.817 27.6167 126.199 27.098 126.461 26.7704C126.729 26.4373 127.313 25.7985 127.766 25.3508C128.214 24.8977 128.853 24.3135 129.186 24.0459C129.519 23.7839 130.13 23.3416 130.551 23.0577C130.971 22.7793 131.632 22.3752 132.025 22.1623C132.418 21.9494 133.078 21.6272 133.499 21.4416C133.919 21.2614 134.618 20.9884 135.055 20.8465C135.492 20.6991 136.152 20.5025 136.529 20.4152C136.906 20.3223 137.583 20.1858 138.031 20.1094C138.484 20.0384 139.133 19.9511 139.477 19.9183C139.821 19.891 140.537 19.8637 141.061 19.8637C141.585 19.8637 142.3 19.891 142.644 19.9183C142.988 19.9511 143.578 20.0275 143.954 20.0876C144.331 20.1476 145.008 20.295 145.456 20.4097C145.909 20.5244 146.592 20.7373 146.985 20.8792C147.378 21.0212 148.098 21.3433 148.595 21.589C149.092 21.8347 149.791 22.2333 150.151 22.4681C150.512 22.7083 151.063 23.1068 151.38 23.358C151.696 23.6092 152.248 24.1115 152.608 24.4718C152.969 24.8376 153.471 25.3891 153.728 25.7057C153.979 26.0224 154.394 26.6011 154.65 26.9888C154.907 27.3819 155.322 28.0917 155.567 28.5721C155.813 29.0526 156.124 29.7132 156.255 30.0463C156.392 30.3739 156.594 30.9144 156.703 31.2474C156.812 31.575 157.009 32.263 157.145 32.7762C157.282 33.284 157.446 33.7863 157.511 33.89C157.577 33.9937 157.73 34.163 157.85 34.2613C157.97 34.365 158.194 34.4906 158.341 34.5506C158.494 34.6052 158.811 34.6762 159.051 34.709C159.335 34.7417 159.679 34.7472 160.034 34.7144C160.334 34.6817 160.885 34.5834 161.262 34.4906C161.639 34.3978 162.228 34.2067 162.572 34.0702C162.916 33.9337 163.653 33.5952 164.21 33.3167C164.767 33.0383 165.515 32.6233 165.876 32.394C166.236 32.1647 166.76 31.7989 167.044 31.586C167.328 31.3676 167.819 30.9472 168.136 30.6469C168.447 30.3466 168.889 29.877 169.113 29.6095C169.343 29.3365 169.698 28.8615 169.905 28.5448C170.112 28.2282 170.456 27.6276 170.658 27.2072C170.866 26.7868 171.133 26.1589 171.259 25.8149C171.379 25.471 171.548 24.9141 171.636 24.5865C171.723 24.2534 171.86 23.6528 171.931 23.2488C172.007 22.8448 172.105 22.1514 172.149 21.7037C172.198 21.2614 172.236 20.8246 172.236 20.7373V20.5735C171.625 20.7373 171.112 20.8465 170.708 20.9229C170.304 20.9939 169.588 21.0922 169.124 21.1413C168.66 21.185 167.885 21.2396 167.404 21.256C166.924 21.2778 165.99 21.2669 165.33 21.2341C164.669 21.2014 163.724 21.1359 163.228 21.0867C162.731 21.043 161.661 20.9229 160.853 20.8192C160.045 20.7154 157.915 20.4097 156.13 20.1367C154.344 19.8637 151.948 19.5088 150.807 19.345C149.665 19.1812 147.935 18.9519 146.957 18.8318C145.98 18.7062 144.582 18.5479 143.845 18.4769C143.108 18.4005 141.869 18.2913 141.088 18.2312C140.307 18.1712 139.199 18.0947 138.631 18.062C138.063 18.0292 136.709 17.991 135.628 17.9692C134.433 17.9528 133.073 17.9637 132.161 18.0019C131.337 18.0347 130.354 18.0893 129.977 18.122C129.601 18.1493 128.913 18.2094 128.449 18.2585C127.984 18.3022 127.089 18.4169 126.456 18.5042C125.822 18.597 124.769 18.7772 124.108 18.9082C123.447 19.0393 122.552 19.2358 122.115 19.345C121.678 19.4542 120.958 19.6508 120.505 19.7818C120.057 19.9129 119.32 20.1476 118.867 20.306C118.419 20.4588 117.693 20.7264 117.256 20.9011C116.819 21.0758 116.219 21.3324 115.918 21.4634C115.618 21.5999 115.165 21.8074 114.908 21.933C114.602 22.0804 114.368 22.1568 114.226 22.1568C114.106 22.1568 113.953 22.1186 113.887 22.0749C113.794 22.0149 113.762 21.9384 113.762 21.802C113.762 21.6982 113.794 21.5453 113.838 21.458C113.882 21.3761 113.975 21.2614 114.046 21.1959C114.111 21.1359 114.553 20.9229 115.017 20.7209C115.481 20.5244 116.12 20.2623 116.437 20.1367C116.754 20.0111 117.403 19.76 117.884 19.5798C118.364 19.3996 119.26 19.083 119.877 18.8755C120.494 18.6626 121.509 18.335 122.142 18.1439C122.776 17.9528 123.759 17.6743 124.326 17.5214C124.894 17.3686 125.833 17.1338 126.401 17.0028C126.969 16.8663 127.99 16.6479 128.667 16.5114C129.344 16.3749 130.327 16.1893 130.851 16.1019C131.375 16.0145 132.336 15.8617 132.98 15.7743C133.624 15.6815 134.585 15.5559 135.11 15.5013C135.634 15.4413 136.469 15.3539 136.966 15.3102C137.463 15.2611 138.222 15.201 138.658 15.1683C139.095 15.141 139.931 15.0864 140.515 15.0536C141.099 15.0208 142.868 14.9772 144.446 14.9553L147.312 14.9226C144.435 13.4812 143.048 12.8096 142.371 12.4984C141.694 12.1872 140.504 11.6576 139.723 11.3191C138.942 10.9806 137.627 10.4346 136.802 10.1015C135.978 9.77396 134.673 9.26619 133.908 8.98228C133.144 8.69837 131.976 8.27797 131.315 8.05411C130.654 7.8248 129.617 7.47537 129.011 7.27882C128.399 7.08226 127.297 6.74376 126.554 6.5199C125.806 6.29605 124.61 5.95208 123.89 5.76099C123.169 5.56443 122.088 5.28052 121.487 5.12765C120.887 4.98023 119.806 4.71816 119.085 4.55437C118.364 4.39057 117.098 4.12304 116.273 3.95379C115.449 3.78999 114.22 3.55522 113.543 3.4351C112.866 3.31499 111.752 3.12935 111.059 3.02562C110.366 2.91642 109.154 2.74716 108.356 2.64343C107.559 2.53969 106.309 2.39228 105.572 2.31584C104.835 2.2394 103.655 2.12474 102.951 2.07015C102.247 2.01009 101.018 1.92273 100.221 1.87905C99.4241 1.82991 98.0755 1.76986 97.2184 1.7371C96.3612 1.7098 95.1436 1.6825 94.5157 1.68796C93.8879 1.69342 93.1344 1.72618 92.8505 1.7644V1.7644ZM95.6077 3.87189C95.3347 3.89919 94.7997 3.97017 94.4065 4.03022C94.0134 4.09028 93.3637 4.22678 92.9597 4.33051C92.5557 4.42879 91.9332 4.61442 91.5838 4.73454C91.2289 4.86012 90.6283 5.09489 90.2462 5.26414C89.8585 5.43886 89.2743 5.72277 88.9467 5.90294C88.6191 6.07766 88.0295 6.43801 87.6364 6.69462C87.2433 6.94577 86.6318 7.38256 86.2769 7.65555C85.9165 7.92854 85.3159 8.41992 84.9392 8.75297C84.5625 9.08056 83.8964 9.70844 83.4596 10.1452C83.0228 10.582 82.4441 11.1826 82.1711 11.4829L81.6688 12.0289C82.6952 12.1381 83.3286 12.22 83.7326 12.28C84.1366 12.3401 84.7427 12.4493 85.0702 12.5257C85.3978 12.5967 85.9165 12.7332 86.2168 12.826C86.5171 12.9188 86.9539 13.0662 87.1887 13.1536C87.418 13.2409 87.6091 13.3228 87.6091 13.3392C87.6091 13.3556 87.216 13.8961 86.7355 14.5404C85.8674 15.7088 85.8619 15.7142 85.4797 15.9053C85.2723 16.0091 84.8955 16.1565 84.6498 16.2275C84.3987 16.2984 84.0766 16.3749 83.9237 16.4022C83.6889 16.4349 83.6671 16.4459 83.7872 16.4841C83.8636 16.5059 84.6007 16.5769 85.4251 16.637C86.2496 16.7025 87.5272 16.7898 88.2642 16.8335C89.0013 16.8772 90.1533 16.9372 90.8304 16.97C91.5074 16.9973 93.1999 17.0519 94.5976 17.0847C95.9954 17.1174 98.0919 17.1283 99.2658 17.112C100.44 17.0901 102.045 17.0519 102.842 17.0191C103.639 16.9918 104.742 16.9427 105.299 16.9154C105.856 16.8826 106.822 16.8226 107.456 16.7789C108.089 16.7352 109.154 16.6479 109.831 16.5824C110.508 16.5223 111.709 16.4022 112.506 16.3094C113.303 16.222 114.553 16.0582 115.29 15.9545C116.027 15.8507 117.207 15.6651 117.911 15.545C118.615 15.4249 119.746 15.2174 120.423 15.0809C121.1 14.9444 122.071 14.7369 122.579 14.6168C123.087 14.4967 123.824 14.3111 124.217 14.2073C124.61 14.0981 125.194 13.918 125.528 13.8033C125.861 13.6887 126.314 13.5085 126.538 13.4047C126.761 13.301 127.062 13.1317 127.204 13.0335C127.34 12.9297 127.509 12.7714 127.58 12.684C127.651 12.5912 127.717 12.422 127.728 12.3019C127.744 12.1271 127.711 12.0289 127.58 11.8214C127.488 11.6794 127.247 11.4392 127.045 11.2918C126.838 11.1389 126.292 10.8277 125.828 10.5929C125.364 10.3582 124.419 9.94321 123.726 9.67022C123.032 9.39723 121.908 8.97136 121.214 8.72021C120.521 8.47452 119.2 8.02135 118.266 7.71014C117.332 7.40439 116.071 7.00037 115.454 6.81473C114.837 6.6291 113.773 6.32335 113.079 6.13226C112.386 5.94662 111.294 5.66817 110.65 5.5153C110.005 5.36242 108.984 5.13857 108.384 5.01299C107.783 4.89288 106.789 4.70724 106.172 4.6035C105.556 4.49977 104.474 4.34143 103.77 4.25408C103.066 4.16126 102.034 4.05206 101.477 4.00838C100.92 3.95925 99.9865 3.89919 99.4023 3.86643C98.8181 3.83913 97.8353 3.81729 97.2184 3.81729C96.6014 3.82275 95.8807 3.84459 95.6077 3.87189V3.87189ZM38.1704 26.0115C38.0502 26.0224 37.6953 26.0715 37.3787 26.1207C37.062 26.1698 36.5215 26.279 36.1775 26.3609C35.8335 26.4483 35.2548 26.623 34.8945 26.7486C34.5341 26.8796 33.8953 27.158 33.4749 27.3655C33.0545 27.5784 32.4648 27.917 32.1645 28.119C31.8643 28.3155 31.4111 28.6486 31.1545 28.856C30.8979 29.0581 30.4447 29.473 30.1444 29.7733C29.8441 30.0736 29.4292 30.5267 29.2272 30.7834C29.0197 31.04 28.6812 31.5041 28.4737 31.8207C28.2608 32.1374 27.9113 32.7598 27.6875 33.213C27.4636 33.6607 27.1852 34.3159 27.0705 34.6598C26.9504 35.0038 26.7921 35.5443 26.7156 35.861C26.6392 36.1777 26.53 36.7018 26.4754 37.0349C26.4044 37.488 26.3771 37.9466 26.3771 38.9185C26.3771 39.9122 26.399 40.3381 26.4754 40.8021C26.53 41.1297 26.6283 41.6102 26.6829 41.8668C26.7429 42.1234 26.9067 42.6749 27.0432 43.0953C27.1852 43.5157 27.4746 44.2145 27.6929 44.6513C27.9113 45.0881 28.2662 45.716 28.4846 46.0436C28.7085 46.3766 29.047 46.8407 29.2435 47.0809C29.4346 47.3212 29.8387 47.7634 30.1444 48.0692C30.4447 48.3695 30.9252 48.8008 31.2091 49.0301C31.493 49.2594 31.9462 49.587 32.2191 49.7672C32.4921 49.9419 33.0054 50.2367 33.3657 50.4223C33.7261 50.608 34.2775 50.8591 34.5942 50.9793C34.9108 51.1048 35.4241 51.2795 35.7407 51.3669C36.0574 51.4597 36.5597 51.5798 36.86 51.6399C37.1603 51.6945 37.6899 51.7709 38.0339 51.8091C38.4215 51.8474 39.0603 51.8637 39.6991 51.8419C40.387 51.8255 40.9549 51.7764 41.3917 51.6999C41.752 51.6344 42.3307 51.5089 42.6747 51.416C43.0187 51.3232 43.5592 51.1485 43.8759 51.0338C44.1925 50.9137 44.7331 50.6735 45.077 50.5042C45.421 50.335 46.027 49.9801 46.4147 49.7235C46.8023 49.4614 47.3592 49.0519 47.6431 48.8172C47.9271 48.5769 48.3911 48.1347 48.6751 47.8399C48.9535 47.545 49.3903 47.0263 49.636 46.6987C49.8817 46.3657 50.2256 45.8634 50.3949 45.5795C50.5696 45.2956 50.8208 44.826 50.9573 44.5421C51.0938 44.2582 51.3067 43.7668 51.4213 43.4502C51.5415 43.1335 51.7216 42.5602 51.8199 42.1671C51.9182 41.774 52.0492 41.1843 52.1038 40.8567C52.1803 40.3817 52.2021 39.9668 52.2021 38.8912C52.1966 37.7064 52.1803 37.4334 52.0711 36.8165C52.0001 36.4234 51.8636 35.8119 51.7653 35.4515C51.667 35.0912 51.4923 34.5616 51.3831 34.2776C51.2685 33.9937 51.0228 33.4532 50.8371 33.0765C50.6515 32.6998 50.2966 32.0992 50.0564 31.7388C49.8162 31.3785 49.3903 30.8107 49.1064 30.4831C48.8225 30.15 48.3802 29.6969 48.1291 29.4621C47.8779 29.2328 47.523 28.927 47.3429 28.7796C47.1627 28.6377 46.7477 28.3374 46.4147 28.1135C46.0871 27.8951 45.4483 27.5348 44.9951 27.3109C44.5474 27.0925 43.9195 26.825 43.6029 26.7158C43.2862 26.6066 42.7948 26.4592 42.5109 26.3827C42.227 26.3063 41.6974 26.1971 41.3371 26.1371C40.862 26.0552 40.3707 26.0224 39.5353 26.006C38.9074 25.9951 38.2905 26.0006 38.1704 26.0115V26.0115Z" fill="#FCFEFF"/>
<path d="M127.082 23.6037C127.426 23.4017 128.026 23.0796 128.414 22.8885C128.801 22.6974 129.129 22.5391 129.14 22.5391C129.151 22.5391 129.156 22.55 129.156 22.5664C129.156 22.5827 128.807 22.823 128.376 23.1069C127.95 23.3853 127.305 23.8385 126.945 24.1115C126.585 24.379 126.044 24.8049 125.744 25.056C125.444 25.3072 124.788 25.9187 124.292 26.4155C123.795 26.9124 123.145 27.6112 122.845 27.9716C122.55 28.3319 122.102 28.8998 121.862 29.2273C121.616 29.5549 121.212 30.1501 120.956 30.5377C120.699 30.9254 120.273 31.6187 120.011 32.0665C119.749 32.5196 119.176 33.5734 118.739 34.4142C118.302 35.255 117.767 36.2651 117.549 36.6527C117.336 37.0404 116.959 37.6573 116.724 38.0177C116.484 38.378 116.135 38.8694 115.944 39.1096C115.752 39.3499 115.447 39.7047 115.267 39.8958C115.081 40.0869 114.748 40.3927 114.524 40.5838C114.3 40.7694 113.94 41.0369 113.732 41.168C113.519 41.3045 113.126 41.5283 112.859 41.6594C112.591 41.7959 112.133 41.9924 111.849 42.1016C111.565 42.2053 110.975 42.3801 110.538 42.4893C110.102 42.593 109.375 42.7459 108.928 42.8168C108.475 42.8933 107.617 43.0189 107.017 43.0953C106.416 43.1717 105.854 43.2318 105.766 43.2318C105.679 43.2318 105.619 43.2209 105.63 43.2045C105.641 43.1881 106.165 43.068 106.798 42.9315C107.432 42.795 108.262 42.5985 108.655 42.4947C109.042 42.3964 109.681 42.1999 110.074 42.0634C110.462 41.9324 111.041 41.703 111.357 41.5556C111.674 41.4082 112.154 41.1461 112.422 40.9823C112.69 40.8131 113.099 40.5346 113.323 40.3599C113.547 40.1907 113.891 39.9068 114.087 39.732C114.284 39.5628 114.65 39.1806 114.906 38.8912C115.163 38.5964 115.534 38.1378 115.736 37.8593C115.938 37.5863 116.288 37.0567 116.511 36.68C116.735 36.3033 117.117 35.5935 117.363 35.0967C117.609 34.5998 118.024 33.8027 118.28 33.3222C118.537 32.8418 118.941 32.1156 119.181 31.7116C119.421 31.3075 119.815 30.6797 120.055 30.3193C120.295 29.959 120.677 29.4184 120.907 29.1182C121.13 28.8179 121.496 28.3538 121.726 28.0808C121.949 27.8078 122.501 27.2181 122.954 26.7704C123.407 26.3173 124.073 25.7167 124.434 25.4273C124.794 25.1379 125.395 24.6957 125.771 24.4391C126.148 24.1825 126.738 23.8057 127.082 23.6037Z" fill="#424142"/>
<path d="M53.6852 24.7721C53.4231 24.4445 53.2156 24.1497 53.2156 24.117C53.2211 24.0842 53.4122 24.2152 53.6415 24.4063C53.8654 24.5974 54.4659 25.1543 54.9737 25.6512C55.4815 26.148 56.1093 26.7977 56.3714 27.098C56.6335 27.3983 57.0266 27.8897 57.2559 28.19C57.4852 28.4903 57.8401 28.9926 58.053 29.3092C58.2605 29.6259 58.5717 30.1173 58.7355 30.4012C58.9048 30.6851 59.2706 31.384 59.5545 31.9573C59.8329 32.5305 60.2424 33.4369 60.4608 33.9774C60.6738 34.5179 61.0505 35.5607 61.2962 36.2978C61.5364 37.0349 61.8094 37.9794 61.8968 38.3999C61.9896 38.8203 62.1097 39.3608 62.1698 39.601C62.2298 39.8412 62.3827 40.2453 62.5028 40.5019C62.6666 40.8513 62.8031 41.0479 63.0542 41.2936C63.2399 41.4737 63.5675 41.714 63.7749 41.8232C63.9879 41.9324 64.441 42.1344 64.785 42.2654C65.129 42.4019 65.8661 42.6585 66.423 42.8387C66.9799 43.0189 67.8753 43.2755 68.4158 43.4174C68.9563 43.5539 69.8899 43.7614 70.4905 43.8815C71.0911 44.0016 72.0848 44.1709 72.7018 44.2637C73.3187 44.3511 74.3506 44.4876 74.9949 44.564C75.6391 44.6404 76.8185 44.766 77.6156 44.8424C78.4127 44.9189 79.0734 44.9953 79.0897 45.0117C79.1061 45.0226 78.2544 45.0335 77.2061 45.0335C76.1524 45.0335 74.6946 45.0062 73.9575 44.9789C73.2204 44.9516 72.1995 44.9025 71.6917 44.8697C71.1785 44.837 70.2121 44.7605 69.5351 44.7005C68.858 44.6404 67.8152 44.5312 67.2146 44.4548C66.6141 44.3838 65.6422 44.2473 65.058 44.1545C64.4738 44.0617 63.491 43.887 62.8741 43.7669C62.2571 43.6467 61.6074 43.4939 61.4272 43.4283C61.247 43.3574 60.9468 43.2263 60.7557 43.1281C60.57 43.0352 60.3189 42.866 60.1933 42.7568C60.0732 42.6421 59.8985 42.4019 59.8111 42.2217C59.7019 41.9924 59.6309 41.7249 59.5763 41.3209C59.5327 41.0042 59.4726 40.3217 59.4398 39.8085C59.4071 39.2898 59.3306 38.4763 59.2706 38.0067C59.2105 37.5317 59.0631 36.6636 58.943 36.0794C58.8229 35.4952 58.6263 34.6599 58.5062 34.2231C58.3806 33.7863 58.1786 33.1366 58.0585 32.7762C57.9384 32.4159 57.6927 31.7552 57.5125 31.3021C57.3323 30.8544 56.9884 30.09 56.7536 29.6095C56.5188 29.1291 56.1749 28.463 55.9838 28.1354C55.7927 27.8078 55.5033 27.3273 55.3395 27.0707C55.1757 26.8141 54.8481 26.3282 54.6079 25.9842C54.3622 25.6402 53.9527 25.0943 53.6852 24.7721Z" fill="#424142"/>
<path d="M37.2129 27.2618C37.4695 27.2181 37.9118 27.1581 38.1957 27.1253C38.4796 27.098 39.0965 27.0871 39.5606 27.098C40.0247 27.1089 40.6744 27.1581 41.0075 27.2072C41.3351 27.2564 41.9356 27.3765 42.3287 27.4802C42.7273 27.5839 43.2842 27.7587 43.5572 27.8679C43.8357 27.977 44.3489 28.2118 44.6929 28.3865C45.0368 28.5612 45.5664 28.867 45.8667 29.069C46.167 29.2656 46.5983 29.5822 46.8222 29.7624C47.046 29.948 47.4774 30.3412 47.7777 30.6469C48.0779 30.9527 48.4984 31.4331 48.7167 31.717C48.9297 32.0009 49.2463 32.4486 49.4156 32.7216C49.5849 32.9946 49.8578 33.486 50.0162 33.8136C50.1745 34.1412 50.3984 34.6708 50.5076 34.9875C50.6168 35.3041 50.7642 35.7955 50.8352 36.0794C50.9116 36.3633 51.0044 36.8547 51.0535 37.1714C51.1027 37.4881 51.1518 38.0777 51.1737 38.4817C51.19 38.9022 51.1737 39.5246 51.1409 39.9286C51.1027 40.3217 51.0262 40.8841 50.9662 41.1844C50.9061 41.4847 50.7969 41.9487 50.715 42.2217C50.6386 42.4947 50.4639 42.9861 50.3329 43.3137C50.2018 43.6413 49.967 44.149 49.8142 44.433C49.6613 44.7169 49.3719 45.1973 49.1699 45.4976C48.9679 45.7979 48.6021 46.2784 48.3673 46.5623C48.1271 46.8462 47.7558 47.2448 47.5374 47.4522C47.3245 47.6543 46.9587 47.9709 46.7239 48.1566C46.4946 48.3422 46.0687 48.6425 45.7848 48.8336C45.5009 49.0192 44.9713 49.3195 44.611 49.4997C44.2506 49.6798 43.7101 49.9201 43.4098 50.0293C43.1095 50.1439 42.5908 50.3023 42.2632 50.3842C41.9302 50.4715 41.406 50.5807 41.0894 50.6244C40.7727 50.6735 40.1612 50.7281 39.7244 50.75C39.2549 50.7664 38.6597 50.7554 38.2503 50.7172C37.8735 50.679 37.2675 50.5916 36.8962 50.5152C36.5304 50.4442 35.9298 50.2859 35.5586 50.1658C35.1928 50.0457 34.5703 49.789 34.1827 49.5979C33.7896 49.4123 33.2654 49.1284 33.0088 48.9701C32.7522 48.8063 32.37 48.5497 32.1626 48.3913C31.9496 48.233 31.562 47.9109 31.2944 47.6706C31.0269 47.4359 30.5737 46.9718 30.2898 46.6442C30.0059 46.3166 29.5964 45.7706 29.378 45.443C29.1542 45.1154 28.8266 44.5476 28.6519 44.1873C28.4717 43.8269 28.2315 43.2864 28.1223 42.9861C28.0076 42.6858 27.8493 42.1671 27.7674 41.8395C27.68 41.5119 27.5708 40.955 27.5162 40.6111C27.4453 40.1688 27.418 39.6665 27.418 38.9185C27.418 38.176 27.4507 37.6628 27.5162 37.226C27.5708 36.882 27.68 36.3251 27.7674 35.9975C27.8493 35.6699 28.0131 35.1513 28.1223 34.851C28.2369 34.5507 28.4608 34.032 28.63 33.7044C28.7938 33.3768 29.0505 32.9073 29.2033 32.667C29.3507 32.4268 29.662 31.9846 29.8913 31.6897C30.1206 31.3894 30.541 30.9144 30.8249 30.6251C31.1143 30.3357 31.5456 29.9426 31.7804 29.7515C32.0206 29.5604 32.4628 29.2383 32.7631 29.0417C33.0634 28.8397 33.5548 28.5503 33.8551 28.3975C34.1554 28.2446 34.685 28.0043 35.029 27.8733C35.3729 27.7423 35.9025 27.5676 36.2028 27.4911C36.5031 27.4147 36.9563 27.3109 37.2129 27.2618Z" fill="#424142"/>
<path d="M138.11 27.2618C138.367 27.2181 138.809 27.1581 139.093 27.1253C139.377 27.098 140.005 27.0871 140.485 27.1035C140.966 27.1144 141.605 27.1635 141.905 27.2072C142.205 27.2509 142.757 27.3655 143.133 27.4584C143.51 27.5512 144.1 27.7368 144.444 27.8733C144.788 28.0043 145.317 28.2446 145.618 28.3975C145.918 28.5503 146.409 28.8397 146.71 29.0417C147.01 29.2383 147.452 29.5604 147.692 29.7515C147.927 29.9426 148.337 30.3084 148.593 30.565C148.85 30.8216 149.21 31.2147 149.39 31.4386C149.576 31.6624 149.893 32.0938 150.095 32.394C150.297 32.6943 150.635 33.2949 150.854 33.7317C151.072 34.1685 151.351 34.8291 151.471 35.2059C151.596 35.5826 151.76 36.1941 151.836 36.5708C151.913 36.9475 152.006 37.6355 152.038 38.0996C152.088 38.7493 152.088 39.1369 152.038 39.7648C152.006 40.218 151.913 40.8841 151.842 41.2553C151.765 41.6211 151.629 42.1617 151.536 42.4565C151.443 42.7459 151.252 43.2427 151.121 43.5594C150.985 43.8761 150.728 44.3893 150.553 44.7059C150.373 45.0226 150.067 45.4976 149.876 45.7706C149.68 46.0436 149.309 46.5077 149.046 46.8025C148.779 47.1028 148.298 47.5778 147.965 47.8617C147.632 48.1402 147.108 48.5442 146.792 48.7571C146.475 48.9646 145.863 49.314 145.427 49.5324C144.99 49.7508 144.313 50.0293 143.925 50.1603C143.532 50.2859 142.921 50.4497 142.56 50.5207C142.2 50.5916 141.621 50.679 141.277 50.7063C140.933 50.7391 140.425 50.7664 140.158 50.7664C139.89 50.7664 139.399 50.7391 139.066 50.7063C138.733 50.679 138.16 50.5916 137.783 50.5152C137.406 50.4388 136.795 50.275 136.418 50.1494C136.041 50.0238 135.381 49.7508 134.944 49.5324C134.507 49.3195 133.928 48.9974 133.661 48.8172C133.393 48.637 132.973 48.3367 132.733 48.1456C132.492 47.9545 132.039 47.5396 131.722 47.2229C131.406 46.9063 130.953 46.3821 130.712 46.0654C130.472 45.7433 130.117 45.2137 129.921 44.8916C129.73 44.564 129.457 44.0398 129.315 43.7232C129.173 43.4065 128.998 42.9643 128.922 42.7404C128.845 42.5166 128.72 42.0852 128.643 41.7849C128.567 41.4847 128.463 40.966 128.414 40.6384C128.343 40.2016 128.316 39.7266 128.316 38.9185C128.316 38.105 128.343 37.6355 128.414 37.1987C128.463 36.8711 128.567 36.3633 128.638 36.0794C128.709 35.7955 128.856 35.3041 128.965 34.9875C129.074 34.6708 129.315 34.1084 129.5 33.7317C129.686 33.355 130.024 32.7653 130.254 32.4213C130.483 32.0774 130.903 31.5205 131.193 31.1929C131.477 30.8653 131.892 30.4285 132.11 30.232C132.334 30.0354 132.722 29.7133 132.978 29.5167C133.235 29.3202 133.639 29.0363 133.879 28.8888C134.119 28.736 134.562 28.4903 134.862 28.3429C135.162 28.19 135.632 27.9825 135.899 27.8733C136.167 27.7696 136.675 27.6058 137.018 27.513C137.362 27.4256 137.854 27.3109 138.11 27.2618Z" fill="#424142"/>
<path d="M37.0754 27.5674C37.403 27.5019 37.8835 27.4309 38.1401 27.4036C38.3967 27.3817 38.8608 27.3544 39.1775 27.349C39.4941 27.349 40.0237 27.3708 40.3513 27.4036C40.6789 27.4363 41.1976 27.5073 41.4979 27.5674C41.7982 27.6274 42.2513 27.7366 42.508 27.8131C42.7646 27.884 43.2177 28.0369 43.518 28.157C43.8183 28.2717 44.2496 28.4573 44.4735 28.572C44.6973 28.6866 45.0686 28.8887 45.2925 29.0251C45.5163 29.1616 45.9749 29.4729 46.3025 29.7185C46.6301 29.9642 47.1488 30.4119 47.4491 30.7068C47.7494 31.0071 48.1534 31.4438 48.3445 31.6841C48.5411 31.9243 48.8468 32.3556 49.0379 32.6396C49.2235 32.9235 49.5129 33.4312 49.6767 33.7588C49.8405 34.0864 50.0371 34.5177 50.1135 34.7143C50.1899 34.9108 50.3373 35.3531 50.4411 35.6971C50.5448 36.041 50.6868 36.6307 50.7523 37.0074C50.8178 37.3896 50.8833 38.0666 50.8997 38.5362C50.9161 39.0385 50.9052 39.6281 50.867 39.983C50.8287 40.3106 50.7414 40.8784 50.6704 41.2388C50.5994 41.5991 50.4247 42.2215 50.2882 42.6147C50.1517 43.0132 49.9224 43.592 49.775 43.8977C49.6276 44.2089 49.3655 44.6785 49.1962 44.9515C49.027 45.2244 48.7103 45.6776 48.4974 45.9615C48.279 46.2454 47.8477 46.7368 47.531 47.0535C47.2143 47.3702 46.7229 47.8124 46.439 48.0308C46.1551 48.2492 45.7129 48.5604 45.4563 48.7187C45.1997 48.8771 44.7465 49.1282 44.4462 49.2756C44.1459 49.4285 43.6545 49.6414 43.3542 49.7561C43.0539 49.8708 42.4861 50.04 42.0985 50.1383C41.7108 50.242 41.0556 50.3621 40.6516 50.4058C40.2476 50.455 39.6361 50.4932 39.2976 50.4932C38.9645 50.4932 38.4459 50.4659 38.1565 50.4331C37.8617 50.4058 37.3211 50.3185 36.9499 50.242C36.5841 50.171 35.9835 50.0127 35.6177 49.8871C35.2464 49.767 34.6021 49.4995 34.1817 49.292C33.7613 49.09 33.1717 48.757 32.8714 48.5549C32.5711 48.3529 32.1398 48.0363 31.9159 47.8506C31.692 47.6704 31.3153 47.321 31.0696 47.0808C30.8294 46.8351 30.48 46.4584 30.2998 46.2345C30.1142 46.0107 29.7975 45.5793 29.5955 45.279C29.3935 44.9788 29.0659 44.4 28.8639 43.996C28.6618 43.592 28.3943 42.9532 28.2742 42.5764C28.1486 42.1997 27.9848 41.5882 27.9029 41.2115C27.8265 40.8347 27.7391 40.1577 27.7009 39.71C27.6518 39.0767 27.6518 38.7109 27.7009 38.0994C27.7391 37.6626 27.8265 37.0074 27.9029 36.6361C27.9794 36.2703 28.1377 35.6698 28.2633 35.2985C28.3834 34.9327 28.6236 34.3376 28.7983 33.9772C28.9731 33.6169 29.2406 33.1146 29.4044 32.8579C29.5627 32.6013 29.8412 32.1973 30.0268 31.9571C30.207 31.7168 30.6274 31.2418 30.9604 30.8979C31.288 30.5594 31.7685 30.1117 32.0251 29.9096C32.2817 29.7076 32.724 29.391 33.0079 29.1999C33.2918 29.0142 33.8214 28.7194 34.1817 28.5447C34.5421 28.3645 35.2027 28.1024 35.6559 27.9496C36.1036 27.8021 36.7478 27.6329 37.0754 27.5674Z" fill="#FCFEFF"/>
<path d="M138 27.5619C138.317 27.5019 138.781 27.4309 139.038 27.4036C139.294 27.3763 139.758 27.3544 140.075 27.349C140.392 27.3435 140.905 27.3654 141.222 27.3981C141.538 27.4309 142.062 27.5073 142.395 27.5674C142.729 27.6329 143.367 27.8021 143.815 27.9496C144.268 28.1024 144.929 28.3645 145.289 28.5447C145.65 28.7194 146.201 29.0306 146.518 29.2381C146.834 29.4456 147.277 29.7677 147.5 29.9479C147.724 30.1335 148.183 30.5594 148.51 30.8979C148.844 31.2418 149.275 31.7278 149.466 31.9844C149.657 32.241 149.93 32.6341 150.072 32.8579C150.208 33.0818 150.449 33.5131 150.596 33.8134C150.749 34.1137 150.962 34.6051 151.077 34.9054C151.186 35.2057 151.35 35.7244 151.431 36.0519C151.519 36.3795 151.633 36.9255 151.688 37.2531C151.754 37.6844 151.781 38.1594 151.781 38.9183C151.781 39.6554 151.754 40.1686 151.688 40.5836C151.639 40.9112 151.524 41.4572 151.437 41.7848C151.35 42.1123 151.186 42.631 151.077 42.9313C150.962 43.2316 150.733 43.7612 150.558 44.1052C150.383 44.4492 150.094 44.9515 149.919 45.2244C149.739 45.4974 149.433 45.9124 149.242 46.1526C149.051 46.3874 148.685 46.7969 148.429 47.0535C148.172 47.3101 147.779 47.6704 147.555 47.8506C147.331 48.0363 146.9 48.3529 146.6 48.5549C146.299 48.757 145.71 49.09 145.289 49.292C144.869 49.4995 144.23 49.767 143.87 49.8817C143.509 50.0018 142.969 50.1547 142.668 50.2202C142.368 50.2857 141.839 50.3731 141.495 50.4113C141.151 50.455 140.572 50.4932 140.212 50.4932C139.851 50.4932 139.223 50.455 138.819 50.4058C138.415 50.3621 137.766 50.242 137.372 50.1383C136.979 50.04 136.417 49.8653 136.117 49.7561C135.816 49.6414 135.287 49.4067 134.943 49.232C134.599 49.0572 134.058 48.746 133.742 48.5386C133.425 48.3311 132.901 47.9271 132.568 47.6431C132.235 47.3592 131.787 46.917 131.563 46.6658C131.339 46.4147 131.028 46.0325 130.87 45.825C130.711 45.6176 130.444 45.2244 130.275 44.9515C130.105 44.6785 129.843 44.2035 129.69 43.8868C129.538 43.5701 129.297 42.9586 129.15 42.5218C129.008 42.085 128.839 41.4572 128.779 41.1296C128.713 40.802 128.642 40.3106 128.609 40.0376C128.582 39.7646 128.555 39.2896 128.555 38.9729C128.555 38.6563 128.582 38.1431 128.609 37.8264C128.642 37.5097 128.724 36.9692 128.795 36.6252C128.866 36.2813 129.024 35.6916 129.15 35.3149C129.275 34.9381 129.532 34.3103 129.718 33.9226C129.909 33.5295 130.198 33.0054 130.362 32.7487C130.526 32.4921 130.848 32.0444 131.077 31.7496C131.312 31.4602 131.743 30.9852 132.033 30.6959C132.328 30.4065 132.835 29.9642 133.168 29.7185C133.501 29.4729 133.955 29.1616 134.178 29.0251C134.402 28.8887 134.746 28.6976 134.943 28.5993C135.139 28.501 135.554 28.3154 135.871 28.1898C136.188 28.0642 136.668 27.895 136.936 27.8185C137.203 27.7421 137.684 27.6274 138 27.5619Z" fill="#FCFEFF"/>
</svg>
